<svg id="base" xmlns="http://www.w3.org/2000/svg" viewBox="0 0 450 500"><style>.st0{fill:#fff}.st1{fill:#444}</style><path class="st0" d="M373.6 246H89.1c-5.5 0-10-4.5-10-10V52.2c0-5.5 4.5-10 10-10h284.5c5.5 0 10 4.5 10 10V236c0 5.5-4.5 10-10 10z"/><path class="st1" d="M110.8 60.5h7.1v163.4h-7.1zm13.5 0h13.5v148.3h-13.5zm20.6 0h12.7v148.3h-12.7zm22.2 0h5.6v148.3h-5.6zm19.9 0h6.3v148.3H187zm12.6 0h12.7v148.3h-12.7zm19.9 0h8.5v163.4h-8.5zm14.3 0h13.5v148.3h-13.5zm26.9 0h6.3v148.3h-6.3zm16.7 0h12.7v148.3h-12.7zm22.2 0h5.6v148.3h-5.6zm14.2 0h8.7v148.3h-8.7zm13.5 0h15.1v148.3h-15.1zm22.2 0h7.1v163.4h-7.1z"/></svg>