<svg xmlns="http://www.w3.org/2000/svg" width="500" height="450" viewBox="0 0 500 450"><g fill="#313132" stroke="#313132" stroke-miterlimit="10"><path d="M452.023 315.591c-.944 5.781-6.398 9.705-12.18 8.761l-105.285-17.185c-5.782-.942-9.705-6.395-8.762-12.177L363.44 64.364c.942-5.783 6.396-9.705 12.178-8.761l105.286 17.184c5.78.944 9.703 6.396 8.76 12.179l-37.641 230.625z"/><path d="M477.581 64.382l6.544 1.069-1.25 7.66-6.545-1.07z"/></g><g stroke-miterlimit="10"><path fill="#525151" stroke="#525151" d="M385.677 57.255l86.718 14.156-13.989 85.695-86.718-14.156z"/><path fill="#FFF" stroke="#FFF" d="M370.839 148.176l64.965 10.605L416.506 277l-64.965-10.605z"/><path fill="#525151" stroke="#525151" d="M431.312 294.875c-.569 3.493-2.463 6.09-4.23 5.802l-23.772-3.88c-1.767-.289-2.737-3.352-2.166-6.847.571-3.491 2.463-6.088 4.231-5.8l23.771 3.88c1.766.288 2.737 3.351 2.166 6.845z"/></g><ellipse transform="rotate(9.271 422.701 105.886)" fill="none" stroke="#313132" stroke-width="4" stroke-miterlimit="10" cx="422.723" cy="105.895" rx="31.992" ry="31.616"/><g fill="#313132" stroke="#313132" stroke-width="4" stroke-miterlimit="10"><path d="M427.419 88.304c-.196 1.212-1.352 2.033-2.579 1.833-1.227-.2-2.061-1.346-1.864-2.557a2.239 2.239 0 0 1 2.58-1.833c1.228.199 2.063 1.344 1.863 2.557z"/><ellipse transform="rotate(9.271 433.5 97.896)" cx="433.524" cy="97.905" rx="2.251" ry="2.224"/><ellipse transform="rotate(9.271 441.637 109.058)" cx="441.655" cy="109.065" rx="2.252" ry="2.224"/><ellipse transform="rotate(9.259 415.297 94.923)" cx="415.349" cy="94.938" rx="2.251" ry="2.225"/><ellipse transform="rotate(9.259 423.717 104.917)" cx="423.674" cy="104.902" rx="2.252" ry="2.224"/><ellipse transform="rotate(9.284 431.714 115.967)" cx="431.804" cy="116.063" rx="2.251" ry="2.224"/><ellipse transform="rotate(9.25 404.319 101.87)" cx="404.289" cy="101.738" rx="2.25" ry="2.225"/><ellipse transform="rotate(9.284 412.528 111.61)" cx="412.613" cy="111.702" rx="2.251" ry="2.224"/><path d="M422.965 123.225c-.197 1.213-1.354 2.032-2.579 1.832-1.229-.2-2.063-1.345-1.865-2.558.2-1.212 1.354-2.033 2.581-1.833s2.062 1.346 1.863 2.559z"/></g><path fill="#50C2EC" d="M50.655 301.854l-29.177 99.308v22.508H246.04v-23.342l-25.677-98.474"/><path fill="none" stroke="#FFF" stroke-width="4" stroke-miterlimit="10" d="M21.478 401.162H246.04"/><circle fill="#FFF" stroke="#FFF" stroke-width="2.5" stroke-miterlimit="10" cx="135.57" cy="297.31" r="84.915"/><path fill="#313132" stroke="#313132" stroke-miterlimit="10" d="M154.624 239.438c0 2.304-1.442 4.171-3.223 4.171h-33.749c-1.78 0-3.224-1.867-3.224-4.171 0-2.305 1.443-4.172 3.224-4.172h33.749c1.78.001 3.223 1.868 3.223 4.172z"/><circle fill="#313132" stroke="#313132" stroke-miterlimit="10" cx="134.526" cy="301.854" r="40.953"/><circle fill="none" stroke="#FFF" stroke-width="9" stroke-miterlimit="10" cx="134.759" cy="301.699" r="27.251"/><path fill="#2A2A2B" d="M89.827 28.671c-.188-1.083-1.243-1.97-2.343-1.97H63.037c-1.1 0-1.317.587-.483 1.304L92.97 54.158c.834.717 1.362.417 1.174-.667l-4.317-24.82z"/><ellipse fill="#2A2A2B" cx="133.759" cy="26.659" rx="46.931" ry="9.649"/><path fill="#C44645" d="M150.035 26.83l-6.937 96.938h18.876l18.802-97.266z"/><path d="M113.556 176.965h36.263l-6.721-48.977h-21.414m-2.201-7.19h25.202l8.164-94.097h-39.525l6.159 94.097" fill="#EB5B5C"/><path fill="#C44645" d="M86.827 26.659h26.497l6.077 92.889h-15.146m17.429 8.44l-8.128 48.977H86.827l17.844-45.702-.416-3.275z"/><path fill="#2B2B2B" d="M164.512 125.988c0 1.1-.9 2-2 2h-61.024c-1.1 0-2-.9-2-2v-4.44c0-1.1.9-2 2-2h61.024c1.1 0 2 .9 2 2v4.44z"/><path fill="#C44645" d="M143.098 127.988l6.721 48.977h30.087l-17.948-46.317v-2.66z"/></svg>