<svg xmlns="http://www.w3.org/2000/svg" viewBox="0 0 250 191"><path fill="#2B2B2B" d="M14.755 171.98h219.894c1.672 0 3.875-1.06 4.92-2.365l1.063-1.328c1.045-1.306 1.893-3.721 1.893-5.394v-18.476c0-1.673-.865-4.074-1.932-5.363l-3.407-4.116c-1.066-1.288-3.264-2.584-4.907-2.894l-50.383-9.48c-1.645-.31-3.982-1.469-5.225-2.591l-13.502-12.205-14.23-10.608c-1.342-1-3.715-2.239-5.303-2.768l-6.064-2.022c-1.588-.529-4.23-.958-5.902-.958H87.144c-1.673 0-4.307.454-5.883 1.013l-3.681 1.306c-1.577.56-3.967 1.788-5.339 2.745l-7.51 5.234-17.935 14.455c-1.302 1.05-3.714 1.9-5.387 1.9H23.841c-1.673 0-4.12.807-5.465 1.801l-2.095 1.549c-1.345.994-2.436 3.156-2.436 4.828v23.322c0 1.673-.475 3.097-1.06 3.181-.585.083-1.67.558-2.423 1.06-.752.503-1.362 2.266-1.362 3.938v8.178c0 1.673.61 3.707 1.363 4.543.753.838 2.719 1.515 4.392 1.515z"/><path d="M54.129 120.338c.502.92 2.265 1.666 3.938 1.666h5.755a3.028 3.028 0 0 0 3.029-3.028v-8.784c0-1.673-.542-3.029-1.211-3.029s-2.158.971-3.325 2.17l-6.98 7.169c-1.168 1.199-1.707 2.916-1.206 3.836zm58.457 1.666c1.673 0 3.413-.338 3.887-.757.474-.419.858-2.113.858-3.786V99.187a3.029 3.029 0 0 0-3.029-3.029H87.851c-1.673 0-4.068.249-5.351.555-1.282.307-3.477 1.267-4.9 2.145l-3.526 2.173c-1.424.877-2.578 2.945-2.578 4.618v16.002c0 .195.384.354.858.354h40.232zm9.591-3.028a3.028 3.028 0 0 0 3.029 3.028h34.933c1.673 0 3.232-.361 3.482-.808.252-.446.455-1.53.455-2.423s-.588-2.384-1.313-3.332-2.387-2.544-3.712-3.565L148 103.358c-1.326-1.021-3.395-2.369-4.621-3.01s-3.057-1.455-4.089-1.817l-1.868-.656-3.938-1.01-1.313-.353c-.725-.195-2.578-.354-4.139-.354h-2.827a3.029 3.029 0 0 0-3.029 3.029v19.789zm-39.274 11.206h-5.149c-1.673 0-3.029-.678-3.029-1.514 0-.837 1.356-1.515 3.029-1.515h5.149c1.673 0 3.029.678 3.029 1.515 0 .836-1.356 1.514-3.029 1.514zm48.16 1.514h-3.635c-1.673 0-3.029-.678-3.029-1.515 0-.836 1.356-1.514 3.029-1.514h3.635c1.672 0 3.028.678 3.028 1.514 0 .838-1.357 1.515-3.028 1.515zm102.283 3.739v5.058c0 1.674 1.266 3.518 2.827 4.118l3.751 1.444c1.561.602 2.826.313 2.826-.646s-.209-2.387-.468-3.188c-.259-.803-.702-1.829-.989-2.294-.289-.465-1.043-1.455-1.687-2.211l-1.165-1.368-1.656-1.876-.51-.568c-.281-.313-.908-.775-1.401-1.032s-1.034-.465-1.21-.465-.318 1.355-.318 3.028zM23.081 119.631v8.355c0 .836-.612 1.805-1.368 2.164l-6.499 3.092c-.755.359-1.368-.027-1.368-.864v-5.772c0-.837.191-1.914.428-2.405.236-.491.55-1.079.701-1.312.151-.231.414-.578.587-.773s.688-.641 1.15-.995l.836-.642.74-.515a10.454 10.454 0 0 1 1.556-.866c.451-.192 1.358-.49 2.026-.666.669-.174 1.211.362 1.211 1.199z" fill="#FFF" stroke="#FFF" stroke-miterlimit="10"/><g fill="#2B2B2B" stroke="#FFF" stroke-width="7" stroke-miterlimit="10"><circle cx="61.051" cy="172.535" r="16.582"/><circle cx="194.008" cy="171.98" r="16.582"/></g><g stroke="#2B2B2B" stroke-miterlimit="10"><path fill="none" stroke-width="10" d="M74.15 29.789c21.87-21.87 57.327-21.87 79.197 0M83.563 41.038c16.672-16.671 43.701-16.671 60.373 0M96.113 51.751c9.739-9.74 25.532-9.739 35.272.001"/><circle fill="#2B2B2B" stroke-width="2" cx="113.749" cy="64.709" r="9.449"/></g></svg>