<svg xmlns="http://www.w3.org/2000/svg" viewBox="0 0 250 250"><path d="M112.771 147.167c5.569.771 9.255 7.395 8.235 14.799-1.021 7.404-2.751 17.028-3.866 21.495l-2.016 8.091-2.354 8.287-.504 1.645c-.278.908-.729 1.998-1.007 2.435-.279.434-.855.905-1.289 1.051-.433.146-1.186.264-1.68.264-.496 0-1.122-.177-1.401-.394-.278-.219-.729-.69-1.008-1.055-.278-.363-.78-3.248-1.12-6.445l-.616-5.787-.561-11.182-.896-16.969v-13.744c0-2.143 4.515-3.26 10.083-2.491zm27.402 14.187c2.055.547 2.954 3.719 2.013 7.085l-1.707 6.097-1.225 4.172-1.486 5.133-1.313 4.493-1.574 4.385-1.312 4.386-.612 1.656c-.339.917-.903 2.19-1.264 2.842a47.97 47.97 0 0 1-.662 1.169c-.116.19-.385.586-.649.972-.364.53-.918 1.241-1.231 1.597l-.568.641s-.177.167-.394.375c-.218.207-.551.494-.744.642-.192.148-.468.291-.612.321l-.263.054-.568.106c-.314.059-.804.106-1.094.106s-.701-.119-.919-.267c-.217-.148-.452-.723-.525-1.284-.072-.562-.131-2.404-.131-4.117v-3.103l.087-3.102.525-5.134.437-3.529 2.976-23.744.48-2.619c.266-1.447.562-2.584.657-2.54l.174.079c.193.09 3.68 1.047 7.786 2.14l3.718.988z" fill="#2B2B2B"/><path fill="#2B2B2B" d="M127.167 74.642l-44.754 51.605-3.873 6.939-2.152 4.336-1.721 4.337v6.939l1.937 3.034 3.658 2.604 4.948 1.299 81.33 14.095h5.596l1.936-1.3 3.012-3.253 1.722-2.601 1.075-3.47v-6.289l-1.291-4.987-16.782-46.403-5.379-11.707-4.519-10.192z"/><ellipse transform="rotate(20.291 143.61 42.68)" fill="#2B2B2B" cx="143.626" cy="42.687" rx="35.497" ry="39.723"/><g fill="#FFF"><ellipse cx="130.766" cy="50.584" rx="3.797" ry="3.743"/><ellipse cx="153.867" cy="54.435" rx="3.797" ry="3.743"/></g><path fill="#FFF" stroke="#2B2B2B" stroke-miterlimit="10" d="M176.78 51.256a11.689 11.689 0 0 0-1.663-1.326c-.524-.336-1.694-1.746-2.613-3.149-.918-1.403-1.662-1.701-1.662-.664 0 1.039-.851 1.582-1.9 1.216l-1.897-.663-5.466-2.21-2.492-1.077c-1.378-.595-3.438-1.633-4.603-2.321-1.165-.687-3.185-2.084-4.514-3.123-1.328-1.038-3.415-2.472-4.661-3.205l-2.257-1.327-2.376-1.656c-1.312-.916-3.173-2.548-4.156-3.647-.984-1.099-2.633-.851-3.683.552l-1.899 2.542-1.544 2.431c-.853 1.343-2.182 3.074-2.97 3.868L125 38.936l-1.248 1.215c-.688.671-2.336 1.76-3.681 2.431l-2.436 1.216-5.582 2.763c-3.083 1.525-5.633 1.971-5.696.994-.063-.976.104-3.949.375-6.638.271-2.69 1.02-6.602 1.673-8.736.654-2.135 2.059-5.562 3.138-7.655 1.08-2.092 3.44-5.593 5.272-7.819 1.833-2.227 4.556-5.023 6.083-6.25 1.526-1.226 4.689-3.197 7.065-4.404s6.175-2.572 8.485-3.051c2.312-.479 6.083-.867 8.425-.867 2.343 0 5.459.29 6.963.649 1.505.358 3.645 1.023 4.782 1.485 1.138.462 3.039 1.412 4.248 2.121 1.209.71 3.09 2.021 4.201 2.927 1.11.906 3.095 2.927 4.43 4.514 1.337 1.585 3.111 4.105 3.966 5.628.854 1.522 1.946 3.818 2.438 5.127l.894 2.369.362 1.33c.201.735.572 2.638.83 4.251.261 1.612.509 4.243.557 5.875.049 1.632-.049 4.144-.219 5.608a59.587 59.587 0 0 1-.919 5.305c-.088.384-.192.75-.305 1.079-.312.925-1.926 1.25-2.321.853z"/><path fill="none" stroke="#FFF" stroke-miterlimit="10" d="M144.838 67.274c-.485 2.646-3.199 4.359-6.065 3.832l.167.03c-2.864-.527-4.789-3.094-4.303-5.74"/><path d="M163.011 110.145l.963 1.711c.258.459.604 1.011.96 1.538.562.83 1.694 2.177 2.525 3.001.507.503 1.054 1.02 1.542 1.454l1.926 1.709 1.39 1.39c.768.767 2.35 1.964 3.534 2.673 1.182.71 3.002 1.62 4.063 2.031 1.061.414 2.592.75 3.419.75.826 0 1.735-.287 2.033-.642.295-.355.533-1.313.533-2.139v-2.887c0-.769-.43-2.108-.962-2.993s-1.299-1.938-1.712-2.353c-.412-.415-3.87-5.576-7.719-11.527L166.7 90.252l-3.69-4.92-1.176-1.685c-.649-.93-1.655-2.127-2.245-2.673-.592-.546-1.405-1.517-1.818-2.166-.414-.65-1.18-1.559-1.711-2.03s-2.663-.183-4.761.642c-2.097.825-3.916 1.638-4.063 1.815-.148.178-.148.86 0 1.524.147.665 3.036 6.238 6.455 12.448l9.32 16.938zm-47.915-21.498c-2.008 2.067-5.313 4.318-7.379 5.027-2.068.708-4.75 1.811-5.991 2.46-1.24.649-3.251 1.511-4.491 1.925l-2.246.749-3.209 1.068-2.139.801c-1.182.441-3.049.799-4.171.799h-6.952c-.828 0-2.025-.31-2.675-.692-.649-.383-1.176-.933-1.176-1.229v-1.497c0-.531.527-1.536 1.176-2.246l1.177-1.284 1.499-1.497c.826-.827 2.885-2.407 4.598-3.529l3.102-2.032 4.599-2.767c2.54-1.528 6.132-3.396 8.022-4.171l3.423-1.404 8.556-4.486 3.851-1.721c2.126-.95 4.76-2.37 5.883-3.171 1.121-.801 2.798-1.451 3.743-1.451.945 0 1.995.65 2.346 1.451s.611 2.221.581 3.171c-.03.951-.184 2.031-.345 2.414l-.29.694c-.32.768-3.837 4.741-7.854 8.875-.002 0-1.63 1.676-3.638 3.743z" fill="#2B2B2B" stroke="#2B2B2B" stroke-miterlimit="10"/><g fill="#FFF" stroke="#FFF" stroke-miterlimit="10"><ellipse cx="135.979" cy="91.428" rx="5.214" ry="4.813"/><ellipse cx="133.345" cy="110.043" rx="5.214" ry="4.813"/><ellipse cx="129.348" cy="131.215" rx="5.215" ry="4.813"/></g><path fill="#FFF" stroke="#FFF" stroke-miterlimit="10" d="M82.956 130.699c.842.597 2.512 1.513 3.73 2.045l2.206.962 6.578 2.321 7.46 2.332 8.904 2.646 12.914 2.81s7.701 1.042 7.941 1.042c.241 0 6.979 1.123 6.979 1.123s8.182.722 8.502.722c.322 0 5.936.481 5.936.481l11.552.963h9.386c1.195 0 2.476-.048 2.855-.108.382-.06.799.309.932.821l.239.929.405 1.385c.224.765.405 1.799.405 2.308v3.89s-.022.287-.052.642c-.028.354-.161.786-.294.963-.133.176-3.186.23-6.818.12l-6.577-.2-5.735.2c-3.168.11-8.608-.141-12.152-.561l-6.417-.763-10.429-.963-10.268-1.523-11.792-2.969-13.316-4.252-7.059-2.566-4.653-1.885c-2.569-1.041-5.481-2.587-6.504-3.452-1.023-.866-1.639-2.046-1.376-2.635l.476-1.065.574-1.157.526-1.06.753-1.465.873-1.564.892-1.599.133-.239c.074-.131.275-.131.45 0l.316.239c.001-.001.684.484 1.525 1.082z"/></svg>