<svg xmlns="http://www.w3.org/2000/svg" width="450" height="500" viewBox="0 0 450 500"><path fill="#355FAA" stroke="#365FAA" stroke-miterlimit="10" d="M359.666 471.462H109.273a3.61 3.61 0 0 1-3.612-3.611V175.515a3.611 3.611 0 0 1 3.612-3.612h250.393a3.612 3.612 0 0 1 3.611 3.612v292.336a3.61 3.61 0 0 1-3.611 3.611z"/><path d="M145.191 483.315a4.065 4.065 0 0 1-4.064 4.065h-31.991a4.064 4.064 0 1 1 0-8.129h31.991a4.063 4.063 0 0 1 4.064 4.064zm218.622.7a4.063 4.063 0 0 1-4.063 4.064h-31.991a4.064 4.064 0 0 1 0-8.128h31.991a4.062 4.062 0 0 1 4.063 4.064z" fill="#504F4F"/><path fill="#647687" stroke="#647687" stroke-miterlimit="10" d="M126.12 159.298h217.719v13.477H126.12z"/><path fill="#365FAA" d="M358.869 162.771H108.64a3.576 3.576 0 0 1-3.575-3.575V13.854a3.575 3.575 0 0 1 3.575-3.575h250.229c1.975 0 3.574 1.6 3.574 3.575v145.343a3.574 3.574 0 0 1-3.574 3.574z"/><path fill="#3057A4" d="M351.123 161.772h11.26V15.948l-3.038-4.488z"/><path fill="none" stroke="#365FAA" stroke-miterlimit="10" d="M105.696 161.371V17.677c0-3.437 2.29-6.221 5.102-6.221H357.96c2.826 0 5.115 2.784 5.115 6.221V161.37c0 3.437-257.379 3.437-257.379.001z"/><path fill="#3057A4" d="M352.025 172.854l10.145-.006.502 299.15H214.323s137.984-203.622 137.984-299.323"/><g stroke-miterlimit="10"><path fill="#647687" stroke="#647687" d="M105.696 472.354h257.379v10.364H105.696z"/><path fill="none" stroke="#365FAA" d="M105.696 471.173V175.399c0-1.568 1.056-2.84 2.344-2.84h252.679c1.299 0 2.355 1.272 2.355 2.84v295.774c.001 1.568-257.378 1.568-257.378 0z"/></g><g stroke-miterlimit="10"><path fill="#D3D2D3" stroke="#D3D3D3" d="M269.025 414.803h-1.431a3.575 3.575 0 0 1-3.573-3.576V205.205c0-1.974 1.6-3.575 3.573-3.575h1.431a3.574 3.574 0 0 1 3.574 3.575v206.022a3.574 3.574 0 0 1-3.574 3.576z"/><path fill="none" stroke="#9D9D9C" stroke-width="2" d="M239.235 172.552v299.803"/><path fill="#D3D2D3" stroke="#D3D3D3" d="M211.83 414.803h-1.43a3.576 3.576 0 0 1-3.575-3.576V205.205a3.576 3.576 0 0 1 3.575-3.575h1.43a3.576 3.576 0 0 1 3.575 3.575v206.022a3.577 3.577 0 0 1-3.575 3.576zm-89.324-304.617V49.995c0-3.912 1.406-7.081 3.141-7.081h1.256c1.735 0 3.14 3.169 3.14 7.081v60.191c0 3.912-1.405 7.081-3.14 7.081h-1.256c-1.735 0-3.141-3.169-3.141-7.081z"/></g><path fill="#FFF" stroke="#FFF" stroke-miterlimit="10" d="M296.115 117.506H181.876a4.841 4.841 0 0 1-4.841-4.841v-61.96a4.84 4.84 0 0 1 4.841-4.841h114.239a4.84 4.84 0 0 1 4.842 4.841v61.961a4.84 4.84 0 0 1-4.842 4.84z"/></svg>