<svg xmlns="http://www.w3.org/2000/svg" viewBox="0 0 250 250"><path fill="#2B2B2B" stroke="#2B2B2B" stroke-width="4" stroke-miterlimit="10" d="M42.643 190.124H213.3c2.041 0 3.7-1.538 3.7-3.435V90.201c0-1.895-1.173-4.519-2.62-5.859l-20.876-19.364c-1.443-1.34-2.616-3.962-2.616-5.86V46.724c0-1.896-1.657-3.431-3.699-3.431H176.7c-2.043 0-3.7 1.535-3.7 3.431 0 1.896-1.213 2.388-2.716 1.101L130.89 13.969c-1.499-1.289-3.933-1.291-5.436-.007L41.662 85.586c-1.504 1.285-2.721 3.863-2.721 5.759v95.344c-.001 1.897 1.656 3.435 3.702 3.435z"/><path fill="none" stroke="#FFF" stroke-width="4" stroke-miterlimit="10" d="M148.431 198.371l-24.929-16.224c-1.525-.994-1.812-2.927-.639-4.319l26.083-30.997c1.174-1.393.713-2.96-1.026-3.498l-36.337-11.238c-1.738-.537-2.073-1.985-.747-3.229l31.237-29.333c1.326-1.247.981-2.653-.773-3.142l-36.284-10.099c-1.755-.488-1.981-1.75-.504-2.817l35.975-26.024c1.476-1.068 1.287-2.449-.415-3.084l-30.307-11.321c-1.707-.637-1.825-1.914-.264-2.853l39.625-23.852c1.56-.938 1.409-2.121-.336-2.641L110.63 2.333"/></svg>