<svg xmlns="http://www.w3.org/2000/svg" width="150" height="150" viewBox="0 0 150 150"><g stroke="#FFF" stroke-width="1.5" stroke-miterlimit="10"><path fill="none" d="M76.771 141.833H66.222c-1.119 0-2.028-1.676-2.028-3.745V50.085c0-2.068.909-3.745 2.028-3.745h10.549c1.119 0 2.028 1.676 2.028 3.745v88.003c.001 2.069-.908 3.745-2.028 3.745z"/><path fill="none" d="M65.188 135.094H55.25a.75.75 0 0 1-.75-.75v-3a.75.75 0 0 1 .75-.75h3.719a.75.75 0 0 0 .75-.75v-3.063a.75.75 0 0 0-.75-.75H55.25a.75.75 0 0 1-.75-.75v-2.938a.75.75 0 0 1 .75-.75h9.938"/><path fill="#2B2B2B" d="M64.844 135.094h-9.647a.74.74 0 0 1-.728-.75v-3a.74.74 0 0 1 .728-.75h3.61a.74.74 0 0 0 .728-.75v-3.063a.74.74 0 0 0-.728-.749h-3.61a.74.74 0 0 1-.728-.75v-2.937a.74.74 0 0 1 .728-.751h9.647M45.096 7.956v24.341c0 .827.481 1.965 1.074 2.542l24.628 23.939c.592.577 1.55.573 2.139-.008l25.017-24.672c.59-.581 1.067-1.722 1.067-2.549V7.956c0-.827-.671-1.498-1.498-1.498h-50.93c-.827 0-1.497.671-1.497 1.498z"/><path fill="#2B2B2B" d="M84.229 22.003H59.888a1.498 1.498 0 0 1-1.498-1.499v-4.868c0-.828.67-1.498 1.498-1.498h24.341c.828 0 1.498.67 1.498 1.498v4.868a1.496 1.496 0 0 1-1.498 1.499z"/></g></svg>