<svg xmlns="http://www.w3.org/2000/svg" viewBox="0 0 250 250"><path fill="#2B2B2B" d="M19.676 116.31h210v36.5h-210z"/><path fill="none" stroke="#2B2B2B" stroke-width="5" stroke-miterlimit="10" d="M219.5 170H30c-5.523 0-10-4.478-10-10v-50.5c0-5.523 4.477-10 10-10h189.5c5.522 0 10 4.477 10 10V160c0 5.522-4.478 10-10 10z"/><path d="M44.5 97.25C44.5 89.932 53.342 84 64.25 84S84 89.932 84 97.25m83.5 0c0-7.318 8.842-13.25 19.75-13.25S207 89.932 207 97.25" fill="#2B2B2B"/><path fill="#2B2B2B" d="M68.163 94.764c-2.513.754-5.193-.778-5.987-3.423l-13.95-46.45c-.794-2.645.598-5.4 3.111-6.155 2.513-.754 5.193.778 5.987 3.423l13.95 46.45c.794 2.644-.598 5.4-3.111 6.155zm116.474-2.91c-2.565-.549-4.178-3.183-3.601-5.882l10.138-47.429c.578-2.7 3.125-4.445 5.69-3.897 2.565.549 4.178 3.183 3.6 5.883l-10.138 47.429c-.577 2.699-3.125 4.444-5.689 3.896z"/><path fill="none" stroke="#2B2B2B" stroke-width="3" stroke-miterlimit="10" d="M188.505 11.468c15.917-3.088 31.323 7.313 34.412 23.231m-32.862-16.335c12.133-2.355 23.878 5.573 26.231 17.708m-24.592-8.558c7.09-1.376 13.951 3.258 15.326 10.347M58.994 13.277c-15.519-4.696-31.907 4.079-36.602 19.6M56.75 19.978c-11.831-3.579-24.323 3.109-27.901 14.94m25.335-6.005c-6.912-2.092-14.21 1.818-16.301 8.73"/><path d="M38.5 123h30v10h-30zm36.5 0h30v10H75zm37.5 0h30v10h-30zm37.5 0h30v10h-30zm35-.5h30v10h-30z" fill="#FFF" stroke="#FFF" stroke-miterlimit="10"/></svg>