<svg xmlns="http://www.w3.org/2000/svg" width="150" height="150" viewBox="0 0 150 150"><path fill="none" d="M71.209 33.37H77.4c.592.705 1.459 1.726 2.863 3.371 2.467 2.889 8.65 10.145 62.219 73.003H6l62.347-73.017c1.402-1.641 2.272-2.651 2.862-3.357z"/><path fill="#FFF" d="M74.123 33.37h.283l.008.265h-.303l.012-.265zm.292.294l.008.314h-.328l.015-.314h.305zm.01.343l.011.373h-.361c.005-.127.012-.255.018-.373h.332zm.012.411l.012.451h-.398c.008-.157.016-.314.021-.451h.365zm.014.5l.017.549h-.445l.027-.55.401.001zm.018.619l.02.686h-.503l.034-.686h.449zm.022.775l.025.902-.58.001.045-.903h.51zm.029 1.029c.012.363.023.775.036 1.236h-.687c.023-.46.042-.873.061-1.235l.59-.001zm.04 1.403c.016.529.032 1.118.05 1.775l-.837.001c.033-.658.063-1.246.088-1.775l.699-.001zm.057 2.029c.022.794.049 1.746.083 2.854l-1.08.001c.053-1.108.1-2.06.14-2.854l.857-.001zm.093 3.247l.142 5.07-1.505.001.252-5.07 1.111-.001zm.167 5.952l.344 12.416-2.54.002.623-12.417 1.573-.001zm.405 14.642c.233 8.328.59 21.44 1.222 45.129H70.28c1.211-23.685 1.875-36.8 2.295-45.126l2.707-.003z"/><path fill="#FFF" stroke="#FFF" stroke-width="2" stroke-miterlimit="10" d="M71.608 33.37h.115c-.492.706-1.219 1.715-2.386 3.356-2.059 2.898-7.214 10.145-51.984 73.018h-2.549c46.772-62.873 52.159-70.12 54.31-73.018 1.219-1.642 1.979-2.65 2.494-3.356zm5.275 0h.115c.52.705 1.277 1.738 2.514 3.4 2.127 2.861 7.439 10.015 54.16 72.974h-2.557A360394.001 360394.001 0 0 0 76.883 33.37z"/><path fill="#2B2B2B" stroke="#2B2B2B" stroke-miterlimit="10" d="M70.802 31.704l6.932.147 12.257 14.153H58.596z"/></svg>