<svg xmlns="http://www.w3.org/2000/svg" xmlns:xlink="http://www.w3.org/1999/xlink" width="923.954" height="979.066" viewBox="0 0 923.954 979.066"><defs><path id="a" d="M-16.112-19h913.07v913.07h-913.07z"/></defs><clipPath id="b"><use xlink:href="#a" overflow="visible"/></clipPath><path clip-path="url(#b)" fill="#0B0E0E" d="M836.016 447.63l-.159 6.637-.195 8.138c-.063 1.615-.028 3.36-.18 5.227l-.446 5.975c-1.079 16.904-3.792 41.808-12.264 72.362-1.087 3.808-2.163 7.729-3.339 11.729l-4.093 12.147c-.351 1.037-.702 2.079-1.055 3.129l-.538 1.575-.612 1.558-2.483 6.32c-1.701 4.247-3.281 8.655-5.338 12.966l-2.971 6.595-1.509 3.347c-.507 1.12-.987 2.261-1.572 3.355l-6.873 13.538c-.56 1.162-1.224 2.274-1.866 3.405l-1.939 3.403c-1.301 2.279-2.611 4.579-3.934 6.898-.672 1.153-1.302 2.338-2.016 3.479l-2.176 3.421-4.407 6.93a372.894 372.894 0 0 1-43.74 54.959c-8.552 8.967-17.903 17.595-27.768 26.085l-1.838 1.611c-.613.538-1.271 1.025-1.905 1.541-1.281 1.02-2.564 2.041-3.854 3.065-2.576 2.051-5.167 4.111-7.773 6.184-2.65 2.012-5.403 3.919-8.123 5.901l-4.108 2.959c-1.384.978-2.727 2.018-4.173 2.913-22.56 15.221-47.767 28.613-75.188 39.191l-2.561 1.027c-.857.333-1.736.609-2.606.918l-5.242 1.81c-3.508 1.188-7.005 2.466-10.564 3.595l-10.806 3.139c-1.81.524-3.621 1.052-5.437 1.579-1.829.476-3.681.883-5.523 1.331l-11.124 2.637c-1.854.484-3.752.759-5.636 1.128l-5.674 1.049c-1.896.349-3.794.699-5.695 1.051l-2.856.527-2.883.385-11.585 1.543c-3.868.601-7.786.835-11.708 1.169-3.924.31-7.859.676-11.813.938l-11.922.373c-1.993.063-3.99.124-5.99.188-.189.004-.582.022-.815.012l-.745-.014-1.491-.029-2.987-.058c-3.986-.076-7.983-.155-11.992-.231l-1.506-.028-1.518-.104-3.039-.212-6.094-.427c-8.17-.392-16.251-1.58-24.422-2.531-16.249-2.455-32.638-5.533-48.763-10.267l-6.078-1.689-1.522-.422-1.501-.492-3.002-.996-12.046-3.997c-3.983-1.448-7.925-3.043-11.904-4.564l-5.963-2.316-5.857-2.605c-31.408-13.617-61.343-32.063-88.548-54.521l-10.06-8.627-1.256-1.086-1.206-1.141-2.413-2.283-4.83-4.572c-1.604-1.533-3.24-3.036-4.821-4.597l-4.62-4.811-4.626-4.818-2.315-2.411c-.782-.796-1.48-1.668-2.224-2.499l-8.812-10.099-1.102-1.266c-.36-.429-.699-.873-1.048-1.311l-2.084-2.632-4.173-5.271c-1.385-1.763-2.799-3.506-4.161-5.291l-3.925-5.477-3.929-5.483-1.966-2.744c-.663-.911-1.236-1.881-1.86-2.819l-7.341-11.363-.918-1.422-.851-1.464-1.7-2.931-3.4-5.866c-1.123-1.962-2.293-3.9-3.378-5.887l-3.119-6.035-3.121-6.041-1.559-3.023c-.51-1.013-.949-2.061-1.427-3.09L124.29 594.3l-.699-1.555-.627-1.585-1.255-3.172-2.511-6.346c-.824-2.12-1.705-4.221-2.481-6.362l-2.2-6.469-2.198-6.475-1.1-3.238c-.365-1.08-.64-2.189-.965-3.281l-3.755-13.167-.47-1.647-.394-1.667-.775-3.336-1.55-6.677-1.539-6.681-1.215-6.751-1.214-6.752c-.383-2.255-.87-4.493-1.109-6.771l-1.748-13.619c-.136-1.136-.312-2.269-.415-3.407l-.265-3.424-.529-6.848-.529-6.848c-.111-1.141-.136-2.286-.162-3.431l-.091-3.433-.352-13.859.36-13.556.089-3.39c.025-1.128.05-2.255.161-3.412l.528-6.894.532-6.892.268-3.446c.102-1.145.278-2.272.414-3.41l1.747-13.619c.24-2.277.726-4.516 1.109-6.771l1.215-6.752 1.215-6.75 1.539-6.681 1.55-6.676.775-3.336.395-1.667.469-1.647 3.755-13.167c.324-1.093.601-2.201.965-3.28l1.099-3.239 2.199-6.475 2.198-6.469c.776-2.141 1.657-4.241 2.481-6.362l2.511-6.346 1.255-3.171.627-1.585.698-1.555 5.632-12.406c.48-1.028.922-2.075 1.435-3.085l1.561-3.023 3.121-6.041 3.119-6.035c1.083-1.986 2.254-3.923 3.377-5.886l3.4-5.866 1.7-2.931.851-1.464.917-1.422 7.341-11.363c.623-.938 1.196-1.908 1.86-2.818l1.965-2.745 3.929-5.484 3.924-5.476c1.362-1.783 2.777-3.526 4.161-5.29l4.172-5.271 2.084-2.632c.351-.437.689-.882 1.048-1.311l1.103-1.265 8.81-10.099c.745-.831 1.443-1.703 2.224-2.499l2.316-2.411 4.625-4.818 4.62-4.811c1.581-1.56 3.216-3.064 4.82-4.596l4.83-4.573 2.413-2.284 1.205-1.14 1.256-1.085 10.066-8.617c27.202-22.458 57.136-40.903 88.541-54.521l5.856-2.605 5.962-2.317c3.979-1.521 7.92-3.115 11.904-4.564l12.044-3.998 3.002-.995 1.501-.493 1.521-.422 6.078-1.688c16.124-4.735 32.512-7.813 48.76-10.269 8.167-.952 16.263-2.141 24.389-2.531l6.071-.425 3.03-.212 1.511-.104 1.516-.029 12.079-.235 3.008-.059 1.501-.028.751-.015c.236-.011.621.011.812.015 1.985.062 3.97.123 5.949.186l11.842.371c3.955.26 7.912.628 11.846.937 3.935.334 7.87.571 11.732 1.171l11.584 1.542 2.883.384 2.856.527c1.9.352 3.8.703 5.695 1.052l5.673 1.048c1.884.369 3.783.643 5.635 1.128l11.124 2.636c1.845.447 3.694.855 5.523 1.332l5.436 1.578 10.806 3.138c3.561 1.13 7.058 2.407 10.565 3.595l5.242 1.809c.868.309 1.748.585 2.605.918l2.561 1.026c27.42 10.576 52.627 23.968 75.185 39.187 1.447.896 2.791 1.937 4.173 2.913l4.109 2.958c2.721 1.981 5.471 3.891 8.124 5.901l7.772 6.184 3.853 3.065c.635.516 1.292 1.002 1.906 1.541l1.837 1.611c9.864 8.49 19.223 17.11 27.771 26.081a372.825 372.825 0 0 1 43.741 54.957l4.407 6.93 2.176 3.421c.714 1.142 1.344 2.326 2.016 3.479l3.934 6.898c.649 1.14 1.297 2.273 1.94 3.403.642 1.131 1.306 2.244 1.865 3.406l6.873 13.538c.585 1.095 1.065 2.235 1.575 3.354l1.508 3.346 2.973 6.595c2.056 4.312 3.636 8.719 5.337 12.967l2.483 6.319.612 1.559.538 1.575 1.054 3.127 4.094 12.148c1.176 4 2.252 7.922 3.339 11.729 8.472 30.553 11.186 55.462 12.264 72.358l.446 5.972c.152 1.865.117 3.614.18 5.229l.196 8.144.159 6.643v.005zm-.547-.007s-.059-2.258-.17-6.632l-.208-8.131c-.064-1.614-.032-3.359-.186-5.221l-.455-5.962c-1.101-16.866-3.847-41.731-12.348-72.213-1.09-3.8-2.17-7.712-3.35-11.703l-4.104-12.117-1.056-3.12-.538-1.571-.614-1.554-2.487-6.303c-1.705-4.237-3.287-8.633-5.345-12.933-7.524-17.504-17.291-35.743-29.378-54.142a371.541 371.541 0 0 0-43.816-54.627c-8.56-8.9-17.898-17.479-27.786-25.865l-1.841-1.594c-.613-.532-1.272-1.012-1.907-1.523l-3.857-3.029-7.777-6.109c-2.654-1.987-5.406-3.871-8.128-5.827a3342.4 3342.4 0 0 0-4.108-2.92c-1.381-.963-2.725-1.992-4.171-2.874-22.551-15.012-47.711-28.177-75.031-38.522l-2.55-1.004c-.855-.327-1.731-.596-2.598-.896l-5.221-1.766c-3.495-1.159-6.976-2.408-10.521-3.507l-10.756-3.052-5.409-1.535c-1.819-.462-3.661-.856-5.496-1.289-3.673-.846-7.36-1.698-11.063-2.55-1.842-.471-3.731-.731-5.604-1.085l-5.64-1.006-5.661-1.01-2.839-.506-2.863-.364c-3.824-.485-7.66-.972-11.51-1.459-3.842-.574-7.731-.781-11.623-1.088-3.895-.282-7.797-.623-11.721-.858l-11.844-.297-5.95-.149c-1.964-.004-3.966.087-5.952.125l-11.978.306-1.501.038-1.5.112-3.002.229-6.019.459c-8.053.434-16.072 1.667-24.159 2.657-16.087 2.533-32.299 5.679-48.235 10.467l-6.006 1.708-1.504.427-1.483.498-2.966 1.004-11.897 4.029c-3.933 1.458-7.824 3.062-11.751 4.59-1.959.775-3.921 1.55-5.885 2.328l-5.778 2.614c-30.985 13.662-60.461 32.081-87.192 54.426l-9.889 8.571-1.236 1.076-1.187 1.131-2.374 2.264-4.752 4.533c-1.578 1.519-3.188 3.009-4.742 4.555l-4.542 4.767-4.549 4.773-2.277 2.39c-.769.787-1.455 1.652-2.186 2.475l-8.659 10.001-1.083 1.251c-.354.425-.686.866-1.03 1.297l-2.047 2.607-4.097 5.216c-1.36 1.746-2.75 3.47-4.087 5.234l-3.853 5.419-3.854 5.425-1.931 2.715c-.651.899-1.212 1.86-1.823 2.787l-7.198 11.235-.901 1.406-.833 1.447-1.665 2.897-3.333 5.798c-1.1 1.94-2.248 3.855-3.31 5.817l-3.052 5.962-3.055 5.967-1.528 2.986c-.502.999-.932 2.033-1.402 3.048l-5.531 12.242-.687 1.533-.616 1.564-1.233 3.128-2.466 6.259c-.809 2.092-1.675 4.164-2.437 6.274l-2.157 6.381-2.159 6.384-1.08 3.193c-.357 1.065-.627 2.158-.945 3.236l-3.684 12.983-.461 1.624-.385 1.644-.758 3.29-1.518 6.583-1.509 6.586-1.187 6.654-1.187 6.656c-.375 2.223-.853 4.429-1.085 6.674l-1.703 13.424c-.131 1.119-.305 2.235-.403 3.359l-.255 3.371-.512 6.745-.511 6.745c-.109 1.122-.131 2.252-.155 3.382l-.085 3.39-.339 13.556.342 13.524.084 3.384c.023 1.127.046 2.256.154 3.38l.511 6.75.512 6.748.256 3.375c.098 1.124.271 2.239.403 3.359l1.703 13.423c.232 2.245.708 4.452 1.084 6.676l1.188 6.656 1.186 6.653 1.509 6.587 1.518 6.581.758 3.29.385 1.643.461 1.625 3.683 12.981c.318 1.078.588 2.172.945 3.236l1.08 3.193 2.159 6.385 2.157 6.381c.762 2.11 1.628 4.182 2.437 6.274l2.466 6.259 1.233 3.128.615 1.563.688 1.534 5.53 12.241c.47 1.015.9 2.048 1.403 3.048l1.527 2.985 3.055 5.968 3.052 5.963c1.062 1.962 2.209 3.877 3.31 5.816l3.332 5.798 1.665 2.897.833 1.447.901 1.405 7.199 11.235c.611.929 1.173 1.889 1.824 2.788l1.93 2.715 3.856 5.426 3.851 5.418c1.336 1.765 2.727 3.489 4.087 5.235l4.098 5.217 2.047 2.606c.343.432.675.872 1.029 1.297l1.084 1.252 8.659 10.001c.732.823 1.417 1.688 2.186 2.475l2.277 2.39 4.549 4.773 4.542 4.768c1.555 1.545 3.165 3.036 4.742 4.555l4.752 4.533 2.374 2.264 1.187 1.132 1.236 1.075 9.889 8.57c26.731 22.346 56.207 40.765 87.191 54.427l5.779 2.614 5.884 2.327c3.929 1.528 7.819 3.131 11.752 4.591l11.896 4.028 2.966 1.004 1.484.498 1.504.427 6.006 1.708c15.936 4.788 32.147 7.935 48.234 10.467 8.087.991 16.107 2.224 24.154 2.657l6.015.458 3.001.229 1.498.112 1.505.038 11.99.307c1.987.038 3.993.13 5.958.124l5.943-.147 11.83-.297c3.925-.235 7.831-.576 11.727-.859 3.895-.308 7.786-.514 11.627-1.087l11.509-1.46 2.864-.364 2.839-.506 5.661-1.01 5.64-1.006c1.872-.354 3.761-.614 5.604-1.084l11.063-2.552c1.835-.432 3.677-.826 5.496-1.287 1.806-.514 3.608-1.024 5.409-1.534l10.756-3.053c3.544-1.1 7.025-2.348 10.521-3.508l5.221-1.765c.865-.301 1.742-.57 2.598-.896l2.55-1.005c27.32-10.346 52.479-23.51 75.03-38.522 1.447-.883 2.79-1.911 4.171-2.874l4.109-2.92c2.722-1.956 5.474-3.841 8.128-5.826 2.605-2.048 5.2-4.086 7.777-6.11l3.857-3.028c.635-.511 1.293-.991 1.907-1.523l1.841-1.594c9.888-8.387 19.227-16.964 27.786-25.865a371.528 371.528 0 0 0 43.816-54.627c12.087-18.399 21.854-36.638 29.377-54.143 2.059-4.299 3.641-8.696 5.346-12.933l2.487-6.303.614-1.555.538-1.57a62042.696 62042.696 0 0 1 5.16-15.237c1.18-3.99 2.26-7.903 3.35-11.702 8.5-30.481 11.247-55.352 12.348-72.209.16-2.111.313-4.099.455-5.961.153-1.861.121-3.609.186-5.223l.208-8.139c.111-4.377.17-6.637.17-6.637v.01z"/><path clip-path="url(#b)" fill="#41A4DC" d="M230.249 178.986c0 11.141-9.031 20.171-20.171 20.171-11.14 0-20.171-9.03-20.171-20.171 0-11.14 9.031-20.17 20.171-20.17 11.14-.001 20.171 9.03 20.171 20.17"/><path clip-path="url(#b)" fill="#59C2EF" d="M224.346 178.774c0 7.998-6.483 14.48-14.48 14.48s-14.48-6.482-14.48-14.48 6.483-14.48 14.48-14.48 14.48 6.482 14.48 14.48"/><defs><path id="c" d="M-16.112-19h913.07v913.07h-913.07z"/></defs><clipPath id="d"><use xlink:href="#c" overflow="visible"/></clipPath><path clip-path="url(#d)" fill="#E83E3C" d="M189.96 353.512c0 39.76-32.231 71.992-71.992 71.992-39.76 0-71.991-32.232-71.991-71.992s32.231-71.992 71.991-71.992c39.761 0 71.992 32.232 71.992 71.992"/><circle clip-path="url(#d)" fill="none" stroke="#E83E3C" stroke-width="4" stroke-miterlimit="10" cx="117.969" cy="353.512" r="71.991"/><path clip-path="url(#d)" fill="#FFF" d="M77.616 387.432h80.705c.965 0 1.75-.727 1.75-1.623v-45.631c0-.896-.554-2.137-1.239-2.77l-9.872-9.157c-.684-.634-1.237-1.875-1.237-2.771v-5.862c0-.897-.784-1.623-1.75-1.623h-4.959c-.966 0-1.75.726-1.75 1.623 0 .896-.574 1.129-1.284.52l-18.629-16.01c-.708-.609-1.86-.611-2.57-.003l-39.627 33.871c-.711.607-1.286 1.827-1.286 2.724v45.089c-.002.897.781 1.623 1.748 1.623"/><path clip-path="url(#d)" fill="none" stroke="#FFF" stroke-width="8" stroke-miterlimit="10" d="M77.616 387.432h80.705c.965 0 1.75-.727 1.75-1.623v-45.631c0-.896-.554-2.137-1.239-2.77l-9.872-9.157c-.684-.634-1.237-1.875-1.237-2.771v-5.862c0-.897-.784-1.623-1.75-1.623h-4.959c-.966 0-1.75.726-1.75 1.623 0 .896-.574 1.129-1.284.52l-18.629-16.01c-.708-.609-1.86-.611-2.57-.003l-39.627 33.871c-.711.607-1.286 1.827-1.286 2.724v45.089c-.002.897.781 1.623 1.748 1.623z"/><defs><path id="e" d="M-16.112-19h913.07v913.07h-913.07z"/></defs><clipPath id="f"><use xlink:href="#e" overflow="visible"/></clipPath><path clip-path="url(#f)" fill="#0EBFD9" d="M528.56 79.283c0 39.76-32.232 71.992-71.993 71.992-39.759 0-71.991-32.232-71.991-71.992 0-39.759 32.231-71.991 71.991-71.991s71.993 32.232 71.993 71.991"/><circle clip-path="url(#f)" fill="none" stroke="#0EBFD9" stroke-width="4" stroke-miterlimit="10" cx="456.568" cy="79.283" r="71.992"/><path clip-path="url(#f)" fill="#FFF" d="M481.338 32.325c-9.474 0-18.337 4.289-24.239 11.473-5.904-7.184-14.769-11.473-24.241-11.473-17.308 0-31.39 14.083-31.39 31.391 0 13.552 8.081 29.228 24.02 46.594 12.266 13.363 25.609 23.709 29.407 26.562l2.202 1.656 2.203-1.655c3.797-2.854 17.14-13.199 29.407-26.562 15.939-17.365 24.021-33.041 24.021-46.594-.001-17.309-14.082-31.392-31.39-31.392"/><path clip-path="url(#f)" fill="none" stroke="#0EBFD9" stroke-width="5" stroke-miterlimit="10" d="M397.459 79.344h27.244c.59 0 1.187-.556 1.335-1.243l2.314-10.77c.148-.686.507-.746.804-.133l2.133 4.409c.296.613.691.565.88-.106l13.2-46.524c.189-.671.428-.649.529.049l12.094 82.127c.1.699.236.69.302-.013l4.93-54.527c.066-.704.327-.758.583-.121l10.285 25.482c.258.636.686.642.953.013l2.766-6.482c.269-.63.771-.679 1.119-.109l4.254 6.915c.352.571 1.112 1.032 1.702 1.032h31.871"/><path clip-path="url(#f)" fill="#FAAF4B" d="M528.56 800.261c0 39.759-32.232 71.991-71.993 71.991-39.759 0-71.991-32.232-71.991-71.991 0-39.76 32.231-71.993 71.991-71.993s71.993 32.233 71.993 71.993"/><circle clip-path="url(#f)" fill="none" stroke="#FAAF4B" stroke-width="4" stroke-miterlimit="10" cx="456.568" cy="800.261" r="71.992"/><defs><path id="g" d="M-16.112-19h913.07v913.07h-913.07z"/></defs><clipPath id="h"><use xlink:href="#g" overflow="visible"/></clipPath><path clip-path="url(#h)" fill="#FFF" d="M880.227 387.432c0 39.76-32.231 71.993-71.992 71.993-39.76 0-71.991-32.232-71.991-71.993 0-39.759 32.231-71.992 71.991-71.992s71.992 32.233 71.992 71.992"/><circle clip-path="url(#h)" fill="none" stroke="#FFF" stroke-width="4" stroke-miterlimit="10" cx="808.235" cy="387.432" r="71.992"/><path clip-path="url(#h)" fill="#515254" d="M817.628 443.6h-8.589c-.911 0-1.651-1.364-1.651-3.048v-71.646c0-1.683.74-3.049 1.651-3.049h8.589c.911 0 1.65 1.365 1.65 3.049v71.646c.001 1.684-.738 3.048-1.65 3.048"/><path clip-path="url(#h)" fill="none" stroke="#FFF" stroke-width="1.5" stroke-miterlimit="10" d="M817.628 443.6h-8.589c-.911 0-1.651-1.364-1.651-3.048v-71.646c0-1.683.74-3.049 1.651-3.049h8.589c.911 0 1.65 1.365 1.65 3.049v71.646c.001 1.684-.738 3.048-1.65 3.048z"/><path clip-path="url(#h)" fill="#515254" d="M808.197 438.114h-8.091a.61.61 0 0 1-.61-.611v-2.442a.61.61 0 0 1 .61-.61h3.028a.61.61 0 0 0 .61-.61v-2.494a.61.61 0 0 0-.61-.611h-3.028a.61.61 0 0 1-.61-.611v-2.392c0-.336.273-.611.61-.611h8.091"/><path clip-path="url(#h)" fill="none" stroke="#FFF" stroke-width="1.5" stroke-miterlimit="10" d="M808.197 438.114h-8.091a.61.61 0 0 1-.61-.611v-2.442a.61.61 0 0 1 .61-.61h3.028a.61.61 0 0 0 .61-.61v-2.494a.61.61 0 0 0-.61-.611h-3.028a.61.61 0 0 1-.61-.611v-2.392c0-.336.273-.611.61-.611h8.091"/><path clip-path="url(#h)" fill="#515254" d="M807.918 438.114h-7.855a.603.603 0 0 1-.592-.611v-2.442c0-.337.266-.61.592-.61h2.94a.602.602 0 0 0 .592-.61v-2.494a.602.602 0 0 0-.592-.61h-2.94a.603.603 0 0 1-.592-.611v-2.392c0-.337.266-.611.592-.611h7.855"/><path clip-path="url(#h)" fill="none" stroke="#FFF" stroke-width="1.5" stroke-miterlimit="10" d="M807.918 438.114h-7.855a.603.603 0 0 1-.592-.611v-2.442c0-.337.266-.61.592-.61h2.94a.602.602 0 0 0 .592-.61v-2.494a.602.602 0 0 0-.592-.61h-2.94a.603.603 0 0 1-.592-.611v-2.392c0-.337.266-.611.592-.611h7.855"/><path clip-path="url(#h)" fill="#515254" d="M791.84 334.606v19.816c0 .674.392 1.601.875 2.07l20.05 19.489c.482.47 1.262.467 1.741-.006l20.367-20.087c.481-.473.869-1.401.869-2.075v-19.208a1.22 1.22 0 0 0-1.22-1.22h-41.464a1.222 1.222 0 0 0-1.218 1.221"/><path clip-path="url(#h)" fill="#515254" d="M823.699 346.042h-19.816a1.22 1.22 0 0 1-1.22-1.221v-3.962c0-.674.546-1.22 1.22-1.22h19.816c.674 0 1.22.545 1.22 1.22v3.962a1.217 1.217 0 0 1-1.22 1.221"/><path clip-path="url(#h)" fill="none" stroke="#FFF" stroke-width="1.5" stroke-miterlimit="10" d="M823.699 346.042h-19.816a1.22 1.22 0 0 1-1.22-1.221v-3.962c0-.674.546-1.22 1.22-1.22h19.816c.674 0 1.22.545 1.22 1.22v3.962a1.217 1.217 0 0 1-1.22 1.221z"/><defs><path id="i" d="M-16.112-19h913.07v913.07h-913.07z"/></defs><clipPath id="j"><use xlink:href="#i" overflow="visible"/></clipPath><path clip-path="url(#j)" fill="none" stroke="#FFF" stroke-width="4" stroke-miterlimit="10" d="M494.445 850.712h-71.299c-8.312 0-15.049-6.737-15.049-15.051v-71.298c0-8.312 6.737-15.05 15.049-15.05h71.299c8.312 0 15.05 6.738 15.05 15.05v71.298c0 8.314-6.738 15.051-15.05 15.051z"/><g clip-path="url(#j)"><defs><path id="k" d="M428.228 739.709h64.545v131.884h-64.545z"/></defs><clipPath id="l"><use xlink:href="#k" overflow="visible"/></clipPath><g clip-path="url(#l)"><text transform="translate(428.227 841.26)" fill="#FFF" font-family="'MyriadPro-Regular'" font-size="121.329">P</text></g></g><defs><path id="m" d="M-16.112-19h913.07v913.07h-913.07z"/></defs><clipPath id="n"><use xlink:href="#m" overflow="visible"/></clipPath><path clip-path="url(#n)" fill="#41A4DC" d="M757.979 199.157c0 11.14-9.031 20.17-20.171 20.17s-20.172-9.03-20.172-20.17c0-11.141 9.032-20.171 20.172-20.171s20.171 9.031 20.171 20.171"/><path clip-path="url(#n)" fill="#59C2EF" d="M752.076 198.945c0 7.998-6.482 14.48-14.48 14.48-7.997 0-14.48-6.483-14.48-14.48s6.483-14.48 14.48-14.48c7.998-.001 14.48 6.482 14.48 14.48"/><path clip-path="url(#n)" fill="#41A4DC" d="M748.765 703.431c0 11.14-9.031 20.17-20.17 20.17-11.141 0-20.172-9.03-20.172-20.17 0-11.141 9.031-20.172 20.172-20.172 11.138 0 20.17 9.031 20.17 20.172"/><path clip-path="url(#n)" fill="#59C2EF" d="M742.862 703.218c0 7.998-6.483 14.48-14.48 14.48-7.998 0-14.481-6.482-14.481-14.48s6.483-14.48 14.481-14.48c7.997-.001 14.48 6.482 14.48 14.48"/><path clip-path="url(#n)" fill="#41A4DC" d="M215.556 692.961c0 11.141-9.031 20.172-20.17 20.172-11.141 0-20.172-9.031-20.172-20.172 0-11.14 9.031-20.17 20.172-20.17 11.139 0 20.17 9.03 20.17 20.17"/><path clip-path="url(#n)" fill="#59C2EF" d="M209.653 692.749c0 7.997-6.482 14.48-14.48 14.48-7.997 0-14.48-6.483-14.48-14.48s6.483-14.479 14.48-14.479c7.997 0 14.48 6.482 14.48 14.479"/><path fill="none" stroke="#FFF" stroke-width="25" stroke-miterlimit="10" d="M287.527 346.952c96.983-96.982 254.219-96.982 351.201 0m-307.704 41.003c73.931-73.928 193.791-73.931 267.719 0m-212.911 56.393c43.19-43.195 113.224-43.19 156.416.001"/><circle fill="#FFF" stroke="#FFF" stroke-width="2" stroke-miterlimit="10" cx="463.128" cy="498.154" r="41.903"/></svg>