<svg xmlns="http://www.w3.org/2000/svg" xmlns:xlink="http://www.w3.org/1999/xlink" width="1000" height="1000" viewBox="0 0 1000 1000"><defs><path id="a" d="M0 0h1000v1000H0z"/></defs><clipPath id="b"><use xlink:href="#a" overflow="visible"/></clipPath><path clip-path="url(#b)" fill="#0B0E0E" d="M933.256 511.056l-.175 7.269-.214 8.913c-.069 1.769-.031 3.68-.196 5.724l-.489 6.543c-1.182 18.514-4.153 45.788-13.432 79.252-1.19 4.17-2.368 8.466-3.656 12.846a39431.2 39431.2 0 0 0-5.637 16.731l-.589 1.725-.671 1.706-2.72 6.922c-1.863 4.652-3.594 9.479-5.846 14.201l-3.254 7.222-1.652 3.666c-.556 1.227-1.082 2.476-1.723 3.675l-7.527 14.827c-.612 1.272-1.34 2.49-2.043 3.729l-2.125 3.728-4.308 7.555c-.735 1.263-1.426 2.561-2.207 3.811l-2.384 3.747-4.826 7.589a408.152 408.152 0 0 1-47.905 60.191c-9.365 9.821-19.607 19.271-30.411 28.568l-2.013 1.766c-.672.589-1.392 1.122-2.087 1.688l-4.22 3.357a16581.06 16581.06 0 0 1-8.514 6.771c-2.903 2.203-5.918 4.293-8.896 6.464l-4.5 3.24c-1.515 1.07-2.985 2.21-4.57 3.19-24.707 16.67-52.313 31.338-82.346 42.923l-2.804 1.125c-.939.365-1.902.668-2.854 1.006l-5.741 1.981c-3.842 1.302-7.672 2.7-11.57 3.938a53003.92 53003.92 0 0 0-17.789 5.167c-2.003.521-4.03.968-6.049 1.458l-12.184 2.888c-2.029.531-4.109.831-6.172 1.235l-6.214 1.148-6.238 1.151-3.128.577-3.157.422-12.688 1.689c-4.236.658-8.527.915-12.823 1.28-4.297.339-8.607.74-12.938 1.027l-13.056.408-6.562.205c-.208.005-.638.024-.893.013l-.816-.015-1.633-.032-3.272-.063-13.134-.254-1.648-.031-1.662-.113-3.329-.232c-2.222-.154-4.446-.311-6.674-.467-8.948-.429-17.798-1.73-26.747-2.772-17.796-2.688-35.745-6.06-53.405-11.244l-6.657-1.85-1.667-.463-1.644-.539-3.288-1.091-13.193-4.377c-4.362-1.587-8.679-3.333-13.037-4.999l-6.531-2.537-6.415-2.854c-34.398-14.914-67.184-35.115-96.979-59.713l-11.018-9.448-1.375-1.188-1.321-1.25-2.642-2.5-5.29-5.008c-1.757-1.679-3.548-3.325-5.28-5.034l-5.06-5.269-5.067-5.277-2.535-2.641c-.857-.871-1.621-1.826-2.436-2.736l-9.651-11.061-1.207-1.386c-.394-.47-.765-.957-1.148-1.436l-2.283-2.883-4.57-5.773c-1.517-1.931-3.066-3.84-4.557-5.794l-4.299-5.998-4.303-6.006-2.153-3.006c-.726-.997-1.354-2.06-2.037-3.087l-8.04-12.445-1.006-1.558-.932-1.604-1.862-3.209-3.724-6.425c-1.23-2.149-2.512-4.271-3.7-6.447l-3.416-6.609-3.418-6.616-1.707-3.312c-.559-1.109-1.039-2.257-1.563-3.384l-6.164-13.591-.765-1.703-.687-1.735-1.375-3.474-2.75-6.95c-.902-2.322-1.867-4.623-2.717-6.968l-2.409-7.085-2.408-7.091-1.204-3.547c-.399-1.183-.701-2.397-1.057-3.594l-4.113-14.421-.514-1.804-.431-1.826-.849-3.653-1.698-7.313-1.685-7.316-1.331-7.394-1.33-7.395c-.42-2.47-.953-4.922-1.215-7.416l-1.914-14.915c-.149-1.244-.342-2.484-.454-3.732l-.29-3.749-.58-7.5-.579-7.5c-.121-1.249-.149-2.503-.177-3.757l-.1-3.76-.386-15.179.394-14.846.098-3.712c.028-1.235.055-2.47.176-3.737l.578-7.55.583-7.548.293-3.774c.112-1.254.305-2.489.453-3.735l1.914-14.915c.263-2.494.795-4.946 1.215-7.415l1.33-7.395 1.331-7.393 1.685-7.317 1.697-7.312.849-3.654.432-1.825.514-1.804 4.113-14.421c.355-1.197.658-2.41 1.057-3.593l1.204-3.547 2.408-7.091 2.408-7.085c.85-2.344 1.815-4.645 2.717-6.968l2.75-6.95 1.375-3.473.687-1.736.765-1.703 6.168-13.588c.526-1.126 1.009-2.272 1.571-3.379l1.709-3.311 3.418-6.616 3.416-6.609c1.187-2.175 2.469-4.297 3.699-6.447l3.724-6.424 1.862-3.21.932-1.603 1.005-1.558 8.04-12.444c.682-1.027 1.31-2.09 2.037-3.087l2.152-3.006 4.303-6.006 4.298-5.998c1.491-1.953 3.041-3.862 4.557-5.793l4.569-5.773 2.283-2.883c.384-.478.755-.966 1.148-1.435l1.208-1.385 9.649-11.061c.816-.91 1.58-1.865 2.436-2.736l2.536-2.641 5.066-5.277 5.06-5.268c1.731-1.709 3.522-3.356 5.279-5.034l5.289-5.008 2.643-2.501 1.32-1.249 1.376-1.188 11.025-9.438c29.792-24.596 62.575-44.797 96.97-59.711l6.414-2.853 6.53-2.538c4.358-1.666 8.674-3.412 13.037-4.999l13.191-4.378 3.288-1.09 1.644-.54 1.666-.463 6.656-1.848c17.659-5.186 35.607-8.557 53.402-11.246 8.945-1.042 17.811-2.345 26.711-2.772l6.649-.465 3.318-.232 1.655-.114 1.66-.032 13.229-.257 3.294-.064 1.645-.031.822-.016c.259-.012.681.012.889.016l6.516.203 12.97.406c4.331.285 8.665.688 12.974 1.026 4.309.366 8.619.625 12.849 1.282l12.688 1.689 3.157.421 3.128.577 6.237 1.152 6.214 1.148c2.063.404 4.143.704 6.171 1.235l12.183 2.887c2.021.489 4.046.937 6.05 1.458l5.953 1.728 11.834 3.437c3.899 1.237 7.729 2.636 11.571 3.937l5.741 1.981c.951.338 1.915.64 2.854 1.006l2.805 1.124c30.03 11.583 57.637 26.25 82.343 42.918 1.585.981 3.057 2.121 4.57 3.19l4.5 3.24c2.979 2.17 5.992 4.261 8.897 6.463l8.513 6.772 4.22 3.357c.694.565 1.415 1.098 2.087 1.688l2.013 1.764c10.803 9.298 21.053 18.739 30.415 28.564a408.244 408.244 0 0 1 47.905 60.189l4.827 7.589 2.383 3.747c.782 1.25 1.472 2.547 2.208 3.81l4.308 7.555 2.125 3.727c.703 1.239 1.431 2.457 2.043 3.73L893 334.647c.641 1.2 1.167 2.448 1.726 3.674l1.651 3.665 3.255 7.222c2.252 4.723 3.982 9.55 5.846 14.202l2.72 6.921.671 1.707.589 1.725 1.154 3.425 4.483 13.304c1.288 4.381 2.466 8.676 3.656 12.846 9.278 33.462 12.251 60.743 13.432 79.247l.489 6.54c.166 2.043.128 3.958.196 5.727l.215 8.919.175 7.275v.01zm-.6-.008l-.186-7.264-.228-8.905c-.071-1.767-.036-3.679-.204-5.718l-.498-6.53c-1.205-18.472-4.213-45.704-13.523-79.089-1.193-4.161-2.376-8.446-3.668-12.816l-4.494-13.271-1.156-3.417-.59-1.721-.673-1.702-2.724-6.903c-1.867-4.64-3.6-9.455-5.854-14.164-8.241-19.171-18.938-39.146-32.175-59.297a406.932 406.932 0 0 0-47.988-59.828c-9.374-9.748-19.603-19.144-30.432-28.327l-2.016-1.746c-.672-.583-1.394-1.109-2.089-1.668l-4.225-3.318-8.519-6.691c-2.906-2.176-5.921-4.239-8.901-6.381-1.494-1.064-2.994-2.13-4.499-3.199-1.513-1.055-2.984-2.181-4.568-3.147-24.698-16.441-52.253-30.86-82.175-42.19l-2.793-1.1c-.937-.358-1.896-.653-2.845-.982l-5.718-1.934c-3.827-1.269-7.64-2.637-11.521-3.841a65369.212 65369.212 0 0 0-17.704-5.023c-1.993-.506-4.01-.938-6.02-1.411l-12.116-2.793c-2.017-.516-4.086-.8-6.137-1.188l-6.177-1.102-6.2-1.106-3.108-.554-3.137-.399-12.605-1.598c-4.207-.628-8.467-.855-12.729-1.192-4.265-.308-8.539-.682-12.836-.94l-12.972-.325-6.517-.163c-2.151-.005-4.344.095-6.519.137l-13.118.335-1.645.041-1.643.123-3.288.251-6.591.503c-8.82.475-17.602 1.825-26.459 2.91-17.618 2.774-35.374 6.22-52.827 11.464l-6.578 1.87-1.647.468-1.624.545-3.248 1.1-13.03 4.412c-4.308 1.597-8.569 3.353-12.87 5.027l-6.446 2.549-6.328 2.863c-33.935 14.962-66.217 35.135-95.493 59.608a59090.71 59090.71 0 0 1-10.831 9.387l-1.354 1.178-1.299 1.239-2.6 2.48-5.204 4.964c-1.728 1.664-3.491 3.296-5.194 4.989l-4.975 5.221-4.982 5.228-2.494 2.617c-.842.862-1.593 1.809-2.394 2.71l-9.483 10.953-1.187 1.371c-.387.465-.751.948-1.128 1.421l-2.242 2.855-4.487 5.713c-1.49 1.912-3.012 3.8-4.476 5.733l-4.219 5.935-4.222 5.942-2.114 2.973c-.713.985-1.328 2.037-1.997 3.053l-7.884 12.305-.987 1.54-.913 1.585-1.823 3.173-3.65 6.35c-1.205 2.125-2.462 4.222-3.625 6.371l-3.343 6.53-3.345 6.536-1.674 3.27c-.55 1.094-1.021 2.226-1.536 3.338l-6.057 13.407-.752 1.679-.675 1.713-1.35 3.426-2.701 6.855c-.886 2.291-1.835 4.56-2.669 6.871l-2.363 6.989-2.364 6.992-1.182 3.497c-.392 1.167-.688 2.364-1.036 3.544l-4.034 14.219-.505 1.778-.422 1.8-.83 3.603-1.662 7.209-1.653 7.213-1.299 7.288-1.3 7.29c-.411 2.434-.934 4.851-1.188 7.309l-1.865 14.702c-.144 1.226-.334 2.449-.442 3.679l-.28 3.692-.56 7.387-.56 7.387c-.119 1.229-.144 2.467-.17 3.704l-.093 3.712-.372 14.847.374 14.812.093 3.706c.025 1.234.051 2.471.169 3.701l.56 7.394.561 7.391.28 3.696c.108 1.23.297 2.452.442 3.679l1.865 14.701c.254 2.459.776 4.876 1.187 7.311l1.301 7.29 1.299 7.287 1.653 7.214 1.662 7.208.83 3.604.422 1.799.505 1.779 4.034 14.218c.348 1.181.644 2.378 1.035 3.544l1.183 3.498 2.364 6.992 2.363 6.988c.834 2.312 1.783 4.58 2.669 6.872l2.701 6.854 1.35 3.426.674 1.712.753 1.681 6.057 13.406c.514 1.111.986 2.243 1.536 3.338l1.673 3.27 3.346 6.536 3.343 6.531c1.163 2.148 2.42 4.246 3.625 6.37l3.649 6.35 1.823 3.173.913 1.585.987 1.54 7.884 12.305c.67 1.017 1.285 2.068 1.998 3.054l2.113 2.973 4.223 5.942 4.218 5.935c1.464 1.933 2.987 3.821 4.476 5.733l4.488 5.713 2.242 2.854c.376.474.74.956 1.127 1.421l1.187 1.371 9.483 10.953c.802.901 1.552 1.849 2.394 2.71l2.494 2.617 4.982 5.229 4.975 5.221c1.703 1.692 3.466 3.325 5.194 4.989l5.204 4.964 2.6 2.479 1.299 1.239 1.354 1.178 10.831 9.387c29.276 24.473 61.558 44.646 95.492 59.608l6.329 2.863 6.445 2.549c4.302 1.674 8.563 3.429 12.871 5.027l13.029 4.412 3.248 1.1 1.625.545 1.647.468 6.578 1.87c17.453 5.244 35.208 8.69 52.826 11.464 8.857 1.085 17.641 2.436 26.454 2.91l6.587.502 3.286.251 1.641.123 1.648.042c4.39.112 8.768.225 13.132.335 2.177.042 4.373.143 6.525.137l6.509-.162c4.333-.109 8.651-.218 12.957-.325 4.298-.258 8.576-.631 12.843-.94 4.265-.337 8.527-.563 12.733-1.19l12.604-1.6 3.138-.398 3.108-.555 6.2-1.105 6.177-1.102c2.051-.389 4.119-.673 6.137-1.188l12.116-2.794c2.01-.474 4.026-.905 6.02-1.41 1.978-.563 3.952-1.122 5.924-1.681l11.78-3.343c3.881-1.204 7.694-2.571 11.521-3.842l5.718-1.933c.948-.33 1.908-.625 2.845-.982l2.793-1.101c29.922-11.33 57.476-25.748 82.174-42.189 1.585-.967 3.056-2.093 4.568-3.147l4.5-3.198c2.98-2.143 5.995-4.206 8.901-6.381 2.854-2.243 5.695-4.475 8.519-6.692 1.412-1.108 2.82-2.215 4.225-3.316.695-.56 1.416-1.086 2.089-1.669l2.016-1.745c10.829-9.185 21.058-18.579 30.432-28.327a406.984 406.984 0 0 0 47.988-59.828c13.237-20.151 23.934-40.126 32.174-59.297 2.255-4.709 3.987-9.524 5.854-14.164l2.724-6.903.673-1.702.59-1.721 1.156-3.417 4.494-13.271c1.292-4.37 2.475-8.655 3.668-12.816 9.31-33.383 12.318-60.621 13.523-79.084l.498-6.528c.168-2.038.133-3.953.204-5.72l.228-8.913.186-7.269v.004z"/><path clip-path="url(#b)" fill="#41A4DC" d="M269.816 216.835c0 12.201-9.891 22.091-22.091 22.091-12.201 0-22.092-9.89-22.092-22.091s9.891-22.091 22.092-22.091c12.2.001 22.091 9.891 22.091 22.091"/><path clip-path="url(#b)" fill="#59C2EF" d="M263.351 216.603c0 8.759-7.1 15.859-15.859 15.859s-15.859-7.1-15.859-15.859 7.1-15.859 15.859-15.859 15.859 7.1 15.859 15.859"/><defs><path id="c" d="M0 0h1000v1000H0z"/></defs><clipPath id="d"><use xlink:href="#c" overflow="visible"/></clipPath><path clip-path="url(#d)" fill="#E83E3C" d="M225.691 407.977c0 43.545-35.3 78.846-78.846 78.846C103.3 486.823 68 451.522 68 407.977s35.3-78.846 78.845-78.846c43.547 0 78.846 35.301 78.846 78.846"/><circle clip-path="url(#d)" fill="none" stroke="#E83E3C" stroke-width="4" stroke-miterlimit="10" cx="146.846" cy="407.977" r="78.845"/><path clip-path="url(#d)" fill="#FFF" d="M102.652 445.127h88.388c1.058 0 1.917-.796 1.917-1.778v-49.975c0-.981-.607-2.34-1.357-3.034l-10.812-10.029c-.749-.694-1.355-2.053-1.355-3.035v-6.42c0-.982-.859-1.777-1.917-1.777h-5.432c-1.058 0-1.917.795-1.917 1.777 0 .982-.628 1.237-1.406.57l-20.403-17.534c-.776-.667-2.037-.669-2.815-.004l-43.399 37.096c-.779.665-1.409 2.001-1.409 2.983v49.382c0 .982.858 1.778 1.917 1.778"/><path clip-path="url(#d)" fill="none" stroke="#FFF" stroke-width="8" stroke-miterlimit="10" d="M102.652 445.127h88.388c1.058 0 1.917-.796 1.917-1.778v-49.975c0-.981-.607-2.34-1.357-3.034l-10.812-10.029c-.749-.694-1.355-2.053-1.355-3.035v-6.42c0-.982-.859-1.777-1.917-1.777h-5.432c-1.058 0-1.917.795-1.917 1.777 0 .982-.628 1.237-1.406.57l-20.403-17.534c-.776-.667-2.037-.669-2.815-.004l-43.399 37.096c-.779.665-1.409 2.001-1.409 2.983v49.382c0 .982.858 1.778 1.917 1.778z"/><defs><path id="e" d="M0 0h1000v1000H0z"/></defs><clipPath id="f"><use xlink:href="#e" overflow="visible"/></clipPath><path clip-path="url(#f)" fill="#0EBFD9" d="M596.527 107.641c0 43.545-35.301 78.846-78.847 78.846-43.545 0-78.845-35.301-78.845-78.846s35.3-78.846 78.845-78.846c43.547 0 78.847 35.301 78.847 78.846"/><circle clip-path="url(#f)" fill="none" stroke="#0EBFD9" stroke-width="4" stroke-miterlimit="10" cx="517.682" cy="107.641" r="78.846"/><path clip-path="url(#f)" fill="#FFF" d="M544.811 56.212c-10.375 0-20.083 4.697-26.548 12.565-6.466-7.868-16.174-12.565-26.548-12.565-18.956 0-34.378 15.423-34.378 34.379 0 14.843 8.85 32.011 26.306 51.03 13.434 14.635 28.047 25.966 32.207 29.09l2.412 1.814 2.413-1.813c4.157-3.125 18.771-14.456 32.206-29.09 17.457-19.018 26.308-36.186 26.308-51.03-.001-18.957-15.423-34.38-34.378-34.38"/><path clip-path="url(#f)" fill="none" stroke="#0EBFD9" stroke-width="5" stroke-miterlimit="10" d="M452.946 107.707h29.837c.646 0 1.3-.609 1.462-1.361l2.535-11.795c.162-.751.555-.817.88-.146l2.336 4.829c.325.671.757.619.964-.116l14.456-50.953c.207-.735.469-.711.58.054l13.245 89.946c.109.765.258.755.33-.015l5.399-59.718c.072-.771.357-.83.638-.132l11.265 27.908c.282.697.751.703 1.044.014l3.029-7.099c.294-.69.845-.744 1.226-.12l4.659 7.573c.385.625 1.218 1.13 1.864 1.13H583.6"/><path clip-path="url(#f)" fill="#FAAF4B" d="M596.527 897.259c0 43.545-35.301 78.846-78.847 78.846-43.545 0-78.845-35.301-78.845-78.846s35.3-78.847 78.845-78.847c43.547 0 78.847 35.302 78.847 78.847"/><circle clip-path="url(#f)" fill="none" stroke="#FAAF4B" stroke-width="4" stroke-miterlimit="10" cx="517.682" cy="897.259" r="78.846"/><defs><path id="g" d="M0 0h1000v1000H0z"/></defs><clipPath id="h"><use xlink:href="#g" overflow="visible"/></clipPath><path clip-path="url(#h)" fill="#FFF" d="M981.676 445.127c0 43.545-35.301 78.847-78.847 78.847-43.545 0-78.845-35.301-78.845-78.847 0-43.545 35.3-78.846 78.845-78.846 43.546 0 78.847 35.301 78.847 78.846"/><circle clip-path="url(#h)" fill="none" stroke="#FFF" stroke-width="4" stroke-miterlimit="10" cx="902.83" cy="445.127" r="78.846"/><path clip-path="url(#h)" fill="#515254" d="M913.117 506.643h-9.406c-.998 0-1.809-1.494-1.809-3.339v-78.467c0-1.844.811-3.34 1.809-3.34h9.406c.998 0 1.808 1.495 1.808 3.34v78.467c.001 1.844-.809 3.339-1.808 3.339"/><path clip-path="url(#h)" fill="none" stroke="#FFF" stroke-width="1.5" stroke-miterlimit="10" d="M913.117 506.643h-9.406c-.998 0-1.809-1.494-1.809-3.339v-78.467c0-1.844.811-3.34 1.809-3.34h9.406c.998 0 1.808 1.495 1.808 3.34v78.467c.001 1.844-.809 3.339-1.808 3.339z"/><path clip-path="url(#h)" fill="#515254" d="M902.789 500.634h-8.861a.67.67 0 0 1-.669-.669v-2.675c0-.369.3-.668.669-.668h3.316a.67.67 0 0 0 .669-.669v-2.731a.67.67 0 0 0-.669-.669h-3.316a.67.67 0 0 1-.669-.669v-2.619c0-.369.3-.669.669-.669h8.861"/><path clip-path="url(#h)" fill="none" stroke="#FFF" stroke-width="1.5" stroke-miterlimit="10" d="M902.789 500.634h-8.861a.67.67 0 0 1-.669-.669v-2.675c0-.369.3-.668.669-.668h3.316a.67.67 0 0 0 .669-.669v-2.731a.67.67 0 0 0-.669-.669h-3.316a.67.67 0 0 1-.669-.669v-2.619c0-.369.3-.669.669-.669h8.861"/><path clip-path="url(#h)" fill="#515254" d="M902.482 500.634h-8.603a.66.66 0 0 1-.648-.669v-2.675c0-.369.291-.668.648-.668h3.22a.66.66 0 0 0 .648-.669v-2.731a.659.659 0 0 0-.648-.668h-3.22a.66.66 0 0 1-.648-.669v-2.619c0-.37.291-.669.648-.669h8.603"/><path clip-path="url(#h)" fill="none" stroke="#FFF" stroke-width="1.5" stroke-miterlimit="10" d="M902.482 500.634h-8.603a.66.66 0 0 1-.648-.669v-2.675c0-.369.291-.668.648-.668h3.22a.66.66 0 0 0 .648-.669v-2.731a.659.659 0 0 0-.648-.668h-3.22a.66.66 0 0 1-.648-.669v-2.619c0-.37.291-.669.648-.669h8.603"/><path clip-path="url(#h)" fill="#515254" d="M884.874 387.272v21.703c0 .738.429 1.753.958 2.267l21.959 21.345a1.367 1.367 0 0 0 1.907-.007l22.306-21.999c.527-.518.952-1.535.952-2.273v-21.036c0-.737-.598-1.336-1.336-1.336h-45.411c-.738 0-1.335.599-1.335 1.336"/><path clip-path="url(#h)" fill="#515254" d="M919.767 399.797h-21.703a1.336 1.336 0 0 1-1.336-1.337v-4.34c0-.738.598-1.336 1.336-1.336h21.703c.738 0 1.336.598 1.336 1.336v4.34a1.334 1.334 0 0 1-1.336 1.337"/><path clip-path="url(#h)" fill="none" stroke="#FFF" stroke-width="1.5" stroke-miterlimit="10" d="M919.767 399.797h-21.703a1.336 1.336 0 0 1-1.336-1.337v-4.34c0-.738.598-1.336 1.336-1.336h21.703c.738 0 1.336.598 1.336 1.336v4.34a1.334 1.334 0 0 1-1.336 1.337z"/><defs><path id="i" d="M0 0h1000v1000H0z"/></defs><clipPath id="j"><use xlink:href="#i" overflow="visible"/></clipPath><path clip-path="url(#j)" fill="none" stroke="#FFF" stroke-width="4" stroke-miterlimit="10" d="M559.166 952.514h-78.087c-9.103 0-16.482-7.379-16.482-16.483v-78.086c0-9.104 7.379-16.482 16.482-16.482h78.087c9.103 0 16.482 7.379 16.482 16.482v78.086c0 9.104-7.379 16.483-16.482 16.483z"/><g clip-path="url(#j)"><defs><path id="k" d="M486.644 830.942h70.691v144.44h-70.691z"/></defs><clipPath id="l"><use xlink:href="#k" overflow="visible"/></clipPath><g clip-path="url(#l)"><text transform="translate(486.644 942.163)" fill="#FFF" font-family="'MyriadPro-Regular'" font-size="132.88">P</text></g></g><defs><path id="m" d="M0 0h1000v1000H0z"/></defs><clipPath id="n"><use xlink:href="#m" overflow="visible"/></clipPath><path clip-path="url(#n)" fill="none" stroke="#FFF" stroke-width="7" stroke-miterlimit="10" d="M395.902 490.546c71.155-70.692 185.897-70.318 256.589.823m-315.084-41.423c102.131-101.481 266.878-100.949 368.352 1.175m-434.971-45.212c139.212-138.32 363.74-137.594 502.074 1.604"/><defs><path id="o" d="M0 0h1000v1000H0z"/></defs><clipPath id="p"><use xlink:href="#o" overflow="visible"/></clipPath><path clip-path="url(#p)" fill="#41A4DC" d="M847.79 238.927c0 12.201-9.892 22.091-22.092 22.091s-22.092-9.89-22.092-22.091 9.892-22.091 22.092-22.091 22.092 9.89 22.092 22.091"/><path clip-path="url(#p)" fill="#59C2EF" d="M841.324 238.694c0 8.759-7.1 15.859-15.858 15.859s-15.859-7.1-15.859-15.859 7.101-15.859 15.859-15.859 15.858 7.101 15.858 15.859"/><path clip-path="url(#p)" fill="#41A4DC" d="M837.698 791.21c0 12.2-9.892 22.091-22.091 22.091-12.201 0-22.092-9.891-22.092-22.091 0-12.201 9.891-22.092 22.092-22.092 12.2 0 22.091 9.891 22.091 22.092"/><path clip-path="url(#p)" fill="#59C2EF" d="M831.233 790.978c0 8.759-7.101 15.858-15.859 15.858s-15.859-7.1-15.859-15.858c0-8.76 7.101-15.859 15.859-15.859s15.859 7.099 15.859 15.859"/><path clip-path="url(#p)" fill="#41A4DC" d="M253.725 779.744c0 12.201-9.891 22.092-22.091 22.092-12.201 0-22.092-9.891-22.092-22.092 0-12.2 9.891-22.091 22.092-22.091 12.199 0 22.091 9.891 22.091 22.091"/><path clip-path="url(#p)" fill="#59C2EF" d="M247.259 779.512c0 8.759-7.1 15.859-15.859 15.859s-15.859-7.101-15.859-15.859 7.1-15.858 15.859-15.858c8.76-.001 15.859 7.099 15.859 15.858"/><circle fill="#FFF" stroke="#FFF" stroke-miterlimit="10" cx="518.67" cy="544" r="44"/></svg>