<svg xmlns="http://www.w3.org/2000/svg" width="150" height="150" viewBox="0 0 150 150"><path fill="#FFF" d="M93.861 31.882c-8.542 0-16.537 3.868-21.861 10.347-5.324-6.479-13.319-10.347-21.861-10.347-15.609 0-28.309 12.7-28.309 28.309 0 12.223 7.288 26.36 21.662 42.021 11.063 12.051 23.096 21.382 26.521 23.954l1.986 1.493 1.987-1.492c3.424-2.573 15.458-11.904 26.521-23.955 14.375-15.66 21.663-29.798 21.663-42.021 0-15.609-12.699-28.309-28.309-28.309z"/><path fill="none" stroke="#2B2B2B" stroke-width="5" stroke-miterlimit="10" d="M5.667 73.859h31.628c.685 0 1.379-.595 1.55-1.329l2.688-11.517c.171-.733.588-.797.933-.142l2.476 4.715c.344.655.802.604 1.022-.113L61.288 15.72c.22-.717.497-.694.615.053l14.04 87.826c.118.746.274.738.35-.014l5.725-58.31c.076-.753.378-.811.676-.129l11.941 27.25c.299.681.794.687 1.106.013l3.21-6.931c.313-.674.896-.727 1.302-.117l4.937 7.394c.407.61 1.291 1.104 1.977 1.104h37.002"/></svg>