<svg xmlns="http://www.w3.org/2000/svg" width="150" height="150" viewBox="0 0 150 150"><path fill="#FFF" d="M104.081 15.197c-11.554 0-22.365 5.231-29.565 13.993-7.2-8.762-18.012-13.993-29.564-13.993-21.11 0-38.285 17.175-38.285 38.285 0 16.53 9.856 35.649 29.295 56.829 14.961 16.298 31.234 28.916 35.867 32.395l2.686 2.02 2.687-2.018c4.631-3.48 20.904-16.099 35.866-32.396 19.441-21.179 29.297-40.298 29.297-56.829-.001-21.11-17.175-38.286-38.284-38.286z"/><path fill="none" stroke="#2B2B2B" stroke-width="5" stroke-miterlimit="10" d="M1.778 72.544h33.227c.72 0 1.448-.678 1.628-1.516l2.824-13.135c.18-.836.618-.91.98-.162l2.601 5.377c.362.747.843.689 1.074-.129L60.21 6.236c.231-.818.522-.792.646.06l14.75 100.167c.123.852.287.841.367-.017l6.014-66.503c.08-.859.398-.925.71-.147l12.545 31.079c.314.776.836.783 1.162.015l3.373-7.905c.328-.769.941-.829 1.366-.134l5.188 8.433c.429.696 1.356 1.259 2.076 1.259h38.872"/></svg>