<svg xmlns="http://www.w3.org/2000/svg" width="150" height="150" viewBox="0 0 150 150"><g fill="#FFF"><circle cx="53.632" cy="107.842" r="28.426"/><path d="M127.605 108.057c0 15.699-12.73 28.426-28.426 28.426-15.702 0-28.429-12.727-28.429-28.426S83.478 79.63 99.18 79.63c15.695 0 28.425 12.727 28.425 28.427z"/><circle cx="76.405" cy="77.392" r="28.426"/></g><g fill="#FFF"><ellipse transform="rotate(-34.93 19.41 61.617)" cx="19.411" cy="61.621" rx="7.812" ry="13.809"/><ellipse transform="rotate(-30.186 45.298 29.77)" cx="45.302" cy="29.771" rx="11.395" ry="17.14"/><path d="M117.712 35.244c-4.455 8.353-12.568 12.722-18.123 9.76-5.55-2.96-6.44-12.133-1.987-20.485 4.458-8.354 12.57-12.722 18.122-9.762 5.552 2.962 6.442 12.134 1.988 20.487z"/><ellipse transform="rotate(33.912 133.656 61.69)" cx="133.656" cy="61.692" rx="7.812" ry="13.809"/></g></svg>