<svg xmlns="http://www.w3.org/2000/svg" width="1920" height="200" viewBox="0 0 1920 200"><ellipse fill="#FFF" stroke="#FFF" stroke-width="3" stroke-miterlimit="10" cx="157.5" cy="141.465" rx="45.5" ry="19.035"/><g stroke-miterlimit="10"><ellipse fill="#FFF" stroke="#FFF" stroke-width="3" cx="629.664" cy="165.486" rx="26.164" ry="11.782"/><ellipse fill="#FFF" stroke="#FFF" stroke-width="3" cx="1047.164" cy="88.248" rx="39.164" ry="19.504"/><ellipse fill="#FFF" stroke="#FFF" stroke-width="3" cx="1445.295" cy="144.758" rx="91.295" ry="32.241"/><g fill="#FFF" stroke="#FFF"><path d="M352.976 149.927c0 6.627-5.373 12-12 12H186.927c-6.627 0-12-5.373-12-12V76.366c0-6.627 5.373-12 12-12h154.049c6.627 0 12 5.373 12 12v73.561z"/><ellipse cx="191.61" cy="118.635" rx="46.341" ry="43.292"/><ellipse cx="207.927" cy="113.146" rx="50" ry="48.78"/><ellipse cx="214.561" cy="80.22" rx="49.39" ry="32.927"/><ellipse cx="236.536" cy="125.342" rx="45.732" ry="36.585"/><ellipse cx="321.878" cy="126.342" rx="68.902" ry="36.586"/><ellipse cx="180.122" cy="137.536" rx="56.414" ry="24.391"/><ellipse cx="291.61" cy="87.17" rx="61.365" ry="38.172"/><ellipse cx="354.195" cy="87.231" rx="43.902" ry="31.402"/><ellipse cx="267.22" cy="49.732" rx="36.975" ry="25.61"/><ellipse cx="322.293" cy="66.805" rx="30.683" ry="28.049"/><ellipse cx="132.854" cy="106.439" rx="42.073" ry="31.098"/><ellipse cx="179.805" cy="85.402" rx="41.464" ry="21.037"/></g><path fill="#F2F2F2" stroke="#F2F2F2" d="M148.889 158.473l238.512-48.108 1.039 1.023 1.567 1.727.971 1.222 1.439 2.124 1.109 2.08.8 1.975.682 2.636v2.02l.272.989-.234 2.805-.698 2.778-1.128 2.675-3.128 4.681-3.185 3.314-2.524 2.123-2.333 1.706-2.737 1.766-5.273 2.872-5.295 2.368-8.146 2.904-8.472 2.32-6.372 1.296-4.825 1.573-4.763-.138-6.074.597-8.757.465h-8.562l-6.477-.245-8.001-.679H194.13l-33.334-.104z"/><path fill="none" stroke="#2B2B2B" stroke-width="3" d="M267.22 77.3c5.996-5.727 15.481-5.508 21.208.487m-72.873-2.569c5.931-5.793 15.418-5.683 21.212.248m73.842 25.322c-33.222 31.728-84.831 31.509-115.391-.487"/><g fill="#FFF" stroke="#FFF"><path d="M757.263 169.979a7.663 7.663 0 0 1-7.663 7.663h-98.372a7.663 7.663 0 0 1-7.663-7.663v-46.975a7.663 7.663 0 0 1 7.663-7.662H749.6a7.663 7.663 0 0 1 7.663 7.662v46.975z"/><ellipse cx="654.219" cy="149.996" rx="29.593" ry="27.646"/><ellipse cx="664.638" cy="146.492" rx="31.929" ry="31.149"/><ellipse cx="668.875" cy="125.465" rx="31.54" ry="21.027"/><ellipse cx="682.908" cy="154.279" rx="29.203" ry="23.362"/><ellipse cx="737.405" cy="154.918" rx="43.999" ry="23.363"/><ellipse cx="646.883" cy="162.066" rx="36.025" ry="15.575"/><ellipse cx="718.077" cy="129.904" rx="39.186" ry="24.376"/><ellipse cx="758.042" cy="129.943" rx="28.035" ry="20.053"/><ellipse cx="702.502" cy="105.996" rx="23.611" ry="16.353"/><ellipse cx="737.67" cy="116.898" rx="19.593" ry="17.911"/><ellipse cx="616.698" cy="142.209" rx="26.867" ry="19.858"/><ellipse cx="646.68" cy="128.775" rx="26.478" ry="13.434"/></g><path fill="#F2F2F2" stroke="#F2F2F2" d="M626.938 175.436l152.309-30.72.663.653 1.001 1.103.62.78.918 1.356.709 1.329.511 1.26.435 1.684v1.29l.174.632-.15 1.791-.445 1.773-.721 1.709-1.997 2.988-2.034 2.118-1.612 1.355-1.489 1.09-1.748 1.127-3.368 1.834-3.381 1.513-5.202 1.854-5.41 1.481-4.069.828-3.081 1.005-3.041-.088-3.879.381-5.592.296h-5.468l-4.135-.157-5.11-.432h-66.518l-21.286-.067z"/><path fill="none" stroke="#2B2B2B" stroke-width="3" d="M702.502 123.602a9.573 9.573 0 0 1 13.543.311m-46.536-1.642a9.575 9.575 0 0 1 13.546.158m47.154 16.171c-21.215 20.261-54.171 20.121-73.686-.311"/><g fill="#FFF" stroke="#FFF"><path d="M1184.789 99.535c0 4.825-3.647 8.735-8.149 8.735h-104.638c-4.502 0-8.151-3.91-8.151-8.735V45.994c0-4.823 3.649-8.733 8.151-8.733h104.638c4.502 0 8.149 3.91 8.149 8.733v53.541z"/><ellipse cx="1075.182" cy="76.759" rx="31.478" ry="31.51"/><ellipse cx="1086.266" cy="72.766" rx="33.962" ry="35.504"/><ellipse cx="1090.772" cy="48.799" rx="33.549" ry="23.967"/><ellipse cx="1105.699" cy="81.641" rx="31.064" ry="26.628"/><ellipse cx="1163.667" cy="82.369" rx="46.802" ry="26.629"/><ellipse cx="1067.379" cy="90.517" rx="38.319" ry="17.753"/><ellipse cx="1143.107" cy="53.859" rx="41.682" ry="27.783"/><ellipse cx="1185.619" cy="53.903" rx="29.821" ry="22.856"/><ellipse cx="1126.541" cy="26.609" rx="25.115" ry="18.639"/><ellipse cx="1163.949" cy="39.035" rx="20.84" ry="20.415"/><ellipse cx="1035.272" cy="67.884" rx="28.579" ry="22.635"/><ellipse cx="1067.164" cy="52.572" rx="28.165" ry="15.312"/></g><path fill="#F2F2F2" stroke="#F2F2F2" d="M1046.164 105.755l162.01-35.014.706.744 1.064 1.257.659.889.977 1.547.754 1.513.544 1.437.462 1.919v1.471l.185.72-.158 2.041-.474 2.021-.767 1.949-2.124 3.405-2.164 2.413-1.714 1.545-1.585 1.242-1.859 1.285-3.582 2.09-3.597 1.724-5.532 2.114-5.755 1.688-4.328.943-3.278 1.146-3.235-.1-4.125.434-5.948.339h-5.818l-4.398-.18-5.435-.493h-70.754l-22.643-.075z"/><path fill="none" stroke="#2B2B2B" stroke-width="3" d="M1126.541 46.675c4.073-4.168 10.516-4.009 14.405.354m-49.5-1.87c4.029-4.216 10.473-4.136 14.409.18m50.159 18.431c-22.566 23.093-57.622 22.934-78.38-.354"/><g fill="#FFF" stroke="#FFF"><path d="M1665.118 162.3c0 8.313-6.287 15.053-14.046 15.053h-180.328c-7.759 0-14.048-6.739-14.048-15.053V70.028c0-8.313 6.289-15.051 14.048-15.051h180.328c7.759 0 14.046 6.738 14.046 15.051V162.3z"/><ellipse cx="1476.225" cy="123.049" rx="54.248" ry="54.304"/><ellipse cx="1495.326" cy="116.166" rx="58.53" ry="61.187"/><path d="M1560.91 74.862c0 22.811-25.888 41.304-57.82 41.304-31.93 0-57.815-18.493-57.815-41.304 0-22.808 25.886-41.3 57.815-41.3 31.932.001 57.82 18.493 57.82 41.3z"/><ellipse cx="1528.815" cy="131.461" rx="53.534" ry="45.892"/><ellipse cx="1628.716" cy="132.716" rx="80.657" ry="45.892"/><path d="M1528.814 146.757c0 16.898-29.566 30.596-66.036 30.596-36.475 0-66.039-13.697-66.039-30.596 0-16.896 29.564-30.591 66.039-30.591 36.47 0 66.036 13.695 66.036 30.591zm-7.362-63.174c0-26.445 32.16-47.881 71.835-47.881 39.671 0 71.831 21.436 71.831 47.881 0 26.439-32.16 47.878-71.831 47.878-39.675 0-71.835-21.439-71.835-47.878z"/><ellipse cx="1666.547" cy="83.659" rx="51.393" ry="39.389"/><path d="M1608.019 36.621c0-17.74-19.38-32.123-43.284-32.123s-43.282 14.382-43.282 32.123c0 17.744 19.378 32.123 43.282 32.123s43.284-14.379 43.284-32.123z"/><ellipse cx="1629.203" cy="58.036" rx="35.916" ry="35.181"/><ellipse cx="1407.445" cy="107.752" rx="49.251" ry="39.008"/><ellipse cx="1462.406" cy="81.365" rx="48.538" ry="26.387"/></g><path fill="#F2F2F2" stroke="#F2F2F2" d="M1426.216 173.018l279.202-60.343 1.217 1.284 1.834 2.166 1.134 1.531 1.685 2.666 1.3 2.609.936 2.478.797 3.305v2.535l.32 1.242-.273 3.517-.818 3.483-1.321 3.357-3.66 5.87-3.729 4.159-2.954 2.662-2.732 2.141-3.204 2.213-6.174 3.603-6.199 2.97-9.534 3.643-9.917 2.909-7.459 1.626-5.648 1.975-5.575-.172-7.109.747-10.251.582h-10.025l-7.581-.309-9.366-.848h-121.936l-39.022-.132z"/><path fill="none" stroke="#2B2B2B" stroke-width="3" d="M1564.734 71.202c7.02-7.184 18.122-6.909 24.827.61m-85.307-3.222c6.943-7.266 18.047-7.129 24.832.311m86.441 31.761c-38.891 39.798-99.305 39.522-135.078-.609"/></g></svg>