<svg xmlns="http://www.w3.org/2000/svg" width="150" height="150" viewBox="0 0 150 150"><path fill="none" stroke="#FFF" stroke-width="4" stroke-miterlimit="10" d="M10.774 142.412h129.419c1.549 0 2.807-1.166 2.807-2.604V66.635c0-1.437-.889-3.427-1.986-4.443l-15.832-14.685c-1.096-1.016-1.984-3.005-1.984-4.444v-9.399c0-1.438-1.258-2.603-2.807-2.603h-7.953c-1.549 0-2.807 1.165-2.807 2.603 0 1.438-.92 1.811-2.059.834L77.697 8.824c-1.137-.977-2.982-.979-4.122-.005L10.031 63.135c-1.141.974-2.064 2.93-2.064 4.367v72.306c0 1.438 1.256 2.604 2.807 2.604z"/><text transform="translate(48.333 121.653)" fill="#FFF" font-family="'MyriadPro-BoldCond'" font-size="12">SMART HOME</text><path fill="#FFF" d="M82.167 105.652H68.833a2.5 2.5 0 0 1-2.5-2.5V89.819a2.5 2.5 0 0 1 2.5-2.5h13.333a2.5 2.5 0 0 1 2.5 2.5v13.333a2.498 2.498 0 0 1-2.499 2.5z"/><path d="M36.239 56.921c21.59-21.588 56.591-21.588 78.18 0M46.974 67.382c15.706-15.705 41.168-15.706 56.874 0m-45.231 11.98c9.175-9.178 24.052-9.176 33.229 0" fill="none" stroke="#FFF" stroke-width="5" stroke-miterlimit="10"/></svg>