<svg xmlns="http://www.w3.org/2000/svg" width="150" height="150" viewBox="0 0 150 150"><path fill="none" stroke="#FFF" stroke-width="7" stroke-miterlimit="10" d="M10.774 144.412h129.419c1.549 0 2.807-1.166 2.807-2.604V68.635c0-1.437-.889-3.427-1.986-4.443l-15.832-14.685c-1.096-1.016-1.984-3.005-1.984-4.444v-9.399c0-1.438-1.258-2.603-2.807-2.603h-7.953c-1.549 0-2.807 1.165-2.807 2.603 0 1.438-.92 1.811-2.059.834L77.697 10.824c-1.137-.977-2.982-.979-4.122-.005L10.031 65.135c-1.141.974-2.064 2.93-2.064 4.367v72.306c0 1.438 1.256 2.604 2.807 2.604z"/><text transform="translate(37.333 123.653)" fill="#FFF" font-family="'MyriadPro-BoldCond'" font-size="12">SMART HOME</text><path fill="#FFF" d="M79.28 103.152H69.22a1.886 1.886 0 0 1-1.886-1.887v-10.06c0-1.042.844-1.887 1.886-1.887h10.06c1.042 0 1.887.845 1.887 1.887v10.06a1.887 1.887 0 0 1-1.887 1.887z"/><path d="M55.885 79.816c10.291-10.224 26.886-10.17 37.11.119m-45.57-5.991c14.771-14.677 38.598-14.6 53.274.17M37.79 67.575c20.134-20.005 52.607-19.9 72.614.232" fill="none" stroke="#FFF" stroke-width="5" stroke-miterlimit="10"/></svg>