<svg xmlns="http://www.w3.org/2000/svg" viewBox="0 0 150 150"><path fill="#FFF" stroke="#FFF" stroke-miterlimit="10" d="M124 143.75H29.25c-11.046 0-20-8.954-20-20V29c0-11.046 8.954-20 20-20H124c11.046 0 20 8.954 20 20v94.75c0 11.046-8.954 20-20 20z"/><path fill="#2B2B2B" stroke="#FFF" stroke-miterlimit="10" d="M120.819 139.75h-88.82c-10.354 0-18.749-8.394-18.749-18.748V32.181c0-10.355 8.394-18.749 18.749-18.749h88.821c10.354 0 18.749 8.394 18.749 18.749v88.821c-.001 10.354-8.395 18.748-18.75 18.748z"/><text transform="translate(36.002 131.19)" fill="#FFF" font-family="'MyriadPro-Regular'" font-size="161.236">P</text></svg>