<svg xmlns="http://www.w3.org/2000/svg" width="250" height="250" viewBox="0 0 250 250"><path fill="#202021" d="M229.647 174.972H23.028c-2.761 0-5-1.733-5-3.873V39.408c0-2.139 2.239-3.873 5-3.873h206.619c2.762 0 5 1.734 5 3.873v131.69c0 2.14-2.238 3.874-5 3.874z"/><path fill="#9ED5E9" d="M36.5 46.38h180V155h-180z"/><ellipse fill="#FFF" stroke="#FFF" stroke-miterlimit="10" cx="92.667" cy="68" rx="7.333" ry="10"/><ellipse fill="#FFF" stroke="#FFF" stroke-miterlimit="10" cx="153.963" cy="68" rx="7.333" ry="10"/><path fill="none" d="M55.5 111.25h140.75v30H55.5z"/><text transform="translate(57.776 119.77)"><tspan x="0" y="0" font-family="'MyriadPro-Regular'" font-size="12">Greetings! Welcome to our </tspan><tspan x="18.126" y="14.4" font-family="'MyriadPro-Regular'" font-size="12">Overview of the IoT!</tspan></text><g fill="#2B2B2B" stroke="#2B2B2B" stroke-miterlimit="10"><ellipse cx="92.813" cy="67.625" rx="2.188" ry="3.875"/><ellipse cx="153.963" cy="67.625" rx="2.188" ry="3.875"/></g><path d="M77.458 58c4.217-8.243 14.299-11.5 22.542-7.283m46.629-1.027c8.81-2.846 18.242 1.979 21.088 10.79" fill="none" stroke="#000" stroke-width="2" stroke-miterlimit="10"/><g fill="#696969"><circle cx="188.5" cy="167.25" r="2.5"/><circle cx="197.5" cy="167.25" r="2.5"/><circle cx="206.25" cy="167.25" r="2.5"/><circle cx="215.25" cy="167.25" r="2.5"/></g></svg>