<svg xmlns="http://www.w3.org/2000/svg" width="150" height="150" viewBox="0 0 150 150"><g fill="none" stroke="#FFF" stroke-miterlimit="10"><path stroke-width="4" d="M8.512 53.38h64.384v64.384H8.512z"/><path stroke-width="2" d="M59.231 116.439s13.089-6.488 13.089-10.727v11.477H58.369l.862-.75zM24.53 54.774S9.095 62.44 9.095 67.421V53.888h16.452l-1.017.886zm47.591 12.033s-6.488-13.089-10.726-13.089h11.489l-.013 13.952-.75-.863zM9.528 103.131s7.458 15.017 12.321 15.017H8.668V102.14l.86.991z"/></g><path fill="none" stroke="#FFF" stroke-width="2" stroke-miterlimit="10" d="M9.475 90.935h15.49c.475 0 1.137-.262 1.475-.586l8.876-8.577c.338-.326 1-.6 1.475-.6h10.264c.476 0 1.137.273 1.476.6l8.313 8.039c.35.324 1 .588 1.475.588h13.602a.854.854 0 0 0 .863-.851v-5.577a.863.863 0 0 0-.863-.861H61.432c-.475 0-1.138-.275-1.475-.6l-7.263-7.015c-.338-.324-1-.6-1.475-.6H31.903c-.476 0-1.138.275-1.476.6l-7.451 7.201c-.338.325-1 .601-1.475.601H9.587a.882.882 0 0 0-.875.861l-.075 5.926a.825.825 0 0 0 .838.851z"/><path fill="none" stroke="#FFF" stroke-width="4" stroke-miterlimit="10" d="M78.596 78.52h64.385v39.094H78.596z"/><path fill="none" stroke="#FFF" stroke-width="2" stroke-miterlimit="10" d="M128.467 115.197s15.367-5.856 15.367-9.656v10.323h-16.381l1.014-.667zM93.586 79.434s-13.907 5.144-13.907 8.51v-9.115h14.822l-.915.605zm47.756 10.017s-7.132-10.719-11.792-10.719h12.632l-.015 11.429-.825-.71zm-60.69 17.07s7.212 10.752 11.914 10.752H79.82V105.81l.832.711zm-1.093-5.198h15.49c.475 0 1.137-.16 1.475-.362l8.875-5.2c.338-.199 1.002-.361 1.477-.361h10.266c.475 0 1.137.162 1.473.361l8.314 4.876c.35.201 1 .363 1.475.363h13.604c.475 0 .861-.237.861-.524v-3.389c0-.287-.387-.514-.861-.514h-10.49c-.475 0-1.137-.163-1.475-.362l-7.264-4.263c-.338-.2-1-.362-1.477-.362h-19.314c-.475 0-1.137.162-1.475.362l-7.451 4.376c-.336.199-1 .362-1.477.362H79.672c-.477 0-.863.226-.875.513l-.076 3.601c-.012.288.363.523.838.523z"/><path fill="none" stroke="#FFF" stroke-width="4" stroke-miterlimit="10" d="M78.758 28.49h44.406v44.407H78.758z"/><path fill="none" stroke="#FFF" stroke-width="2" stroke-miterlimit="10" d="M110.352 72.092s12.316-7.37 12.316-12.185v13.05H109.55l.802-.865zM92.193 29.08s-12.41 6.401-12.41 10.585V28.329h13.218l-.808.751zm29.723 10.382s-5.119-10.735-8.441-10.735h9.026v11.435l-.585-.7zm-42.704 20.64s6.225 11.893 10.263 11.893H78.501V59.328l.711.774zm.222-5.708H90.11c.325 0 .788-.188 1.026-.413l6.113-5.913c.237-.225.688-.4 1.013-.4h7.088c.324 0 .774.175 1.012.4l5.74 5.55c.237.226.687.413 1.011.413h9.39a.598.598 0 0 0 .588-.6V49.58a.587.587 0 0 0-.588-.588h-7.239c-.337 0-.787-.188-1.024-.413l-5.001-4.838c-.237-.226-.688-.413-1.011-.413H94.897c-.336 0-.788.188-1.025.413l-5.137 4.976c-.238.225-.688.4-1.013.4h-8.215c-.324 0-.6.275-.6.6l-.063 4.088a.575.575 0 0 0 .59.589z"/></svg>