<svg id="Layer_1" xmlns="http://www.w3.org/2000/svg" viewBox="0 0 1280 960"><style>.st0{fill:#ff5050}.st1{fill:#f9f9f9}.st2{fill:#fff}.st3{fill:#f33}</style><path id="_x3C_base_x3E_" class="st0" d="M143.9 580.7h996v121h-996z"/><path id="_x3C_tele-top-base_x3E_" class="st0" d="M1142.9 268.9l-132.3-12.2c-2.7-.3-5.2 1.8-5.4 4.5l-5.8 62.5c-.3 2.7 1.8 5.2 4.5 5.4l132.3 12.2c2.7.3 5.2-1.8 5.4-4.5l5.8-62.5c.3-2.7-1.7-5.2-4.5-5.4z"/><path id="_x3C_tap-top-base_x3E_" transform="rotate(5.266 273.872 361.166) scale(1.00002)" class="st1" d="M210.6 332.5h126.6v57.3H210.6z"/><path id="_x3C_tap-bottom_x3E_" class="st2" d="M143.9 517.1H397v63.6H143.9z"/><path id="_x3C_tap-top-ping_x3E_" transform="rotate(5.266 268.234 414.806) scale(1.00002)" class="st2" d="M233.6 386.1h69.3v57.3h-69.3z"/><path id="_x3C_top_x3E_" transform="rotate(5.266 642.973 323.938) scale(1.00002)" class="st3" d="M145.7 281.9h994.5V366H145.7z"/><path id="_x3C_hinge_x3E_" class="st2" d="M957.3 287.4H823.1c-6.6 0-12 5.4-12 12v291c0 6.6 5.4 12 12 12h134.2c6.6 0 12-5.4 12-12v-291c0-6.6-5.4-12-12-12z"/><circle id="_x3C_screw_x3E_" class="st3" cx="894" cy="343" r="34.6"/><path id="_x3C_tele-top-connector_x3E_" class="st0" d="M1105.5 241.4l-41.4-3.8c-1.4-.1-2.6.9-2.7 2.3l-6.4 69c-.1 1.4.9 2.6 2.3 2.7l41.4 3.8c1.4.1 2.6-.9 2.7-2.3l6.4-69c.1-1.3-.9-2.6-2.3-2.7z"/><ellipse id="_x3C_tele-top_x3E_" transform="rotate(-84.736 1092.008 209.187) scale(1.00002)" class="st0" cx="1092" cy="209.2" rx="34.1" ry="76"/></svg>