<svg xmlns="http://www.w3.org/2000/svg" width="220" height="150" viewBox="0 0 220 150"><path fill="#EA5355" d="M2.56 114.646h209.093v23.327H2.56z"/><path fill="#E83D3C" d="M3.678 35.716l207.48 19.106-1.615 17.55L2.062 53.266z"/><path fill="#EA5355" d="M209.475 42.097l-22.011-2.028a3.076 3.076 0 0 0-3.336 2.771l-.758 8.22a3.077 3.077 0 0 0 2.772 3.336l22.013 2.029a3.077 3.077 0 0 0 3.335-2.773l.758-8.22a3.077 3.077 0 0 0-2.773-3.335"/><path fill="#EA5355" d="M203.688 34.325l-6.106-.562a1.546 1.546 0 0 0-1.675 1.392l-1.065 11.56a1.545 1.545 0 0 0 1.394 1.675l6.104.562a1.543 1.543 0 0 0 1.676-1.392L205.08 36a1.544 1.544 0 0 0-1.392-1.675"/><path fill="#EA5355" d="M216.771 29.326c-.343 3.71-7.319 6.1-15.583 5.339-8.264-.761-14.686-4.387-14.342-8.096.341-3.711 7.317-6.102 15.58-5.339 8.263.761 14.686 4.385 14.345 8.096"/><path fill="#FFF" d="M16.758 55.316l27.91 2.257-1.3 16.081-27.91-2.257z"/><path fill="#FFF" d="M22.838 66.608h14.447v11.547H22.838zm152.891-19.36H157.44c-4.472 0-8.13 3.658-8.13 8.129v52.5c0 4.471 3.658 8.129 8.13 8.129h18.289c4.471 0 8.129-3.658 8.129-8.129v-52.5c-.001-4.471-3.659-8.129-8.129-8.129"/><path fill="#E83D3C" d="M174.95 59.376a7.545 7.545 0 1 1-15.09-.002 7.545 7.545 0 0 1 15.09.002"/><path fill="#FFF" d="M2.56 100.452h56.005v14.077H2.56z"/></svg>