<svg xmlns="http://www.w3.org/2000/svg" width="220" height="150" viewBox="0 0 220 150"><path fill="#EA5355" d="M2.56 108.646h209.093v23.327H2.56z"/><path fill="#E83D3C" d="M209.537 66.869L2.06 44.404l1.616-20.626 207.476 22.467z"/><path fill="#EA5355" d="M209.475 31.279l-22.011-2.384c-1.68-.182-3.181 1.284-3.336 3.257l-.758 9.661c-.153 1.976 1.093 3.738 2.772 3.92l22.013 2.384c1.679.182 3.179-1.286 3.335-3.26l.758-9.66c.153-1.974-1.094-3.737-2.773-3.918"/><path fill="#EA5355" d="M203.688 22.145l-6.106-.661c-.842-.091-1.597.645-1.675 1.635l-1.065 13.586c-.077.991.548 1.877 1.394 1.968l6.104.661c.845.092 1.598-.645 1.676-1.636l1.064-13.585c.079-.991-.549-1.878-1.392-1.968"/><path fill="#EA5355" d="M216.771 16.27c-.343 4.36-7.319 7.168-15.583 6.274-8.264-.894-14.686-5.155-14.342-9.515.341-4.361 7.317-7.17 15.58-6.274 8.263.894 14.686 5.153 14.345 9.515"/><path fill="#FFF" d="M43.368 68.37l-27.912-2.653 1.301-18.899 27.91 2.652z"/><path fill="#FFF" d="M22.838 60.085h14.447v13.57H22.838zm152.891-18.837H157.44c-4.472 0-8.13 3.658-8.13 8.129v52.5c0 4.471 3.658 8.129 8.13 8.129h18.289c4.471 0 8.129-3.658 8.129-8.129v-52.5c-.001-4.471-3.659-8.129-8.129-8.129"/><path fill="#E83D3C" d="M174.95 53.376a7.545 7.545 0 1 1-15.09-.002 7.545 7.545 0 0 1 15.09.002"/><path fill="#FFF" d="M2.56 94.452h56.005v14.077H2.56z"/></svg>