<svg xmlns="http://www.w3.org/2000/svg" width="150" height="150" viewBox="0 0 150 150"><path fill="#FFF" d="M141.066 80.174c3.102-4.55 3.875-10.621 1.793-15.674-2.212-5.369-7.216-8.575-13.393-8.575l-23.814.019c.82-4.871 1.903-11.67 1.812-13.185h.001c-.678-10.058-6.878-21.866-7.15-22.382-1.853-3.457-7.412-6.064-12.932-6.064-1.226 0-2.437.127-3.599.377-8.96 1.921-11.159 8.123-11.048 11.518.013.563.238 10.227.314 14.279-1.683 3.484-4.815 9.042-7.894 13.98-3.358 5.388-5.636 8.444-6.926 9.945a9.753 9.753 0 0 0-1.813-.169H19.823c-5.493 0-9.962 4.469-9.962 9.962v50.74l.013.168c.386 4.974 4.609 8.868 9.616 8.868h32.874c3.711 0 6.938-2.11 8.545-5.193 1.851.857 4.063 1.542 6.631 1.542h49.063c11.112 0 16.029-5.189 18.195-9.542 2.162-4.344 2.242-9.178 1.417-12.565 2.563-3.919 3.884-9.225 2.448-14.089 2.21-3.353 4.066-8.472 2.403-13.96z"/><path fill="#2B2B2B" d="M136.068 79.413c6.363-6.315 4.407-19.138-6.598-19.138l-28.985.023c1.108-6.121 2.711-16.307 2.639-17.247-.612-9.096-6.411-20.175-6.646-20.62-1.06-1.979-6.409-4.646-11.782-3.488-6.929 1.485-7.659 5.912-7.611 7.137 0 0 .282 12.112.332 15.341-3.325 7.282-14.781 26.466-18.242 27.926a5.39 5.39 0 0 0-2.757-.755H19.823a5.593 5.593 0 0 0-5.611 5.612v50.572c.211 2.734 2.545 4.854 5.278 4.854h32.874a5.283 5.283 0 0 0 5.279-5.28v-1.671s1.223-.096 1.768.259c2.121 1.342 4.734 3.039 8.13 3.039h49.063c18.334 0 16.378-16.284 14.705-18.499 3.087-3.37 4.997-9.332 2.381-14.021 2.025-2.144 5.56-7.988 2.378-14.044z"/><path fill="#FFF" d="M19.467 73.875h31.769v50.476H19.467zm108.047 5.113l-.281 1.25c8.436 2.403 3.935 12.135-2.121 12.772l-.307 1.248c8.106 2.051 4.242 12.09-2.098 12.773l-.306 1.25c6.622 1.082 5.02 12.371-4.997 12.371l-49.911.023c-3.511 0-6.716-4.03-9.309-4.03h-2.262V77.81c2.805-1.767 6.269-4.028 8.198-5.654 3.632-3.109 18.525-27.175 18.525-30.191 0-3.016-.306-16.045-.306-16.045s2.898-3.771 9.426-1.013c0 0 5.491 10.297 6.057 18.501 0 0-2.475 16.867-3.795 22.17h34.571c8.508.023 6.881 12.162-1.084 13.41z"/><circle fill="#2B2B2B" cx="35.351" cy="118.342" r="4.321"/></svg>