<svg xmlns="http://www.w3.org/2000/svg" width="500" height="450" viewBox="0 0 500 450"><path d="M155.216 444.255h13l6.117-35.177h-26m187.217 35.177h13l6.118-35.177h-26.001" fill="#E62F3E" stroke="#E62F3E" stroke-miterlimit="10"/><path fill="#EA4D67" stroke="#E94357" stroke-miterlimit="10" d="M387 402.829c0 6.169-4.005 11.171-8.944 11.171H126.612c-4.94 0-8.945-5.002-8.945-11.171V47.837c0-6.169 4.005-11.171 8.945-11.171h251.444c4.939 0 8.944 5.001 8.944 11.171v354.992z"/><path fill="#E72E3E" stroke="#E94357" stroke-miterlimit="10" d="M134.333 73.333H297v262H134.333z"/><text transform="rotate(-89.914 285.457 38.1)" fill="#FFF" stroke="#FFF" stroke-miterlimit="10" font-family="'Windsor-Regular'" font-size="109.624">Cola</text><path fill="#E62F3E" d="M135 356h17.333v19.334H135z"/><path fill="#E62F3E" stroke="#E62F3E" stroke-miterlimit="10" d="M174.333 357.667h100v29h-100z"/><path fill="#E30613" d="M218.732 369.861h37.937v22.127h-37.937z"/><path fill="#3A3A3A" d="M256.784 372.166v17.636l2.461-2.518v-12.676z"/><path fill="#FFF" d="M238.421 391.988h8.895c-6.464 0-13.285-22.164-13.285-22.164l-5.575-.116s4.944 22.161 11.15 22.161l-1.185.119z"/><path fill="#C22840" stroke="#C22840" stroke-miterlimit="10" d="M174.333 357.042h100v16.917h-100zM375 275.667c0 4.418-5.904 8-13.188 8h-40.291c-7.283 0-13.188-3.582-13.188-8V133c0-4.418 5.904-8 13.188-8h40.291c7.283 0 13.188 3.582 13.188 8v142.667z"/><path fill="#E62F3E" stroke="#E62F3E" stroke-miterlimit="10" d="M316.928 138.055h49.479v30.695h-49.479z"/><g fill="#FFF" stroke="#FFF" stroke-miterlimit="10"><circle cx="321.556" cy="187.667" r="3"/><circle cx="341.556" cy="187.667" r="3"/><circle cx="361.777" cy="187.667" r="3"/><circle cx="321.556" cy="217.667" r="3"/><circle cx="341.556" cy="217.667" r="3"/><circle cx="361.777" cy="217.667" r="3"/><circle cx="321.445" cy="247.666" r="3"/><circle cx="341.445" cy="247.666" r="3"/><circle cx="361.667" cy="247.666" r="3"/></g></svg>