<svg xmlns="http://www.w3.org/2000/svg" width="500" height="450" viewBox="0 0 500 450"><path d="M50.634 422.742h12.67l5.959-34.281H43.925m396.266 34.284h12.663l5.962-34.283h-25.338" fill="#E62F3E" stroke="#E62F3E" stroke-miterlimit="10"/><path fill="#EA4D67" stroke="#E94357" stroke-miterlimit="10" d="M492.946 382.372c0 6.009-7.224 10.883-16.129 10.883H23.382c-8.903 0-16.129-4.874-16.129-10.883V36.422c0-6.014 7.227-10.885 16.129-10.885h453.435c8.905 0 16.129 4.871 16.129 10.885v345.95z"/><path fill="#E72E3E" stroke="#E62F3E" stroke-miterlimit="10" d="M27.582 53.602h158.523v255.325H27.582z"/><text transform="rotate(-89.914 217.349 79.941)" fill="#FFF" stroke="#FFF" stroke-miterlimit="10" font-family="'Windsor-Regular'" font-size="106.829">Cola</text><path fill="#E62F3E" stroke="#E6303E" stroke-miterlimit="10" d="M27.582 322.095h22.883v25.525H27.582z"/><g stroke-miterlimit="10"><path fill="#E62F3E" stroke="#E62F3E" d="M66.562 338.36h294.045v28.26H66.562z"/><path fill="#C22840" stroke="#C22840" d="M66.562 322.095h294.045v25.685H66.562z"/></g><path fill="#C22840" stroke="#C22840" stroke-miterlimit="10" d="M476.729 281.74c0 6.227-8.62 11.271-19.246 11.271h-58.771c-10.625 0-19.245-5.044-19.245-11.271V80.784c0-6.221 8.62-11.271 19.245-11.271h58.771c10.626 0 19.246 5.05 19.246 11.271V281.74z"/><path fill="#E62F3E" stroke="#E62F3E" stroke-miterlimit="10" d="M391.485 83.125h73.222v43.24h-73.222z"/><g fill="#FFF" stroke="#FFF" stroke-miterlimit="10"><path d="M404.074 156.042a4.23 4.23 0 0 1-4.227 4.23 4.226 4.226 0 1 1 4.227-4.23zm28.166 0a4.228 4.228 0 0 1-4.224 4.23 4.235 4.235 0 0 1-4.229-4.23 4.226 4.226 0 1 1 8.453 0zm28.488 0c0 2.336-1.89 4.23-4.226 4.23a4.227 4.227 0 0 1 0-8.454 4.226 4.226 0 0 1 4.226 4.224z"/><circle cx="399.848" cy="198.303" r="4.227"/><path d="M432.24 198.303a4.226 4.226 0 1 1-8.451.003 4.226 4.226 0 0 1 8.451-.003z"/><circle cx="456.503" cy="198.303" r="4.225"/><path d="M403.914 240.559a4.225 4.225 0 1 1-8.447.001 4.225 4.225 0 0 1 8.447-.001zm28.176 0a4.225 4.225 0 1 1-8.453.001 4.225 4.225 0 0 1 8.453-.001zm28.479 0a4.225 4.225 0 1 1-4.22-4.225 4.224 4.224 0 0 1 4.22 4.225z"/></g><path fill="#DAEFFB" stroke="#FFF" stroke-width="3" stroke-miterlimit="10" d="M191.357 55.214h169.249v252.299H191.357z"/><path fill="#B6E1F7" d="M310.111 59.383h46.299v65.861L220.872 302.688h-25.396v-75.51"/></svg>