<?xml version="1.0" encoding="utf-8"?>
<!-- Generator: Adobe Illustrator 20.0.0, SVG Export Plug-In . SVG Version: 6.00 Build 0)  -->
<svg version="1.1" id="base" xmlns="http://www.w3.org/2000/svg" xmlns:xlink="http://www.w3.org/1999/xlink" x="0px" y="0px"
	 viewBox="0 0 450 500" style="enable-background:new 0 0 450 500;" xml:space="preserve">
<style type="text/css">
	.st0{fill:#FFFFFF;}
	.st1{fill:#444444;}
</style>
<g>
	<path class="st0" d="M373.6,246H89.1c-5.5,0-10-4.5-10-10V52.2c0-5.5,4.5-10,10-10h284.5c5.5,0,10,4.5,10,10V236
		C383.6,241.5,379.1,246,373.6,246z"/>
</g>
<rect x="110.8" y="60.5" class="st1" width="7.1" height="163.4"/>
<rect x="124.3" y="60.5" class="st1" width="13.5" height="148.3"/>
<rect x="144.9" y="60.5" class="st1" width="12.7" height="148.3"/>
<rect x="167.1" y="60.5" class="st1" width="5.6" height="148.3"/>
<rect x="187" y="60.5" class="st1" width="6.3" height="148.3"/>
<rect x="199.6" y="60.5" class="st1" width="12.7" height="148.3"/>
<rect x="219.5" y="60.5" class="st1" width="8.5" height="163.4"/>
<rect x="233.8" y="60.5" class="st1" width="13.5" height="148.3"/>
<rect x="260.7" y="60.5" class="st1" width="6.3" height="148.3"/>
<rect x="277.4" y="60.5" class="st1" width="12.7" height="148.3"/>
<rect x="299.6" y="60.5" class="st1" width="5.6" height="148.3"/>
<rect x="313.8" y="60.5" class="st1" width="8.7" height="148.3"/>
<rect x="327.3" y="60.5" class="st1" width="15.1" height="148.3"/>
<rect x="349.5" y="60.5" class="st1" width="7.1" height="163.4"/>
</svg>
