<?xml version="1.0" encoding="utf-8"?>
<!-- Generator: Adobe Illustrator 16.0.0, SVG Export Plug-In . SVG Version: 6.00 Build 0)  -->
<!DOCTYPE svg PUBLIC "-//W3C//DTD SVG 1.1//EN" "http://www.w3.org/Graphics/SVG/1.1/DTD/svg11.dtd">
<svg version="1.1" xmlns="http://www.w3.org/2000/svg" xmlns:xlink="http://www.w3.org/1999/xlink" x="0px" y="0px" width="500px"
	 height="450px" viewBox="0 0 500 450" enable-background="new 0 0 500 450" xml:space="preserve">
<g id="base_x5F_phone">
	<path fill="#313132" stroke="#313132" stroke-miterlimit="10" d="M452.023,315.591c-0.944,5.781-6.398,9.705-12.18,8.761
		l-105.285-17.185c-5.782-0.942-9.705-6.395-8.762-12.177L363.44,64.364c0.942-5.783,6.396-9.705,12.178-8.761l105.286,17.184
		c5.78,0.944,9.703,6.396,8.76,12.179L452.023,315.591z"/>
	
		<rect x="476.923" y="64.866" transform="matrix(0.9869 0.1612 -0.1612 0.9869 17.3622 -76.5144)" fill="#313132" stroke="#313132" stroke-miterlimit="10" width="6.631" height="7.761"/>
</g>
<g id="base_x5F_speaker">
	
		<rect x="378.128" y="63.757" transform="matrix(0.9869 0.1611 -0.1611 0.9869 22.7738 -66.5833)" fill="#525151" stroke="#525151" stroke-miterlimit="10" width="87.869" height="86.833"/>
	
		<rect x="360.775" y="152.7" transform="matrix(0.9869 0.1611 -0.1611 0.9869 39.3899 -60.6445)" fill="#FFFFFF" stroke="#FFFFFF" stroke-miterlimit="10" width="65.828" height="119.789"/>
	<path fill="#525151" stroke="#525151" stroke-miterlimit="10" d="M431.312,294.875c-0.569,3.493-2.463,6.09-4.23,5.802
		l-23.772-3.88c-1.767-0.289-2.737-3.352-2.166-6.847l0,0c0.571-3.491,2.463-6.088,4.231-5.8l23.771,3.88
		C430.912,288.318,431.883,291.381,431.312,294.875L431.312,294.875z"/>
</g>
<g id="base_x5F_speaker_x5F_inner">
	
		<ellipse transform="matrix(0.9869 0.1611 -0.1611 0.9869 22.5798 -66.714)" fill="none" stroke="#313132" stroke-width="4" stroke-miterlimit="10" cx="422.723" cy="105.895" rx="31.992" ry="31.616"/>
</g>
<g id="base_x5F_speaker_x5F_dots">
	<path fill="#313132" stroke="#313132" stroke-width="4" stroke-miterlimit="10" d="M427.419,88.304
		c-0.196,1.212-1.352,2.033-2.579,1.833c-1.227-0.2-2.061-1.346-1.864-2.557c0.201-1.214,1.354-2.034,2.58-1.833
		C426.784,85.946,427.619,87.091,427.419,88.304z"/>
	
		<ellipse transform="matrix(0.9869 0.1611 -0.1611 0.9869 21.4336 -68.5581)" fill="#313132" stroke="#313132" stroke-width="4" stroke-miterlimit="10" cx="433.524" cy="97.905" rx="2.251" ry="2.224"/>
	
		<ellipse transform="matrix(0.9869 0.1611 -0.1611 0.9869 23.3381 -69.7231)" fill="#313132" stroke="#313132" stroke-width="4" stroke-miterlimit="10" cx="441.655" cy="109.065" rx="2.252" ry="2.224"/>
	
		<ellipse transform="matrix(0.987 0.1609 -0.1609 0.987 20.6839 -65.5845)" fill="#313132" stroke="#313132" stroke-width="4" stroke-miterlimit="10" cx="415.349" cy="94.938" rx="2.251" ry="2.225"/>
	
		<ellipse transform="matrix(0.987 0.1609 -0.1609 0.987 22.4017 -66.8091)" fill="#313132" stroke="#313132" stroke-width="4" stroke-miterlimit="10" cx="423.674" cy="104.902" rx="2.252" ry="2.224"/>
	
		<ellipse transform="matrix(0.9869 0.1612 -0.1612 0.9869 24.3494 -68.0732)" fill="#313132" stroke="#313132" stroke-width="4" stroke-miterlimit="10" cx="431.804" cy="116.063" rx="2.251" ry="2.224"/>
	
		<ellipse transform="matrix(0.987 0.161 -0.161 0.987 21.6573 -63.771)" fill="#313132" stroke="#313132" stroke-width="4" stroke-miterlimit="10" cx="404.289" cy="101.738" rx="2.25" ry="2.225"/>
	
		<ellipse transform="matrix(0.9869 0.1612 -0.1612 0.9869 23.3958 -65.0374)" fill="#313132" stroke="#313132" stroke-width="4" stroke-miterlimit="10" cx="412.613" cy="111.702" rx="2.251" ry="2.224"/>
	<path fill="#313132" stroke="#313132" stroke-width="4" stroke-miterlimit="10" d="M422.965,123.225
		c-0.197,1.213-1.354,2.032-2.579,1.832c-1.229-0.2-2.063-1.345-1.865-2.558c0.2-1.212,1.354-2.033,2.581-1.833
		S423.164,122.012,422.965,123.225z"/>
</g>
<g id="webcame_x5F_bottom_x5F_base">
	<polyline fill="#50C2EC" points="50.655,301.854 21.478,401.162 21.478,423.67 246.04,423.67 246.04,400.328 220.363,301.854 	"/>
</g>
<g id="webcam_x5F_bottom_x5F_corner">
	<line fill="none" stroke="#FFFFFF" stroke-width="4" stroke-miterlimit="10" x1="21.478" y1="401.162" x2="246.04" y2="401.162"/>
</g>
<g id="web_x5F_base">
	<circle fill="#FFFFFF" stroke="#FFFFFF" stroke-width="2.5" stroke-miterlimit="10" cx="135.57" cy="297.31" r="84.915"/>
</g>
<g id="web_x5F_speak">
	<path fill="#313132" stroke="#313132" stroke-miterlimit="10" d="M154.624,239.438c0,2.304-1.442,4.171-3.223,4.171h-33.749
		c-1.78,0-3.224-1.867-3.224-4.171l0,0c0-2.305,1.443-4.172,3.224-4.172h33.749C153.181,235.267,154.624,237.134,154.624,239.438
		L154.624,239.438z"/>
</g>
<g id="web_x5F_inout">
	<circle fill="#313132" stroke="#313132" stroke-miterlimit="10" cx="134.526" cy="301.854" r="40.953"/>
</g>
<g id="web_x5F_ininin">
	<circle fill="none" stroke="#FFFFFF" stroke-width="9" stroke-miterlimit="10" cx="134.759" cy="301.699" r="27.251"/>
</g>
<g id="coffee-spout">
	<g>
		<path fill="#2A2A2B" d="M89.827,28.671c-0.188-1.083-1.243-1.97-2.343-1.97H63.037c-1.1,0-1.317,0.587-0.483,1.304L92.97,54.158
			c0.834,0.717,1.362,0.417,1.174-0.667L89.827,28.671z"/>
	</g>
</g>
<g id="coffee_x5F_lid">
	<ellipse fill="#2A2A2B" cx="133.759" cy="26.659" rx="46.931" ry="9.649"/>
</g>
<g id="coffee-base">
</g>
<g id="coffee_x5F_shadow_x5F_right">
	<polygon fill="#C44645" points="150.035,26.83 143.098,123.768 161.974,123.768 180.776,26.502 	"/>
</g>
<g id="coffee_x5F_shadow_x5F_right_1_">
	<g id="Layer_18">
		<polyline fill="#EB5B5C" points="113.556,176.965 149.819,176.965 143.098,127.988 121.684,127.988 		"/>
		<polyline fill="#EB5B5C" points="119.483,120.798 144.685,120.798 152.849,26.701 113.324,26.701 119.483,120.798 		"/>
	</g>
	<polyline fill="#C44645" points="86.827,26.659 113.324,26.659 119.401,119.548 104.255,119.548 	"/>
</g>
<g id="coffe_x5F_show_x5F_left_x5F_bottom">
	<polygon fill="#C44645" points="121.684,127.988 113.556,176.965 86.827,176.965 104.671,131.263 104.255,127.988 	"/>
</g>
<g id="coffee-band">
	<g>
		<path fill="#2B2B2B" d="M164.512,125.988c0,1.1-0.9,2-2,2h-61.024c-1.1,0-2-0.9-2-2v-4.44c0-1.1,0.9-2,2-2h61.024c1.1,0,2,0.9,2,2
			V125.988z"/>
	</g>
</g>
<g id="coffe_x5F_show_x5F_right_x5F_bottom">
	<polygon fill="#C44645" points="143.098,127.988 149.819,176.965 179.906,176.965 161.958,130.648 161.958,127.988 	"/>
</g>
</svg>
