<?xml version="1.0" encoding="utf-8"?>
<!-- Generator: Adobe Illustrator 16.0.0, SVG Export Plug-In . SVG Version: 6.00 Build 0)  -->
<!DOCTYPE svg PUBLIC "-//W3C//DTD SVG 1.1//EN" "http://www.w3.org/Graphics/SVG/1.1/DTD/svg11.dtd">
<svg version="1.1" xmlns="http://www.w3.org/2000/svg" xmlns:xlink="http://www.w3.org/1999/xlink" x="0px" y="0px" width="450px"
	 height="500px" viewBox="0 0 450 500" enable-background="new 0 0 450 500" xml:space="preserve">
<g id="base_x5F_colour_x5F_bottom">
	<path fill="#355FAA" stroke="#365FAA" stroke-miterlimit="10" d="M359.666,471.462H109.273c-1.996,0-3.612-1.615-3.612-3.611
		V175.515c0-1.995,1.616-3.612,3.612-3.612h250.393c1.994,0,3.611,1.617,3.611,3.612v292.336
		C363.277,469.847,361.66,471.462,359.666,471.462z"/>
</g>
<g id="fridge_x5F_feet">
	<path fill="#504F4F" d="M145.191,483.315c0,2.245-1.82,4.065-4.064,4.065h-31.991c-2.245,0-4.064-1.82-4.064-4.065l0,0
		c0-2.245,1.82-4.064,4.064-4.064h31.991C143.372,479.251,145.191,481.07,145.191,483.315L145.191,483.315z"/>
	<path fill="#504F4F" d="M363.813,484.015c0,2.245-1.819,4.064-4.063,4.064h-31.991c-2.245,0-4.065-1.819-4.065-4.064l0,0
		c0-2.245,1.82-4.064,4.065-4.064h31.991C361.994,479.95,363.813,481.77,363.813,484.015L363.813,484.015z"/>
</g>
<g id="fridge_x5F_connector">
	<rect x="126.12" y="159.298" fill="#647687" stroke="#647687" stroke-miterlimit="10" width="217.719" height="13.477"/>
</g>
<g id="base_x5F_colour_x5F_bottom_1_">
	<path fill="#365FAA" d="M358.869,162.771H108.64c-1.974,0-3.575-1.601-3.575-3.575V13.854c0-1.975,1.601-3.575,3.575-3.575h250.229
		c1.975,0,3.574,1.6,3.574,3.575v145.343C362.443,161.17,360.844,162.771,358.869,162.771z"/>
	<polygon fill="#3057A4" points="351.123,161.772 362.383,161.772 362.383,15.948 359.345,11.46 	"/>
</g>
<g id="shadow_x5F_top">
</g>
<g id="fridge_x5F_base-top">
	<path fill="none" stroke="#365FAA" stroke-miterlimit="10" d="M105.696,161.371V17.677c0-3.437,2.29-6.221,5.102-6.221H357.96
		c2.826,0,5.115,2.784,5.115,6.221v143.693C363.075,164.807,105.696,164.807,105.696,161.371z"/>
</g>
<g id="shadow_x5F_bottom">
	<path fill="#3057A4" d="M352.025,172.854l10.145-0.006l0.502,299.15H214.323c0,0,137.984-203.622,137.984-299.323"/>
</g>
<g id="fridge_x5F_base_x5F_bottom">
	<rect x="105.696" y="472.354" fill="#647687" stroke="#647687" stroke-miterlimit="10" width="257.379" height="10.364"/>
	<path fill="none" stroke="#365FAA" stroke-miterlimit="10" d="M105.696,471.173c0-73.943,0-221.831,0-295.774
		c0-1.568,1.056-2.84,2.344-2.84c63.169,0,189.508,0,252.679,0c1.299,0,2.355,1.272,2.355,2.84c0,73.943,0,221.831,0,295.774
		C363.075,472.741,105.696,472.741,105.696,471.173z"/>
</g>
<g id="fridge_x5F_screen">
</g>
<g id="fridgeDoors">
	<path fill="#D3D2D3" stroke="#D3D3D3" stroke-miterlimit="10" d="M269.025,414.803h-1.431c-1.974,0-3.573-1.602-3.573-3.576
		V205.205c0-1.974,1.6-3.575,3.573-3.575h1.431c1.975,0,3.574,1.601,3.574,3.575v206.022C272.6,413.201,271,414.803,269.025,414.803
		z"/>
	
		<line fill="none" stroke="#9D9D9C" stroke-width="2" stroke-miterlimit="10" x1="239.235" y1="172.552" x2="239.235" y2="472.355"/>
	<path fill="#D3D2D3" stroke="#D3D3D3" stroke-miterlimit="10" d="M211.83,414.803h-1.43c-1.974,0-3.575-1.602-3.575-3.576V205.205
		c0-1.974,1.601-3.575,3.575-3.575h1.43c1.974,0,3.575,1.601,3.575,3.575v206.022C215.404,413.201,213.804,414.803,211.83,414.803z"
		/>
	<path fill="#D3D2D3" stroke="#D3D3D3" stroke-miterlimit="10" d="M122.506,110.186V49.995c0-3.912,1.406-7.081,3.141-7.081h1.256
		c1.735,0,3.14,3.169,3.14,7.081v60.191c0,3.912-1.405,7.081-3.14,7.081h-1.256C123.912,117.267,122.506,114.098,122.506,110.186z"
		/>
</g>
<g id="fridgeScreen">
	<path fill="#FFFFFF" stroke="#FFFFFF" stroke-miterlimit="10" d="M296.115,117.506H181.876c-2.673,0-4.841-2.167-4.841-4.841
		V50.705c0-2.674,2.167-4.841,4.841-4.841h114.239c2.675,0,4.842,2.167,4.842,4.841v61.961
		C300.957,115.339,298.79,117.506,296.115,117.506z"/>
</g>
</svg>
