<?xml version="1.0" encoding="utf-8"?>
<!-- Generator: Adobe Illustrator 16.0.0, SVG Export Plug-In . SVG Version: 6.00 Build 0)  -->
<!DOCTYPE svg PUBLIC "-//W3C//DTD SVG 1.1//EN" "http://www.w3.org/Graphics/SVG/1.1/DTD/svg11.dtd">
<svg version="1.1" xmlns="http://www.w3.org/2000/svg" xmlns:xlink="http://www.w3.org/1999/xlink" x="0px" y="0px" viewBox="0 0 250 250" enable-background="new 0 0 250 250" xml:space="preserve">
<g id="base">
	<path fill="#FFFFFF" stroke="#000000" stroke-miterlimit="10" d="M34,209.58"/>
	<g>
		<path fill="#2B2B2B" stroke="#2B2B2B" stroke-width="4" stroke-miterlimit="10" d="M42.643,190.124H213.3
			c2.041,0,3.7-1.538,3.7-3.435V90.201c0-1.895-1.173-4.519-2.62-5.859l-20.876-19.364c-1.443-1.34-2.616-3.962-2.616-5.86V46.724
			c0-1.896-1.657-3.431-3.699-3.431h-10.489c-2.043,0-3.7,1.535-3.7,3.431l0,0c0,1.896-1.213,2.388-2.716,1.101L130.89,13.969
			c-1.499-1.289-3.933-1.291-5.436-0.007L41.662,85.586c-1.504,1.285-2.721,3.863-2.721,5.759v95.344
			C38.94,188.586,40.597,190.124,42.643,190.124z"/>
	</g>
</g>
<g id="Layer_2">
</g>
<g id="CONNECTBASE">
</g>
<g id="Layer_4">
	<path fill="none" stroke="#FFFFFF" stroke-width="4" stroke-miterlimit="10" d="M148.431,198.371l-24.929-16.224
		c-1.525-0.994-1.812-2.927-0.639-4.319l26.083-30.997c1.174-1.393,0.713-2.96-1.026-3.498l-36.337-11.238
		c-1.738-0.537-2.073-1.985-0.747-3.229l31.237-29.333c1.326-1.247,0.981-2.653-0.773-3.142l-36.284-10.099
		c-1.755-0.488-1.981-1.75-0.504-2.817l35.975-26.024c1.476-1.068,1.287-2.449-0.415-3.084l-30.307-11.321
		c-1.707-0.637-1.825-1.914-0.264-2.853l39.625-23.852c1.56-0.938,1.409-2.121-0.336-2.641L110.63,2.333"/>
</g>
</svg>
