<?xml version="1.0" encoding="utf-8"?>
<!-- Generator: Adobe Illustrator 16.0.0, SVG Export Plug-In . SVG Version: 6.00 Build 0)  -->
<!DOCTYPE svg PUBLIC "-//W3C//DTD SVG 1.1//EN" "http://www.w3.org/Graphics/SVG/1.1/DTD/svg11.dtd">
<svg version="1.1" xmlns="http://www.w3.org/2000/svg" xmlns:xlink="http://www.w3.org/1999/xlink" x="0px" y="0px" viewBox="0 0 250 250" enable-background="new 0 0 250 250" xml:space="preserve">
<g id="Layer_1">
	<rect x="19.676" y="116.31" fill="#2B2B2B" width="210" height="36.5"/>
</g>
<g id="Layer_2">
	<path fill="none" stroke="#2B2B2B" stroke-width="5" stroke-miterlimit="10" d="M219.5,170H30c-5.523,0-10-4.478-10-10v-50.5
		c0-5.523,4.477-10,10-10h189.5c5.522,0,10,4.477,10,10V160C229.5,165.522,225.022,170,219.5,170z"/>
</g>
<g id="Layer_3">
	<path fill="#2B2B2B" d="M44.5,97.25C44.5,89.932,53.342,84,64.25,84S84,89.932,84,97.25"/>
	<path fill="#2B2B2B" d="M167.5,97.25c0-7.318,8.842-13.25,19.75-13.25S207,89.932,207,97.25"/>
</g>
<g id="Layer_4">
	<path fill="#2B2B2B" d="M68.163,94.764c-2.513,0.754-5.193-0.778-5.987-3.423l-13.95-46.45c-0.794-2.645,0.598-5.4,3.111-6.155
		c2.513-0.754,5.193,0.778,5.987,3.423l13.95,46.45C72.068,91.253,70.676,94.009,68.163,94.764z"/>
	<path fill="#2B2B2B" d="M184.637,91.854c-2.565-0.549-4.178-3.183-3.601-5.882l10.138-47.429c0.578-2.7,3.125-4.445,5.69-3.897
		c2.565,0.549,4.178,3.183,3.6,5.883l-10.138,47.429C189.749,90.657,187.201,92.402,184.637,91.854z"/>
	<path fill="none" stroke="#2B2B2B" stroke-width="3" stroke-miterlimit="10" d="M188.505,11.468
		c15.917-3.088,31.323,7.313,34.412,23.231"/>
	<path fill="none" stroke="#2B2B2B" stroke-width="3" stroke-miterlimit="10" d="M190.055,18.364
		c12.133-2.355,23.878,5.573,26.231,17.708"/>
	<path fill="none" stroke="#2B2B2B" stroke-width="3" stroke-miterlimit="10" d="M191.694,27.514
		c7.09-1.376,13.951,3.258,15.326,10.347"/>
	<path fill="none" stroke="#2B2B2B" stroke-width="3" stroke-miterlimit="10" d="M58.994,13.277
		c-15.519-4.696-31.907,4.079-36.602,19.6"/>
	<path fill="none" stroke="#2B2B2B" stroke-width="3" stroke-miterlimit="10" d="M56.75,19.978
		c-11.831-3.579-24.323,3.109-27.901,14.94"/>
	<path fill="none" stroke="#2B2B2B" stroke-width="3" stroke-miterlimit="10" d="M54.184,28.913
		c-6.912-2.092-14.21,1.818-16.301,8.73"/>
</g>
<g id="Layer_5">
	<rect x="38.5" y="123" fill="#FFFFFF" stroke="#FFFFFF" stroke-miterlimit="10" width="30" height="10"/>
	<rect x="75" y="123" fill="#FFFFFF" stroke="#FFFFFF" stroke-miterlimit="10" width="30" height="10"/>
	<rect x="112.5" y="123" fill="#FFFFFF" stroke="#FFFFFF" stroke-miterlimit="10" width="30" height="10"/>
	<rect x="150" y="123" fill="#FFFFFF" stroke="#FFFFFF" stroke-miterlimit="10" width="30" height="10"/>
	<rect x="185" y="122.5" fill="#FFFFFF" stroke="#FFFFFF" stroke-miterlimit="10" width="30" height="10"/>
</g>
</svg>
