<?xml version="1.0" encoding="utf-8"?>
<!-- Generator: Adobe Illustrator 16.0.0, SVG Export Plug-In . SVG Version: 6.00 Build 0)  -->
<!DOCTYPE svg PUBLIC "-//W3C//DTD SVG 1.1//EN" "http://www.w3.org/Graphics/SVG/1.1/DTD/svg11.dtd">
<svg version="1.1" id="Layer_1" xmlns="http://www.w3.org/2000/svg" xmlns:xlink="http://www.w3.org/1999/xlink" x="0px" y="0px"
	 width="250px" height="250px" viewBox="0 0 250 250" enable-background="new 0 0 250 250" xml:space="preserve">
<g id="Layer_1_1_">
	<rect x="21.676" y="119.311" fill="#2B2C2C" width="210" height="36.5"/>
</g>
<g id="Layer_2_1_">
	<path fill="none" stroke="#2B2C2C" stroke-width="5" stroke-miterlimit="10" d="M221.5,173H32c-5.523,0-10-4.479-10-10v-50.5
		c0-5.523,4.477-10,10-10h189.5c5.521,0,10,4.477,10,10V163C231.5,168.521,227.021,173,221.5,173z"/>
</g>
<g id="Layer_3">
	<path fill="#2B2C2C" d="M46.5,100.25C46.5,92.932,55.342,87,66.25,87S86,92.932,86,100.25"/>
	<path fill="#2B2C2C" d="M169.5,100.25c0-7.318,8.842-13.25,19.75-13.25S209,92.932,209,100.25"/>
</g>
<g id="Layer_4">
	<path fill="#2B2C2C" d="M70.163,97.764c-2.513,0.754-5.193-0.777-5.987-3.423l-13.95-46.45c-0.794-2.645,0.598-5.4,3.111-6.155
		c2.513-0.754,5.193,0.778,5.987,3.423l13.95,46.45C74.068,94.253,72.676,97.009,70.163,97.764z"/>
	<path fill="#2B2C2C" d="M186.637,94.854c-2.564-0.549-4.178-3.183-3.601-5.881l10.138-47.43c0.578-2.7,3.125-4.445,5.689-3.897
		c2.566,0.549,4.179,3.183,3.601,5.883l-10.138,47.429C191.749,93.657,189.201,95.402,186.637,94.854z"/>
	<path fill="none" stroke="#2B2C2C" stroke-width="3" stroke-miterlimit="10" d="M190.505,14.468
		c15.917-3.088,31.323,7.313,34.412,23.231"/>
	<path fill="none" stroke="#2B2C2C" stroke-width="3" stroke-miterlimit="10" d="M192.055,21.364
		c12.133-2.355,23.879,5.573,26.231,17.708"/>
	<path fill="none" stroke="#2B2C2C" stroke-width="3" stroke-miterlimit="10" d="M193.693,30.514
		c7.091-1.376,13.951,3.258,15.326,10.347"/>
	<path fill="none" stroke="#2B2C2C" stroke-width="3" stroke-miterlimit="10" d="M60.994,16.277
		c-15.519-4.696-31.907,4.079-36.602,19.6"/>
	<path fill="none" stroke="#2B2C2C" stroke-width="3" stroke-miterlimit="10" d="M58.75,22.978
		c-11.831-3.579-24.323,3.109-27.901,14.94"/>
	<path fill="none" stroke="#2B2C2C" stroke-width="3" stroke-miterlimit="10" d="M56.184,31.913
		c-6.912-2.092-14.21,1.818-16.301,8.73"/>
</g>
<g id="Layer_5">
	<rect x="40.5" y="126" fill="#FFFFFF" stroke="#FFFFFF" stroke-miterlimit="10" width="30" height="10"/>
	<rect x="77" y="126" fill="#FFFFFF" stroke="#FFFFFF" stroke-miterlimit="10" width="30" height="10"/>
	<rect x="114.5" y="126" fill="#FFFFFF" stroke="#FFFFFF" stroke-miterlimit="10" width="30" height="10"/>
	<rect x="152" y="126" fill="#FFFFFF" stroke="#FFFFFF" stroke-miterlimit="10" width="30" height="10"/>
	<rect x="187" y="125.5" fill="#FFFFFF" stroke="#FFFFFF" stroke-miterlimit="10" width="30" height="10"/>
</g>
</svg>
