<?xml version="1.0" encoding="utf-8"?>
<!-- Generator: Adobe Illustrator 16.0.0, SVG Export Plug-In . SVG Version: 6.00 Build 0)  -->
<!DOCTYPE svg PUBLIC "-//W3C//DTD SVG 1.1//EN" "http://www.w3.org/Graphics/SVG/1.1/DTD/svg11.dtd">
<svg version="1.1" xmlns="http://www.w3.org/2000/svg" xmlns:xlink="http://www.w3.org/1999/xlink" x="0px" y="0px" width="150px"
	 height="150px" viewBox="0 0 150 150" enable-background="new 0 0 150 150" xml:space="preserve">
<g id="base">
</g>
<g id="Layer_3">
</g>
<g id="Layer_2">
	<g>
		<path fill-rule="evenodd" clip-rule="evenodd" fill="none" d="M71.209,33.37c1.03,0,2.062,0,3.095,0c1.03,0,2.063,0,3.097,0
			c0.591,0.705,1.459,1.726,2.863,3.371c2.466,2.889,8.65,10.145,62.219,73.003H6c53.693-62.881,59.878-70.126,62.347-73.017
			C69.749,35.086,70.619,34.076,71.209,33.37z"/>
		<path fill-rule="evenodd" clip-rule="evenodd" fill="#FFFFFF" stroke="#FFFFFF" stroke-miterlimit="10" d="M74.123,33.37
			c0.095,0,0.189,0,0.283,0c0.002,0.087,0.005,0.176,0.008,0.265c-0.101,0-0.202,0-0.303,0
			C74.115,33.546,74.119,33.457,74.123,33.37L74.123,33.37z M74.415,33.664L74.415,33.664c0.002,0.098,0.005,0.206,0.008,0.314
			c-0.108,0-0.218,0-0.328,0c0.005-0.108,0.01-0.216,0.015-0.314C74.211,33.664,74.313,33.664,74.415,33.664L74.415,33.664z
			 M74.425,34.007L74.425,34.007c0.004,0.118,0.007,0.245,0.011,0.373c-0.121,0-0.24,0-0.361,0c0.005-0.127,0.012-0.255,0.018-0.373
			C74.204,34.007,74.314,34.007,74.425,34.007L74.425,34.007z M74.437,34.418L74.437,34.418c0.004,0.137,0.008,0.294,0.012,0.451
			c-0.132,0-0.266,0-0.398,0c0.008-0.157,0.016-0.314,0.021-0.451C74.194,34.418,74.316,34.418,74.437,34.418L74.437,34.418z
			 M74.451,34.918L74.451,34.918c0.005,0.167,0.011,0.354,0.017,0.549c-0.149,0-0.297,0-0.445,0c0.01-0.196,0.018-0.383,0.027-0.55
			C74.183,34.918,74.317,34.918,74.451,34.918L74.451,34.918z M74.469,35.537L74.469,35.537c0.006,0.206,0.013,0.441,0.02,0.686
			c-0.167,0-0.336,0-0.503,0c0.013-0.245,0.024-0.48,0.034-0.686C74.169,35.537,74.319,35.537,74.469,35.537L74.469,35.537z
			 M74.491,36.312L74.491,36.312c0.008,0.274,0.017,0.578,0.025,0.902c-0.192,0-0.386,0.001-0.58,0.001
			c0.017-0.325,0.031-0.628,0.045-0.903C74.151,36.312,74.321,36.312,74.491,36.312L74.491,36.312z M74.52,37.341L74.52,37.341
			c0.012,0.363,0.023,0.775,0.036,1.236c-0.229,0-0.458,0-0.687,0c0.023-0.46,0.042-0.873,0.061-1.235
			C74.126,37.342,74.324,37.342,74.52,37.341L74.52,37.341z M74.56,38.744L74.56,38.744c0.016,0.529,0.032,1.118,0.05,1.775
			c-0.279,0-0.558,0-0.837,0.001c0.033-0.658,0.063-1.246,0.088-1.775C74.095,38.744,74.328,38.744,74.56,38.744L74.56,38.744z
			 M74.617,40.773L74.617,40.773c0.022,0.794,0.049,1.746,0.083,2.854c-0.36,0.001-0.72,0.001-1.08,0.001
			c0.053-1.108,0.1-2.06,0.14-2.854C74.045,40.773,74.332,40.773,74.617,40.773L74.617,40.773z M74.71,44.02L74.71,44.02
			c0.04,1.402,0.086,3.06,0.142,5.07c-0.501,0-1.003,0.001-1.505,0.001c0.1-2.01,0.183-3.668,0.252-5.07
			C73.97,44.02,74.34,44.02,74.71,44.02L74.71,44.02z M74.877,49.972L74.877,49.972c0.078,2.786,0.189,6.806,0.344,12.416
			c-0.846,0.001-1.693,0.001-2.54,0.002c0.282-5.61,0.483-9.632,0.623-12.417C73.828,49.973,74.353,49.973,74.877,49.972
			L74.877,49.972z M75.282,64.614L75.282,64.614c0.233,8.328,0.59,21.441,1.222,45.129H70.28c1.211-23.685,1.875-36.8,2.295-45.126
			C73.474,64.616,74.378,64.615,75.282,64.614z"/>
		<path fill-rule="evenodd" clip-rule="evenodd" fill="#FFFFFF" stroke="#FFFFFF" stroke-width="2" stroke-miterlimit="10" d="
			M71.608,33.37c0.038,0,0.077,0,0.115,0c-0.492,0.706-1.219,1.715-2.386,3.356c-2.059,2.898-7.214,10.145-51.984,73.018h-2.549
			c46.772-62.873,52.159-70.12,54.31-73.018C70.333,35.084,71.093,34.076,71.608,33.37z"/>
		<path fill-rule="evenodd" clip-rule="evenodd" fill="#FFFFFF" stroke="#FFFFFF" stroke-width="2" stroke-miterlimit="10" d="
			M76.883,33.37c0.039,0,0.076,0,0.115,0c0.519,0.705,1.277,1.738,2.513,3.4c2.128,2.861,7.44,10.015,54.161,72.974h-2.557
			C86.409,46.784,81.326,39.626,79.288,36.76C78.109,35.103,77.379,34.075,76.883,33.37z"/>
	</g>
</g>
</svg>
