<?xml version="1.0" encoding="utf-8"?>
<!-- Generator: Adobe Illustrator 16.0.0, SVG Export Plug-In . SVG Version: 6.00 Build 0)  -->
<!DOCTYPE svg PUBLIC "-//W3C//DTD SVG 1.1//EN" "http://www.w3.org/Graphics/SVG/1.1/DTD/svg11.dtd">
<svg version="1.1" id="Layer_1" xmlns="http://www.w3.org/2000/svg" xmlns:xlink="http://www.w3.org/1999/xlink" x="0px" y="0px"
	viewBox="0 0 1000 1000" enable-background="new 0 0 1000 1000" xml:space="preserve">
<g>
	<defs>
		<rect id="SVGID_1_" width="1000" height="1000"/>
	</defs>
	<clipPath id="SVGID_2_">
		<use xlink:href="#SVGID_1_"  overflow="visible"/>
	</clipPath>
	<path class="rotating-line" clip-path="url(#SVGID_2_)" fill="#0B0E0E" d="M933.256,511.056c0,0-0.06,2.474-0.175,7.269
		c-0.058,2.397-0.129,5.375-0.214,8.913c-0.069,1.769-0.031,3.68-0.196,5.724c-0.153,2.044-0.315,4.226-0.489,6.543
		c-1.182,18.514-4.153,45.788-13.432,79.252c-1.19,4.17-2.368,8.466-3.656,12.846c-1.459,4.328-2.953,8.763-4.482,13.304
		c-0.384,1.136-0.769,2.277-1.155,3.427l-0.589,1.725l-0.671,1.706c-0.896,2.282-1.803,4.589-2.72,6.922
		c-1.863,4.652-3.594,9.479-5.846,14.201c-1.074,2.383-2.159,4.791-3.254,7.222c-0.548,1.216-1.099,2.438-1.652,3.666
		c-0.556,1.227-1.082,2.476-1.723,3.675c-2.462,4.851-4.972,9.794-7.527,14.827c-0.612,1.272-1.34,2.49-2.043,3.729
		c-0.705,1.237-1.414,2.479-2.125,3.728c-1.424,2.496-2.859,5.015-4.308,7.555c-0.735,1.263-1.426,2.561-2.207,3.811
		c-0.791,1.244-1.586,2.493-2.384,3.747c-1.596,2.509-3.204,5.039-4.826,7.589c-13.2,20.246-29.075,40.643-47.905,60.191
		c-9.365,9.821-19.607,19.271-30.411,28.568l-2.013,1.766c-0.672,0.589-1.392,1.122-2.087,1.688
		c-1.403,1.116-2.809,2.235-4.22,3.357c-2.821,2.245-5.659,4.502-8.514,6.771c-2.903,2.203-5.918,4.293-8.896,6.464
		c-1.496,1.077-2.996,2.157-4.5,3.24c-1.515,1.07-2.985,2.21-4.57,3.19c-24.707,16.67-52.313,31.338-82.346,42.923l-2.804,1.125
		c-0.939,0.365-1.902,0.668-2.854,1.006c-1.91,0.659-3.823,1.319-5.741,1.981c-3.842,1.302-7.672,2.7-11.57,3.938
		c-3.93,1.141-7.874,2.287-11.835,3.438c-1.981,0.574-3.966,1.151-5.954,1.729c-2.003,0.521-4.03,0.968-6.049,1.458
		c-4.047,0.959-8.107,1.922-12.184,2.888c-2.029,0.531-4.109,0.831-6.172,1.235c-2.068,0.382-4.139,0.765-6.214,1.148
		c-2.076,0.383-4.155,0.767-6.238,1.151l-3.128,0.577l-3.157,0.422c-4.215,0.562-8.443,1.124-12.688,1.689
		c-4.236,0.658-8.527,0.915-12.823,1.28c-4.297,0.339-8.607,0.74-12.938,1.027c-4.338,0.135-8.689,0.272-13.056,0.408
		c-2.184,0.068-4.371,0.136-6.562,0.205c-0.208,0.005-0.638,0.024-0.893,0.013l-0.816-0.015l-1.633-0.032l-3.272-0.063
		c-4.365-0.084-8.743-0.17-13.134-0.254l-1.648-0.031l-1.662-0.113l-3.329-0.232c-2.222-0.154-4.446-0.311-6.674-0.467
		c-8.948-0.429-17.798-1.73-26.747-2.772c-17.796-2.688-35.745-6.06-53.405-11.244c-2.217-0.616-4.436-1.232-6.657-1.85
		l-1.667-0.463l-1.644-0.539l-3.288-1.091c-4.387-1.455-8.785-2.915-13.193-4.377c-4.362-1.587-8.679-3.333-13.037-4.999
		c-2.175-0.845-4.352-1.69-6.531-2.537c-2.136-0.951-4.274-1.901-6.415-2.854c-34.398-14.914-67.184-35.115-96.979-59.713
		c-3.667-3.145-7.34-6.294-11.018-9.448l-1.375-1.188l-1.321-1.25l-2.642-2.5l-5.29-5.008c-1.757-1.679-3.548-3.325-5.28-5.034
		l-5.06-5.269l-5.067-5.277l-2.535-2.641c-0.857-0.871-1.621-1.826-2.436-2.736c-3.213-3.683-6.43-7.37-9.651-11.061l-1.207-1.386
		c-0.394-0.47-0.765-0.957-1.148-1.436l-2.283-2.883l-4.57-5.773c-1.517-1.931-3.066-3.84-4.557-5.794l-4.299-5.998l-4.303-6.006
		l-2.153-3.006c-0.726-0.997-1.354-2.06-2.037-3.087c-2.677-4.144-5.357-8.293-8.04-12.445l-1.006-1.558l-0.932-1.604l-1.862-3.209
		l-3.724-6.425c-1.23-2.149-2.512-4.271-3.7-6.447l-3.416-6.609l-3.418-6.616l-1.707-3.312c-0.559-1.109-1.039-2.257-1.563-3.384
		c-2.053-4.526-4.107-9.057-6.164-13.591l-0.765-1.703l-0.687-1.735l-1.375-3.474l-2.75-6.95c-0.902-2.322-1.867-4.623-2.717-6.968
		l-2.409-7.085l-2.408-7.091l-1.204-3.547c-0.399-1.183-0.701-2.397-1.057-3.594c-1.37-4.805-2.741-9.612-4.113-14.421l-0.514-1.804
		l-0.431-1.826l-0.849-3.653l-1.698-7.313l-1.685-7.316l-1.331-7.394l-1.33-7.395c-0.42-2.47-0.953-4.922-1.215-7.416l-1.914-14.915
		c-0.149-1.244-0.342-2.484-0.454-3.732l-0.29-3.749l-0.58-7.5l-0.579-7.5c-0.121-1.249-0.149-2.503-0.177-3.757l-0.1-3.76
		l-0.386-15.179l0.394-14.846l0.098-3.712c0.028-1.235,0.055-2.47,0.176-3.737l0.578-7.55l0.583-7.548l0.293-3.774
		c0.112-1.254,0.305-2.489,0.453-3.735l1.914-14.915c0.263-2.494,0.795-4.946,1.215-7.415l1.33-7.395l1.331-7.393l1.685-7.317
		l1.697-7.312l0.849-3.654l0.432-1.825l0.514-1.804c1.371-4.809,2.742-9.616,4.113-14.421c0.355-1.197,0.658-2.41,1.057-3.593
		l1.204-3.547l2.408-7.091l2.408-7.085c0.85-2.344,1.815-4.645,2.717-6.968l2.75-6.95l1.375-3.473l0.687-1.736l0.765-1.703
		c2.058-4.532,4.114-9.062,6.168-13.588c0.526-1.126,1.009-2.272,1.571-3.379l1.709-3.311l3.418-6.616l3.416-6.609
		c1.187-2.175,2.469-4.297,3.699-6.447l3.724-6.424l1.862-3.21l0.932-1.603l1.005-1.558c2.683-4.152,5.363-8.3,8.04-12.444
		c0.682-1.027,1.31-2.09,2.037-3.087l2.152-3.006l4.303-6.006l4.298-5.998c1.491-1.953,3.041-3.862,4.557-5.793l4.569-5.773
		l2.283-2.883c0.384-0.478,0.755-0.966,1.148-1.435l1.208-1.385c3.22-3.691,6.437-7.379,9.649-11.061
		c0.816-0.91,1.58-1.865,2.436-2.736l2.536-2.641l5.066-5.277l5.06-5.268c1.731-1.709,3.522-3.356,5.279-5.034l5.289-5.008
		l2.643-2.501l1.32-1.249l1.376-1.188c3.68-3.15,7.355-6.296,11.025-9.438c29.792-24.596,62.575-44.797,96.97-59.711
		c2.14-0.952,4.278-1.903,6.414-2.853c2.179-0.847,4.356-1.693,6.53-2.538c4.358-1.666,8.674-3.412,13.037-4.999
		c4.407-1.463,8.804-2.922,13.191-4.378l3.288-1.09l1.644-0.54l1.666-0.463c2.222-0.617,4.44-1.233,6.656-1.848
		c17.659-5.186,35.607-8.557,53.402-11.246c8.945-1.042,17.811-2.345,26.711-2.772c2.22-0.155,4.436-0.31,6.649-0.465l3.318-0.232
		l1.655-0.114l1.66-0.032c4.422-0.086,8.832-0.172,13.229-0.257l3.294-0.064l1.645-0.031l0.822-0.016
		c0.259-0.012,0.681,0.012,0.889,0.016c2.175,0.068,4.348,0.135,6.516,0.203c4.337,0.136,8.659,0.271,12.97,0.406
		c4.331,0.285,8.665,0.688,12.974,1.026c4.309,0.366,8.619,0.625,12.849,1.282c4.244,0.565,8.473,1.128,12.688,1.689l3.157,0.421
		l3.128,0.577c2.082,0.385,4.162,0.769,6.237,1.152c2.075,0.384,4.146,0.766,6.214,1.148c2.063,0.404,4.143,0.704,6.171,1.235
		c4.076,0.966,8.137,1.928,12.183,2.887c2.021,0.489,4.046,0.937,6.05,1.458c1.987,0.577,3.973,1.153,5.953,1.728
		c3.96,1.15,7.905,2.296,11.834,3.437c3.899,1.237,7.729,2.636,11.571,3.937c1.918,0.662,3.831,1.322,5.741,1.981
		c0.951,0.338,1.915,0.64,2.854,1.006l2.805,1.124c30.03,11.583,57.637,26.25,82.343,42.918c1.585,0.981,3.057,2.121,4.57,3.19
		c1.504,1.083,3.004,2.163,4.5,3.24c2.979,2.17,5.992,4.261,8.897,6.463c2.854,2.27,5.691,4.527,8.513,6.772
		c1.41,1.122,2.817,2.241,4.22,3.357c0.694,0.565,1.415,1.098,2.087,1.688l2.013,1.764c10.803,9.298,21.053,18.739,30.415,28.564
		c18.83,19.549,34.705,39.944,47.905,60.189c1.622,2.55,3.23,5.08,4.827,7.589c0.798,1.254,1.592,2.503,2.383,3.747
		c0.782,1.25,1.472,2.547,2.208,3.81c1.448,2.54,2.884,5.058,4.308,7.555c0.711,1.248,1.42,2.49,2.125,3.727
		c0.703,1.239,1.431,2.457,2.043,3.73c2.556,5.033,5.065,9.976,7.527,14.826c0.641,1.2,1.167,2.448,1.726,3.674
		c0.554,1.228,1.104,2.449,1.651,3.665c1.096,2.432,2.181,4.839,3.255,7.222c2.252,4.723,3.982,9.55,5.846,14.202
		c0.917,2.333,1.823,4.64,2.72,6.921l0.671,1.707l0.589,1.725c0.387,1.148,0.771,2.29,1.154,3.425
		c1.53,4.541,3.025,8.978,4.483,13.304c1.288,4.381,2.466,8.676,3.656,12.846c9.278,33.462,12.251,60.743,13.432,79.247
		c0.173,2.316,0.336,4.497,0.489,6.54c0.166,2.043,0.128,3.958,0.196,5.727c0.086,3.541,0.157,6.521,0.215,8.919
		c0.115,4.799,0.175,7.275,0.175,7.275V511.056z M932.656,511.048c0,0-0.063-2.474-0.186-7.264
		c-0.062-2.396-0.138-5.371-0.228-8.905c-0.071-1.767-0.036-3.679-0.204-5.718c-0.155-2.04-0.321-4.217-0.498-6.53
		c-1.205-18.472-4.213-45.704-13.523-79.089c-1.193-4.161-2.376-8.446-3.668-12.816c-1.461-4.317-2.96-8.741-4.494-13.271
		c-0.383-1.133-0.769-2.272-1.156-3.417l-0.59-1.721l-0.673-1.702c-0.897-2.275-1.806-4.577-2.724-6.903
		c-1.867-4.64-3.6-9.455-5.854-14.164c-8.241-19.171-18.938-39.146-32.175-59.297c-13.241-20.142-29.147-40.416-47.988-59.828
		c-9.374-9.748-19.603-19.144-30.432-28.327l-2.016-1.746c-0.672-0.583-1.394-1.109-2.089-1.668
		c-1.404-1.103-2.813-2.209-4.225-3.318c-2.823-2.218-5.664-4.449-8.519-6.691c-2.906-2.176-5.921-4.239-8.901-6.381
		c-1.494-1.064-2.994-2.13-4.499-3.199c-1.513-1.055-2.984-2.181-4.568-3.147c-24.698-16.441-52.253-30.86-82.175-42.19l-2.793-1.1
		c-0.937-0.358-1.896-0.653-2.845-0.982c-1.901-0.643-3.808-1.288-5.718-1.934c-3.827-1.269-7.64-2.637-11.521-3.841
		c-3.911-1.11-7.838-2.224-11.78-3.342c-1.972-0.56-3.945-1.12-5.924-1.681c-1.993-0.506-4.01-0.938-6.02-1.411
		c-4.022-0.927-8.062-1.859-12.116-2.793c-2.017-0.516-4.086-0.8-6.137-1.188c-2.055-0.367-4.114-0.734-6.177-1.102
		c-2.063-0.368-4.13-0.736-6.2-1.106l-3.108-0.554l-3.137-0.399c-4.188-0.531-8.389-1.064-12.605-1.598
		c-4.207-0.628-8.467-0.855-12.729-1.192c-4.265-0.308-8.539-0.682-12.836-0.94c-4.31-0.108-8.634-0.216-12.972-0.325
		c-2.169-0.054-4.341-0.108-6.517-0.163c-2.151-0.005-4.344,0.095-6.519,0.137c-4.359,0.111-8.732,0.223-13.118,0.335l-1.645,0.041
		l-1.643,0.123l-3.288,0.251c-2.193,0.168-4.391,0.335-6.591,0.503c-8.82,0.475-17.602,1.825-26.459,2.91
		c-17.618,2.774-35.374,6.22-52.827,11.464c-2.19,0.623-4.382,1.246-6.578,1.87l-1.647,0.468l-1.624,0.545l-3.248,1.1
		c-4.333,1.467-8.677,2.938-13.03,4.412c-4.308,1.597-8.569,3.353-12.87,5.027c-2.146,0.849-4.295,1.698-6.446,2.549
		c-2.107,0.953-4.217,1.908-6.328,2.863c-33.935,14.962-66.217,35.135-95.493,59.608c-3.605,3.125-7.215,6.254-10.831,9.387
		l-1.354,1.178l-1.299,1.239l-2.6,2.48l-5.204,4.964c-1.728,1.664-3.491,3.296-5.194,4.989l-4.975,5.221l-4.982,5.228l-2.494,2.617
		c-0.842,0.862-1.593,1.809-2.394,2.71c-3.157,3.646-6.318,7.297-9.483,10.953l-1.187,1.371c-0.387,0.465-0.751,0.948-1.128,1.421
		l-2.242,2.855l-4.487,5.713c-1.49,1.912-3.012,3.8-4.476,5.733l-4.219,5.935l-4.222,5.942l-2.114,2.973
		c-0.713,0.985-1.328,2.037-1.997,3.053c-2.626,4.098-5.254,8.2-7.884,12.305l-0.987,1.54l-0.913,1.585l-1.823,3.173l-3.65,6.35
		c-1.205,2.125-2.462,4.222-3.625,6.371l-3.343,6.53l-3.345,6.536l-1.674,3.27c-0.55,1.094-1.021,2.226-1.536,3.338
		c-2.017,4.465-4.036,8.935-6.057,13.407l-0.752,1.679l-0.675,1.713l-1.35,3.426l-2.701,6.855c-0.886,2.291-1.835,4.56-2.669,6.871
		l-2.363,6.989l-2.364,6.992l-1.182,3.497c-0.392,1.167-0.688,2.364-1.036,3.544c-1.344,4.738-2.689,9.477-4.034,14.219
		l-0.505,1.778l-0.422,1.8l-0.83,3.603l-1.662,7.209l-1.653,7.213l-1.299,7.288l-1.3,7.29c-0.411,2.434-0.934,4.851-1.188,7.309
		l-1.865,14.702c-0.144,1.226-0.334,2.449-0.442,3.679l-0.28,3.692l-0.56,7.387l-0.56,7.387c-0.119,1.229-0.144,2.467-0.17,3.704
		l-0.093,3.712l-0.372,14.847l0.374,14.812l0.093,3.706c0.025,1.234,0.051,2.471,0.169,3.701l0.56,7.394l0.561,7.391l0.28,3.696
		c0.108,1.23,0.297,2.452,0.442,3.679l1.865,14.701c0.254,2.459,0.776,4.876,1.187,7.311l1.301,7.29l1.299,7.287l1.653,7.214
		l1.662,7.208l0.83,3.604l0.422,1.799l0.505,1.779c1.345,4.741,2.69,9.48,4.034,14.218c0.348,1.181,0.644,2.378,1.035,3.544
		l1.183,3.498l2.364,6.992l2.363,6.988c0.834,2.312,1.783,4.58,2.669,6.872l2.701,6.854l1.35,3.426l0.674,1.712l0.753,1.681
		c2.02,4.472,4.039,8.94,6.057,13.406c0.514,1.111,0.986,2.243,1.536,3.338l1.673,3.27l3.346,6.536l3.343,6.531
		c1.163,2.148,2.42,4.246,3.625,6.37l3.649,6.35l1.823,3.173l0.913,1.585l0.987,1.54c2.631,4.106,5.259,8.207,7.884,12.305
		c0.67,1.017,1.285,2.068,1.998,3.054l2.113,2.973l4.223,5.942l4.218,5.935c1.464,1.933,2.987,3.821,4.476,5.733l4.488,5.713
		l2.242,2.854c0.376,0.474,0.74,0.956,1.127,1.421l1.187,1.371c3.165,3.656,6.326,7.308,9.483,10.953
		c0.802,0.901,1.552,1.849,2.394,2.71l2.494,2.617l4.982,5.229l4.975,5.221c1.703,1.692,3.466,3.325,5.194,4.989l5.204,4.964
		l2.6,2.479l1.299,1.239l1.354,1.178c3.615,3.133,7.226,6.262,10.831,9.387c29.276,24.473,61.558,44.646,95.492,59.608
		c2.112,0.955,4.222,1.91,6.329,2.863c2.151,0.851,4.299,1.7,6.445,2.549c4.302,1.674,8.563,3.429,12.871,5.027
		c4.353,1.474,8.696,2.944,13.029,4.412l3.248,1.1l1.625,0.545l1.647,0.468c2.195,0.624,4.388,1.247,6.578,1.87
		c17.453,5.244,35.208,8.69,52.826,11.464c8.857,1.085,17.641,2.436,26.454,2.91c2.199,0.167,4.394,0.335,6.587,0.502l3.286,0.251
		l1.641,0.123l1.648,0.042c4.39,0.112,8.768,0.225,13.132,0.335c2.177,0.042,4.373,0.143,6.525,0.137
		c2.173-0.055,4.342-0.108,6.509-0.162c4.333-0.109,8.651-0.218,12.957-0.325c4.298-0.258,8.576-0.631,12.843-0.94
		c4.265-0.337,8.527-0.563,12.733-1.19c4.217-0.535,8.418-1.068,12.604-1.6l3.138-0.398l3.108-0.555
		c2.07-0.369,4.137-0.737,6.2-1.105c2.063-0.368,4.122-0.735,6.177-1.102c2.051-0.389,4.119-0.673,6.137-1.188
		c4.055-0.936,8.094-1.866,12.116-2.794c2.01-0.474,4.026-0.905,6.02-1.41c1.978-0.563,3.952-1.122,5.924-1.681
		c3.941-1.119,7.869-2.233,11.78-3.343c3.881-1.204,7.694-2.571,11.521-3.842c1.91-0.646,3.816-1.29,5.718-1.933
		c0.948-0.33,1.908-0.625,2.845-0.982l2.793-1.101c29.922-11.33,57.476-25.748,82.174-42.189c1.585-0.967,3.056-2.093,4.568-3.147
		c1.504-1.069,3.004-2.135,4.5-3.198c2.98-2.143,5.995-4.206,8.901-6.381c2.854-2.243,5.695-4.475,8.519-6.692
		c1.412-1.108,2.82-2.215,4.225-3.316c0.695-0.56,1.416-1.086,2.089-1.669l2.016-1.745c10.829-9.185,21.058-18.579,30.432-28.327
		c18.841-19.412,34.747-39.687,47.988-59.828c13.237-20.151,23.934-40.126,32.174-59.297c2.255-4.709,3.987-9.524,5.854-14.164
		c0.918-2.326,1.826-4.628,2.724-6.903l0.673-1.702l0.59-1.721c0.388-1.145,0.773-2.284,1.156-3.417
		c1.534-4.53,3.032-8.954,4.494-13.271c1.292-4.37,2.475-8.655,3.668-12.816c9.31-33.383,12.318-60.621,13.523-79.084
		c0.176-2.312,0.342-4.488,0.498-6.528c0.168-2.038,0.133-3.953,0.204-5.72c0.09-3.538,0.166-6.515,0.228-8.913
		c0.122-4.794,0.186-7.269,0.186-7.269V511.048z"/>
	<path clip-path="url(#SVGID_2_)" fill="#41A4DC" d="M269.816,216.835c0,12.201-9.891,22.091-22.091,22.091
		c-12.201,0-22.092-9.89-22.092-22.091c0-12.201,9.891-22.091,22.092-22.091C259.925,194.745,269.816,204.635,269.816,216.835"/>
	<path clip-path="url(#SVGID_2_)" fill="#59C2EF" d="M263.351,216.603c0,8.759-7.1,15.859-15.859,15.859
		c-8.759,0-15.859-7.1-15.859-15.859c0-8.759,7.1-15.859,15.859-15.859C256.251,200.744,263.351,207.844,263.351,216.603"/>
</g>
<g>
	<defs>
		<rect id="SVGID_3_" width="1000" height="1000"/>
	</defs>
	<clipPath id="SVGID_4_">
		<use xlink:href="#SVGID_3_"  overflow="visible"/>
	</clipPath>
	<path clip-path="url(#SVGID_4_)" fill="#E83E3C" d="M225.691,407.977c0,43.545-35.3,78.846-78.846,78.846
		C103.3,486.823,68,451.522,68,407.977s35.3-78.846,78.845-78.846C190.392,329.131,225.691,364.432,225.691,407.977"/>
	
		<circle clip-path="url(#SVGID_4_)" fill="none" stroke="#E83E3C" stroke-width="4" stroke-miterlimit="10" cx="146.846" cy="407.977" r="78.845"/>
	<path clip-path="url(#SVGID_4_)" fill="#FFFFFF" d="M102.652,445.127h88.388c1.058,0,1.917-0.796,1.917-1.778v-49.975
		c0-0.981-0.607-2.34-1.357-3.034l-10.812-10.029c-0.749-0.694-1.355-2.053-1.355-3.035v-6.42c0-0.982-0.859-1.777-1.917-1.777
		h-5.432c-1.058,0-1.917,0.795-1.917,1.777c0,0.982-0.628,1.237-1.406,0.57l-20.403-17.534c-0.776-0.667-2.037-0.669-2.815-0.004
		l-43.399,37.096c-0.779,0.665-1.409,2.001-1.409,2.983v49.382C100.735,444.331,101.593,445.127,102.652,445.127"/>
	<path clip-path="url(#SVGID_4_)" fill="none" stroke="#FFFFFF" stroke-width="8" stroke-miterlimit="10" d="M102.652,445.127
		h88.388c1.058,0,1.917-0.796,1.917-1.778v-49.975c0-0.981-0.607-2.34-1.357-3.034l-10.812-10.029
		c-0.749-0.694-1.355-2.053-1.355-3.035v-6.42c0-0.982-0.859-1.777-1.917-1.777h-5.432c-1.058,0-1.917,0.795-1.917,1.777
		c0,0.982-0.628,1.237-1.406,0.57l-20.403-17.534c-0.776-0.667-2.037-0.669-2.815-0.004l-43.399,37.096
		c-0.779,0.665-1.409,2.001-1.409,2.983v49.382C100.735,444.331,101.593,445.127,102.652,445.127z"/>
</g>
<g>
	<defs>
		<rect id="SVGID_5_" width="1000" height="1000"/>
	</defs>
	<clipPath id="SVGID_6_">
		<use xlink:href="#SVGID_5_"  overflow="visible"/>
	</clipPath>
	<path clip-path="url(#SVGID_6_)" fill="#0EBFD9" d="M596.527,107.641c0,43.545-35.301,78.846-78.847,78.846
		c-43.545,0-78.845-35.301-78.845-78.846s35.3-78.846,78.845-78.846C561.227,28.795,596.527,64.096,596.527,107.641"/>
	
		<circle clip-path="url(#SVGID_6_)" fill="none" stroke="#0EBFD9" stroke-width="4" stroke-miterlimit="10" cx="517.682" cy="107.641" r="78.846"/>
	<path clip-path="url(#SVGID_6_)" fill="#FFFFFF" d="M544.811,56.212c-10.375,0-20.083,4.697-26.548,12.565
		c-6.466-7.868-16.174-12.565-26.548-12.565c-18.956,0-34.378,15.423-34.378,34.379c0,14.843,8.85,32.011,26.306,51.03
		c13.434,14.635,28.047,25.966,32.207,29.09l2.412,1.814l2.413-1.813c4.157-3.125,18.771-14.456,32.206-29.09
		c17.457-19.018,26.308-36.186,26.308-51.03C579.188,71.635,563.766,56.212,544.811,56.212"/>
	<path clip-path="url(#SVGID_6_)" fill="none" stroke="#0EBFD9" stroke-width="5" stroke-miterlimit="10" d="M452.946,107.707
		h29.837c0.646,0,1.3-0.609,1.462-1.361l2.535-11.795c0.162-0.751,0.555-0.817,0.88-0.146l2.336,4.829
		c0.325,0.671,0.757,0.619,0.964-0.116l14.456-50.953c0.207-0.735,0.469-0.711,0.58,0.054l13.245,89.946
		c0.109,0.765,0.258,0.755,0.33-0.015l5.399-59.718c0.072-0.771,0.357-0.83,0.638-0.132l11.265,27.908
		c0.282,0.697,0.751,0.703,1.044,0.014l3.029-7.099c0.294-0.69,0.845-0.744,1.226-0.12l4.659,7.573
		c0.385,0.625,1.218,1.13,1.864,1.13h34.905"/>
	<path clip-path="url(#SVGID_6_)" fill="#FAAF4B" d="M596.527,897.259c0,43.545-35.301,78.846-78.847,78.846
		c-43.545,0-78.845-35.301-78.845-78.846s35.3-78.847,78.845-78.847C561.227,818.412,596.527,853.714,596.527,897.259"/>
	
		<circle clip-path="url(#SVGID_6_)" fill="none" stroke="#FAAF4B" stroke-width="4" stroke-miterlimit="10" cx="517.682" cy="897.259" r="78.846"/>
</g>
<g>
	<defs>
		<rect id="SVGID_7_" width="1000" height="1000"/>
	</defs>
	<clipPath id="SVGID_8_">
		<use xlink:href="#SVGID_7_"  overflow="visible"/>
	</clipPath>
	<path clip-path="url(#SVGID_8_)" fill="#FFFFFF" d="M981.676,445.127c0,43.545-35.301,78.847-78.847,78.847
		c-43.545,0-78.845-35.301-78.845-78.847c0-43.545,35.3-78.846,78.845-78.846C946.375,366.281,981.676,401.582,981.676,445.127"/>
	
		<circle clip-path="url(#SVGID_8_)" fill="none" stroke="#FFFFFF" stroke-width="4" stroke-miterlimit="10" cx="902.83" cy="445.127" r="78.846"/>
	<path clip-path="url(#SVGID_8_)" fill="#515254" d="M913.117,506.643h-9.406c-0.998,0-1.809-1.494-1.809-3.339v-78.467
		c0-1.844,0.811-3.34,1.809-3.34h9.406c0.998,0,1.808,1.495,1.808,3.34v78.467C914.926,505.148,914.116,506.643,913.117,506.643"/>
	<path clip-path="url(#SVGID_8_)" fill="none" stroke="#FFFFFF" stroke-width="1.5" stroke-miterlimit="10" d="M913.117,506.643
		h-9.406c-0.998,0-1.809-1.494-1.809-3.339v-78.467c0-1.844,0.811-3.34,1.809-3.34h9.406c0.998,0,1.808,1.495,1.808,3.34v78.467
		C914.926,505.148,914.116,506.643,913.117,506.643z"/>
	<path clip-path="url(#SVGID_8_)" fill="#515254" d="M902.789,500.634h-8.861c-0.369,0-0.669-0.3-0.669-0.669v-2.675
		c0-0.369,0.3-0.668,0.669-0.668h3.316c0.369,0,0.669-0.3,0.669-0.669v-2.731c0-0.369-0.3-0.669-0.669-0.669h-3.316
		c-0.369,0-0.669-0.3-0.669-0.669v-2.619c0-0.369,0.3-0.669,0.669-0.669h8.861"/>
	<path clip-path="url(#SVGID_8_)" fill="none" stroke="#FFFFFF" stroke-width="1.5" stroke-miterlimit="10" d="M902.789,500.634
		h-8.861c-0.369,0-0.669-0.3-0.669-0.669v-2.675c0-0.369,0.3-0.668,0.669-0.668h3.316c0.369,0,0.669-0.3,0.669-0.669v-2.731
		c0-0.369-0.3-0.669-0.669-0.669h-3.316c-0.369,0-0.669-0.3-0.669-0.669v-2.619c0-0.369,0.3-0.669,0.669-0.669h8.861"/>
	<path clip-path="url(#SVGID_8_)" fill="#515254" d="M902.482,500.634h-8.603c-0.357,0-0.648-0.3-0.648-0.669v-2.675
		c0-0.369,0.291-0.668,0.648-0.668h3.22c0.357,0,0.648-0.3,0.648-0.669v-2.731c0-0.368-0.29-0.668-0.648-0.668h-3.22
		c-0.357,0-0.648-0.3-0.648-0.669v-2.619c0-0.37,0.291-0.669,0.648-0.669h8.603"/>
	<path clip-path="url(#SVGID_8_)" fill="none" stroke="#FFFFFF" stroke-width="1.5" stroke-miterlimit="10" d="M902.482,500.634
		h-8.603c-0.357,0-0.648-0.3-0.648-0.669v-2.675c0-0.369,0.291-0.668,0.648-0.668h3.22c0.357,0,0.648-0.3,0.648-0.669v-2.731
		c0-0.368-0.29-0.668-0.648-0.668h-3.22c-0.357,0-0.648-0.3-0.648-0.669v-2.619c0-0.37,0.291-0.669,0.648-0.669h8.603"/>
	<path clip-path="url(#SVGID_8_)" fill="#515254" d="M884.874,387.272v21.703c0,0.738,0.429,1.753,0.958,2.267l21.959,21.345
		c0.528,0.515,1.382,0.511,1.907-0.007l22.306-21.999c0.527-0.518,0.952-1.535,0.952-2.273v-21.036c0-0.737-0.598-1.336-1.336-1.336
		h-45.411C885.471,385.936,884.874,386.535,884.874,387.272"/>
	<path clip-path="url(#SVGID_8_)" fill="#515254" d="M919.767,399.797h-21.703c-0.738,0-1.336-0.598-1.336-1.337v-4.34
		c0-0.738,0.598-1.336,1.336-1.336h21.703c0.738,0,1.336,0.598,1.336,1.336v4.34C921.104,399.2,920.506,399.797,919.767,399.797"/>
	<path clip-path="url(#SVGID_8_)" fill="none" stroke="#FFFFFF" stroke-width="1.5" stroke-miterlimit="10" d="M919.767,399.797
		h-21.703c-0.738,0-1.336-0.598-1.336-1.337v-4.34c0-0.738,0.598-1.336,1.336-1.336h21.703c0.738,0,1.336,0.598,1.336,1.336v4.34
		C921.104,399.2,920.506,399.797,919.767,399.797z"/>
</g>
<g>
	<defs>
		<rect id="SVGID_9_" width="1000" height="1000"/>
	</defs>
	<clipPath id="SVGID_10_">
		<use xlink:href="#SVGID_9_"  overflow="visible"/>
	</clipPath>
	<path clip-path="url(#SVGID_10_)" fill="none" stroke="#FFFFFF" stroke-width="4" stroke-miterlimit="10" d="M559.166,952.514
		h-78.087c-9.103,0-16.482-7.379-16.482-16.483v-78.086c0-9.104,7.379-16.482,16.482-16.482h78.087
		c9.103,0,16.482,7.379,16.482,16.482v78.086C575.648,945.135,568.269,952.514,559.166,952.514z"/>
	<g clip-path="url(#SVGID_10_)" enable-background="new    ">
		<g>
			<defs>
				<rect id="SVGID_11_" x="486.644" y="830.942" width="70.691" height="144.44"/>
			</defs>
			<clipPath id="SVGID_12_">
				<use xlink:href="#SVGID_11_"  overflow="visible"/>
			</clipPath>
			<g clip-path="url(#SVGID_12_)">
				<text transform="matrix(1 0 0 1 486.6436 942.1631)" fill="#FFFFFF" font-family="'MyriadPro-Regular'" font-size="132.8799">P</text>
			</g>
		</g>
	</g>
</g>
<g>
	<defs>
		<rect id="SVGID_13_" width="1000" height="1000"/>
	</defs>
	<clipPath id="SVGID_14_">
		<use xlink:href="#SVGID_13_"  overflow="visible"/>
	</clipPath>
	<path clip-path="url(#SVGID_14_)" fill="#41A4DC" d="M847.79,238.927c0,12.201-9.892,22.091-22.092,22.091
		s-22.092-9.89-22.092-22.091c0-12.201,9.892-22.091,22.092-22.091S847.79,226.726,847.79,238.927"/>
	<path clip-path="url(#SVGID_14_)" fill="#59C2EF" d="M841.324,238.694c0,8.759-7.1,15.859-15.858,15.859s-15.859-7.1-15.859-15.859
		c0-8.759,7.101-15.859,15.859-15.859S841.324,229.936,841.324,238.694"/>
	<path clip-path="url(#SVGID_14_)" fill="#41A4DC" d="M837.698,791.21c0,12.2-9.892,22.091-22.091,22.091
		c-12.201,0-22.092-9.891-22.092-22.091c0-12.201,9.891-22.092,22.092-22.092C827.807,769.118,837.698,779.009,837.698,791.21"/>
	<path clip-path="url(#SVGID_14_)" fill="#59C2EF" d="M831.233,790.978c0,8.759-7.101,15.858-15.859,15.858
		s-15.859-7.1-15.859-15.858c0-8.76,7.101-15.859,15.859-15.859S831.233,782.218,831.233,790.978"/>
	<path clip-path="url(#SVGID_14_)" fill="#41A4DC" d="M253.725,779.744c0,12.201-9.891,22.092-22.091,22.092
		c-12.201,0-22.092-9.891-22.092-22.092c0-12.2,9.891-22.091,22.092-22.091C243.833,757.653,253.725,767.544,253.725,779.744"/>
	<path clip-path="url(#SVGID_14_)" fill="#59C2EF" d="M247.259,779.512c0,8.759-7.1,15.859-15.859,15.859
		c-8.759,0-15.859-7.101-15.859-15.859s7.1-15.858,15.859-15.858C240.16,763.653,247.259,770.753,247.259,779.512"/>
</g>
<path fill="none" stroke="#FFFFFF" stroke-width="21" stroke-miterlimit="10" d="M332.548,400.793
	c106.216-106.216,278.422-106.216,384.638,0"/>
<path fill="none" stroke="#FFFFFF" stroke-width="21" stroke-miterlimit="10" d="M380.186,445.699
	c80.969-80.967,212.241-80.97,293.208,0"/>
<path fill="none" stroke="#FFFFFF" stroke-width="21" stroke-miterlimit="10" d="M440.212,507.461
	c47.302-47.308,124.003-47.302,171.308,0.002"/>
<circle fill="#FFFFFF" stroke="#FFFFFF" stroke-width="9" stroke-miterlimit="10" cx="524.867" cy="566.391" r="45.893"/>
</svg>
