<?xml version="1.0" encoding="utf-8"?>
<!-- Generator: Adobe Illustrator 16.0.0, SVG Export Plug-In . SVG Version: 6.00 Build 0)  -->
<!DOCTYPE svg PUBLIC "-//W3C//DTD SVG 1.1//EN" "http://www.w3.org/Graphics/SVG/1.1/DTD/svg11.dtd">
<svg version="1.1" id="Layer_1" xmlns="http://www.w3.org/2000/svg" xmlns:xlink="http://www.w3.org/1999/xlink" x="0px" y="0px"
	 width="923.954px" height="979.066px" viewBox="0 0 923.954 979.066" enable-background="new 0 0 923.954 979.066"
	 xml:space="preserve">
<g>
	<defs>
		<rect id="SVGID_1_" x="-16.112" y="-19" width="913.07" height="913.07"/>
	</defs>
	<clipPath id="SVGID_2_">
		<use xlink:href="#SVGID_1_"  overflow="visible"/>
	</clipPath>
	<path clip-path="url(#SVGID_2_)" fill="#0B0E0E" d="M836.016,447.63c0,0-0.054,2.258-0.159,6.637
		c-0.053,2.188-0.118,4.907-0.195,8.138c-0.063,1.615-0.028,3.36-0.18,5.227c-0.14,1.866-0.288,3.858-0.446,5.975
		c-1.079,16.904-3.792,41.808-12.264,72.362c-1.087,3.808-2.163,7.729-3.339,11.729c-1.332,3.952-2.696,8.001-4.093,12.147
		c-0.351,1.037-0.702,2.079-1.055,3.129l-0.538,1.575l-0.612,1.558c-0.818,2.084-1.646,4.189-2.483,6.32
		c-1.701,4.247-3.281,8.655-5.338,12.966c-0.98,2.176-1.971,4.375-2.971,6.595c-0.5,1.109-1.003,2.227-1.509,3.347
		c-0.507,1.12-0.987,2.261-1.572,3.355c-2.248,4.429-4.54,8.942-6.873,13.538c-0.56,1.162-1.224,2.274-1.866,3.405
		c-0.644,1.13-1.291,2.265-1.939,3.403c-1.301,2.279-2.611,4.579-3.934,6.898c-0.672,1.153-1.302,2.338-2.016,3.479
		c-0.722,1.136-1.447,2.276-2.176,3.421c-1.457,2.291-2.926,4.602-4.407,6.93c-12.053,18.485-26.548,37.109-43.74,54.959
		c-8.552,8.967-17.903,17.595-27.768,26.085l-1.838,1.611c-0.613,0.538-1.271,1.025-1.905,1.541
		c-1.281,1.02-2.564,2.041-3.854,3.065c-2.576,2.051-5.167,4.111-7.773,6.184c-2.65,2.012-5.403,3.919-8.123,5.901
		c-1.366,0.983-2.735,1.97-4.108,2.959c-1.384,0.978-2.727,2.018-4.173,2.913c-22.56,15.221-47.767,28.613-75.188,39.191
		l-2.561,1.027c-0.857,0.333-1.736,0.609-2.606,0.918c-1.744,0.603-3.49,1.205-5.242,1.81c-3.508,1.188-7.005,2.466-10.564,3.595
		c-3.588,1.042-7.189,2.089-10.806,3.139c-1.81,0.524-3.621,1.052-5.437,1.579c-1.829,0.476-3.681,0.883-5.523,1.331
		c-3.695,0.875-7.402,1.755-11.124,2.637c-1.854,0.484-3.752,0.759-5.636,1.128c-1.889,0.349-3.778,0.698-5.674,1.049
		c-1.896,0.349-3.794,0.699-5.695,1.051l-2.856,0.527l-2.883,0.385c-3.849,0.513-7.709,1.026-11.585,1.543
		c-3.868,0.601-7.786,0.835-11.708,1.169c-3.924,0.31-7.859,0.676-11.813,0.938c-3.961,0.123-7.935,0.249-11.922,0.373
		c-1.993,0.063-3.99,0.124-5.99,0.188c-0.189,0.004-0.582,0.022-0.815,0.012l-0.745-0.014l-1.491-0.029l-2.987-0.058
		c-3.986-0.076-7.983-0.155-11.992-0.231l-1.506-0.028l-1.518-0.104l-3.039-0.212c-2.029-0.142-4.06-0.284-6.094-0.427
		c-8.17-0.392-16.251-1.58-24.422-2.531c-16.249-2.455-32.638-5.533-48.763-10.267c-2.024-0.563-4.05-1.126-6.078-1.689
		l-1.522-0.422l-1.501-0.492l-3.002-0.996c-4.006-1.329-8.021-2.662-12.046-3.997c-3.983-1.448-7.925-3.043-11.904-4.564
		c-1.986-0.771-3.974-1.543-5.963-2.316c-1.95-0.868-3.902-1.736-5.857-2.605c-31.408-13.617-61.343-32.063-88.548-54.521
		c-3.349-2.872-6.702-5.747-10.06-8.627l-1.256-1.086l-1.206-1.141l-2.413-2.283l-4.83-4.572c-1.604-1.533-3.24-3.036-4.821-4.597
		l-4.62-4.811l-4.626-4.818l-2.315-2.411c-0.782-0.796-1.48-1.668-2.224-2.499c-2.934-3.362-5.871-6.729-8.812-10.099l-1.102-1.266
		c-0.36-0.429-0.699-0.873-1.048-1.311l-2.084-2.632l-4.173-5.271c-1.385-1.763-2.799-3.506-4.161-5.291l-3.925-5.477l-3.929-5.483
		l-1.966-2.744c-0.663-0.911-1.236-1.881-1.86-2.819c-2.444-3.783-4.891-7.571-7.341-11.363l-0.918-1.422l-0.851-1.464l-1.7-2.931
		l-3.4-5.866c-1.123-1.962-2.293-3.9-3.378-5.887l-3.119-6.035l-3.121-6.041l-1.559-3.023c-0.51-1.013-0.949-2.061-1.427-3.09
		c-1.875-4.133-3.75-8.269-5.628-12.409l-0.699-1.555l-0.627-1.585l-1.255-3.172l-2.511-6.346c-0.824-2.12-1.705-4.221-2.481-6.362
		l-2.2-6.469l-2.198-6.475l-1.1-3.238c-0.365-1.08-0.64-2.189-0.965-3.281c-1.251-4.387-2.503-8.777-3.755-13.167l-0.47-1.647
		l-0.394-1.667l-0.775-3.336l-1.55-6.677l-1.539-6.681l-1.215-6.751l-1.214-6.752c-0.383-2.255-0.87-4.493-1.109-6.771
		l-1.748-13.619c-0.136-1.136-0.312-2.269-0.415-3.407l-0.265-3.424l-0.529-6.848l-0.529-6.848
		c-0.111-1.141-0.136-2.286-0.162-3.431l-0.091-3.433l-0.352-13.859l0.36-13.556l0.089-3.39c0.025-1.128,0.05-2.255,0.161-3.412
		l0.528-6.894l0.532-6.892l0.268-3.446c0.102-1.145,0.278-2.272,0.414-3.41l1.747-13.619c0.24-2.277,0.726-4.516,1.109-6.771
		l1.215-6.752l1.215-6.75l1.539-6.681l1.55-6.676l0.775-3.336l0.395-1.667l0.469-1.647c1.252-4.391,2.504-8.78,3.755-13.167
		c0.324-1.093,0.601-2.201,0.965-3.28l1.099-3.239l2.199-6.475l2.198-6.469c0.776-2.141,1.657-4.241,2.481-6.362l2.511-6.346
		l1.255-3.171l0.627-1.585l0.698-1.555c1.879-4.138,3.757-8.274,5.632-12.406c0.48-1.028,0.922-2.075,1.435-3.085l1.561-3.023
		l3.121-6.041l3.119-6.035c1.083-1.986,2.254-3.923,3.377-5.886l3.4-5.866l1.7-2.931l0.851-1.464l0.917-1.422
		c2.45-3.792,4.897-7.579,7.341-11.363c0.623-0.938,1.196-1.908,1.86-2.818l1.965-2.745l3.929-5.484l3.924-5.476
		c1.362-1.783,2.777-3.526,4.161-5.29l4.172-5.271l2.084-2.632c0.351-0.437,0.689-0.882,1.048-1.311l1.103-1.265
		c2.939-3.37,5.877-6.738,8.81-10.099c0.745-0.831,1.443-1.703,2.224-2.499l2.316-2.411l4.625-4.818l4.62-4.811
		c1.581-1.56,3.216-3.064,4.82-4.596l4.83-4.573l2.413-2.284l1.205-1.14l1.256-1.085c3.36-2.876,6.716-5.749,10.066-8.617
		c27.202-22.458,57.136-40.903,88.541-54.521c1.954-0.869,3.906-1.737,5.856-2.605c1.99-0.773,3.978-1.546,5.962-2.317
		c3.979-1.521,7.92-3.115,11.904-4.564c4.024-1.336,8.039-2.668,12.044-3.998l3.002-0.995l1.501-0.493l1.521-0.422
		c2.029-0.563,4.054-1.126,6.078-1.688c16.124-4.735,32.512-7.813,48.76-10.269c8.167-0.952,16.263-2.141,24.389-2.531
		c2.027-0.142,4.051-0.283,6.071-0.425l3.03-0.212l1.511-0.104l1.516-0.029c4.038-0.079,8.064-0.157,12.079-0.235l3.008-0.059
		l1.501-0.028l0.751-0.015c0.236-0.011,0.621,0.011,0.812,0.015c1.985,0.062,3.97,0.123,5.949,0.186
		c3.96,0.124,7.906,0.248,11.842,0.371c3.955,0.26,7.912,0.628,11.846,0.937c3.935,0.334,7.87,0.571,11.732,1.171
		c3.875,0.516,7.735,1.03,11.584,1.542l2.883,0.384l2.856,0.527c1.9,0.352,3.8,0.703,5.695,1.052c1.895,0.351,3.785,0.7,5.673,1.048
		c1.884,0.369,3.783,0.643,5.635,1.128c3.722,0.882,7.43,1.76,11.124,2.636c1.845,0.447,3.694,0.855,5.523,1.332
		c1.814,0.527,3.628,1.053,5.436,1.578c3.616,1.05,7.219,2.096,10.806,3.138c3.561,1.13,7.058,2.407,10.565,3.595
		c1.751,0.604,3.498,1.207,5.242,1.809c0.868,0.309,1.748,0.585,2.605,0.918l2.561,1.026c27.42,10.576,52.627,23.968,75.185,39.187
		c1.447,0.896,2.791,1.937,4.173,2.913c1.374,0.989,2.743,1.975,4.109,2.958c2.721,1.981,5.471,3.891,8.124,5.901
		c2.605,2.073,5.196,4.134,7.772,6.184c1.288,1.024,2.572,2.046,3.853,3.065c0.635,0.516,1.292,1.002,1.906,1.541l1.837,1.611
		c9.864,8.49,19.223,17.11,27.771,26.081c17.193,17.85,31.688,36.472,43.741,54.957c1.48,2.329,2.949,4.639,4.407,6.93
		c0.729,1.145,1.453,2.286,2.176,3.421c0.714,1.142,1.344,2.326,2.016,3.479c1.322,2.319,2.634,4.618,3.934,6.898
		c0.649,1.14,1.297,2.273,1.94,3.403c0.642,1.131,1.306,2.244,1.865,3.406c2.333,4.595,4.625,9.109,6.873,13.538
		c0.585,1.095,1.065,2.235,1.575,3.354c0.506,1.121,1.008,2.236,1.508,3.346c1.001,2.221,1.991,4.418,2.973,6.595
		c2.056,4.312,3.636,8.719,5.337,12.967c0.838,2.13,1.665,4.237,2.483,6.319l0.612,1.559l0.538,1.575
		c0.354,1.048,0.704,2.091,1.054,3.127c1.397,4.146,2.763,8.197,4.094,12.148c1.176,4,2.252,7.922,3.339,11.729
		c8.472,30.553,11.186,55.462,12.264,72.358c0.158,2.115,0.307,4.106,0.446,5.972c0.152,1.865,0.117,3.614,0.18,5.229
		c0.078,3.233,0.144,5.954,0.196,8.144c0.105,4.382,0.159,6.643,0.159,6.643V447.63z M835.469,447.623c0,0-0.059-2.258-0.17-6.632
		c-0.056-2.187-0.126-4.903-0.208-8.131c-0.064-1.614-0.032-3.359-0.186-5.221c-0.143-1.863-0.294-3.85-0.455-5.962
		c-1.101-16.866-3.847-41.731-12.348-72.213c-1.09-3.8-2.17-7.712-3.35-11.703c-1.334-3.941-2.702-7.98-4.104-12.117
		c-0.35-1.034-0.701-2.074-1.056-3.12l-0.538-1.571l-0.614-1.554c-0.819-2.077-1.649-4.179-2.487-6.303
		c-1.705-4.237-3.287-8.633-5.345-12.933c-7.524-17.504-17.291-35.743-29.378-54.142c-12.09-18.391-26.613-36.903-43.816-54.627
		c-8.56-8.9-17.898-17.479-27.786-25.865l-1.841-1.594c-0.613-0.532-1.272-1.012-1.907-1.523c-1.282-1.007-2.567-2.017-3.857-3.029
		c-2.577-2.025-5.172-4.063-7.777-6.109c-2.654-1.987-5.406-3.871-8.128-5.827c-1.364-0.971-2.734-1.945-4.108-2.92
		c-1.381-0.963-2.725-1.992-4.171-2.874c-22.551-15.012-47.711-28.177-75.031-38.522l-2.55-1.004
		c-0.855-0.327-1.731-0.596-2.598-0.896c-1.736-0.587-3.477-1.176-5.221-1.766c-3.495-1.159-6.976-2.408-10.521-3.507
		c-3.57-1.014-7.156-2.031-10.756-3.052c-1.801-0.511-3.603-1.023-5.409-1.535c-1.819-0.462-3.661-0.856-5.496-1.289
		c-3.673-0.846-7.36-1.698-11.063-2.55c-1.842-0.471-3.731-0.731-5.604-1.085c-1.876-0.335-3.757-0.67-5.64-1.006
		c-1.885-0.336-3.771-0.672-5.661-1.01l-2.839-0.506l-2.863-0.364c-3.824-0.485-7.66-0.972-11.51-1.459
		c-3.842-0.574-7.731-0.781-11.623-1.088c-3.895-0.282-7.797-0.623-11.721-0.858c-3.935-0.099-7.883-0.197-11.844-0.297
		c-1.98-0.049-3.963-0.099-5.95-0.149c-1.964-0.004-3.966,0.087-5.952,0.125c-3.98,0.102-7.973,0.204-11.978,0.306l-1.501,0.038
		l-1.5,0.112l-3.002,0.229c-2.004,0.153-4.01,0.306-6.019,0.459c-8.053,0.434-16.072,1.667-24.159,2.657
		c-16.087,2.533-32.299,5.679-48.235,10.467c-2,0.569-4.001,1.138-6.006,1.708l-1.504,0.427l-1.483,0.498l-2.966,1.004
		c-3.956,1.34-7.923,2.683-11.897,4.029c-3.933,1.458-7.824,3.062-11.751,4.59c-1.959,0.775-3.921,1.55-5.885,2.328
		c-1.924,0.87-3.85,1.742-5.778,2.614c-30.985,13.662-60.461,32.081-87.192,54.426c-3.292,2.854-6.588,5.71-9.889,8.571
		l-1.236,1.076l-1.187,1.131l-2.374,2.264l-4.752,4.533c-1.578,1.519-3.188,3.009-4.742,4.555l-4.542,4.767l-4.549,4.773
		l-2.277,2.39c-0.769,0.787-1.455,1.652-2.186,2.475c-2.883,3.329-5.769,6.662-8.659,10.001l-1.083,1.251
		c-0.354,0.425-0.686,0.866-1.03,1.297l-2.047,2.607l-4.097,5.216c-1.36,1.746-2.75,3.47-4.087,5.234l-3.853,5.419l-3.854,5.425
		l-1.931,2.715c-0.651,0.899-1.212,1.86-1.823,2.787c-2.398,3.742-4.797,7.487-7.198,11.235l-0.901,1.406l-0.833,1.447l-1.665,2.897
		l-3.333,5.798c-1.1,1.94-2.248,3.855-3.31,5.817l-3.052,5.962l-3.055,5.967l-1.528,2.986c-0.502,0.999-0.932,2.033-1.402,3.048
		c-1.842,4.077-3.686,8.158-5.531,12.242l-0.687,1.533l-0.616,1.564l-1.233,3.128l-2.466,6.259
		c-0.809,2.092-1.675,4.164-2.437,6.274l-2.157,6.381l-2.159,6.384l-1.08,3.193c-0.357,1.065-0.627,2.158-0.945,3.236
		c-1.228,4.327-2.455,8.653-3.684,12.983l-0.461,1.624l-0.385,1.644l-0.758,3.29l-1.518,6.583l-1.509,6.586l-1.187,6.654
		l-1.187,6.656c-0.375,2.223-0.853,4.429-1.085,6.674l-1.703,13.424c-0.131,1.119-0.305,2.235-0.403,3.359l-0.255,3.371
		l-0.512,6.745l-0.511,6.745c-0.109,1.122-0.131,2.252-0.155,3.382l-0.085,3.39l-0.339,13.556l0.342,13.524l0.084,3.384
		c0.023,1.127,0.046,2.256,0.154,3.38l0.511,6.75l0.512,6.748l0.256,3.375c0.098,1.124,0.271,2.239,0.403,3.359l1.703,13.423
		c0.232,2.245,0.708,4.452,1.084,6.676l1.188,6.656l1.186,6.653l1.509,6.587l1.518,6.581l0.758,3.29l0.385,1.643l0.461,1.625
		c1.228,4.329,2.456,8.656,3.683,12.981c0.318,1.078,0.588,2.172,0.945,3.236l1.08,3.193l2.159,6.385l2.157,6.381
		c0.762,2.11,1.628,4.182,2.437,6.274l2.466,6.259l1.233,3.128l0.615,1.563l0.688,1.534c1.844,4.083,3.688,8.163,5.53,12.241
		c0.47,1.015,0.9,2.048,1.403,3.048l1.527,2.985l3.055,5.968l3.052,5.963c1.062,1.962,2.209,3.877,3.31,5.816l3.332,5.798
		l1.665,2.897l0.833,1.447l0.901,1.405c2.402,3.75,4.802,7.494,7.199,11.235c0.611,0.929,1.173,1.889,1.824,2.788l1.93,2.715
		l3.856,5.426l3.851,5.418c1.336,1.765,2.727,3.489,4.087,5.235l4.098,5.217l2.047,2.606c0.343,0.432,0.675,0.872,1.029,1.297
		l1.084,1.252c2.89,3.338,5.776,6.672,8.659,10.001c0.732,0.823,1.417,1.688,2.186,2.475l2.277,2.39l4.549,4.773l4.542,4.768
		c1.555,1.545,3.165,3.036,4.742,4.555l4.752,4.533l2.374,2.264l1.187,1.132l1.236,1.075c3.3,2.86,6.598,5.717,9.889,8.57
		c26.731,22.346,56.207,40.765,87.191,54.427c1.929,0.872,3.855,1.744,5.779,2.614c1.964,0.776,3.925,1.553,5.884,2.327
		c3.929,1.528,7.819,3.131,11.752,4.591c3.975,1.346,7.94,2.688,11.896,4.028l2.966,1.004l1.484,0.498l1.504,0.427
		c2.004,0.569,4.006,1.139,6.006,1.708c15.936,4.788,32.147,7.935,48.234,10.467c8.087,0.991,16.107,2.224,24.154,2.657
		c2.008,0.152,4.012,0.306,6.015,0.458l3.001,0.229l1.498,0.112l1.505,0.038c4.008,0.103,8.005,0.205,11.99,0.307
		c1.987,0.038,3.993,0.13,5.958,0.124c1.984-0.05,3.965-0.099,5.943-0.147c3.956-0.1,7.898-0.199,11.83-0.297
		c3.925-0.235,7.831-0.576,11.727-0.859c3.895-0.308,7.786-0.514,11.627-1.087c3.85-0.488,7.686-0.976,11.509-1.46l2.864-0.364
		l2.839-0.506c1.89-0.338,3.776-0.674,5.661-1.01c1.883-0.336,3.764-0.672,5.64-1.006c1.872-0.354,3.761-0.614,5.604-1.084
		c3.702-0.854,7.39-1.704,11.063-2.552c1.835-0.432,3.677-0.826,5.496-1.287c1.806-0.514,3.608-1.024,5.409-1.534
		c3.599-1.022,7.186-2.04,10.756-3.053c3.544-1.1,7.025-2.348,10.521-3.508c1.744-0.589,3.484-1.178,5.221-1.765
		c0.865-0.301,1.742-0.57,2.598-0.896l2.55-1.005c27.32-10.346,52.479-23.51,75.03-38.522c1.447-0.883,2.79-1.911,4.171-2.874
		c1.374-0.976,2.743-1.949,4.109-2.92c2.722-1.956,5.474-3.841,8.128-5.826c2.605-2.048,5.2-4.086,7.777-6.11
		c1.29-1.013,2.575-2.022,3.857-3.028c0.635-0.511,1.293-0.991,1.907-1.523l1.841-1.594c9.888-8.387,19.227-16.964,27.786-25.865
		c17.203-17.725,31.727-36.236,43.816-54.627c12.087-18.399,21.854-36.638,29.377-54.143c2.059-4.299,3.641-8.696,5.346-12.933
		c0.838-2.124,1.668-4.226,2.487-6.303l0.614-1.555l0.538-1.57c0.354-1.046,0.706-2.086,1.056-3.12
		c1.401-4.137,2.769-8.176,4.104-12.117c1.18-3.99,2.26-7.903,3.35-11.702c8.5-30.481,11.247-55.352,12.348-72.209
		c0.16-2.111,0.313-4.099,0.455-5.961c0.153-1.861,0.121-3.609,0.186-5.223c0.082-3.23,0.152-5.948,0.208-8.139
		c0.111-4.377,0.17-6.637,0.17-6.637V447.623z"/>
	<path clip-path="url(#SVGID_2_)" fill="#41A4DC" d="M230.249,178.986c0,11.141-9.031,20.171-20.171,20.171
		c-11.14,0-20.171-9.03-20.171-20.171c0-11.14,9.031-20.17,20.171-20.17C221.218,158.815,230.249,167.846,230.249,178.986"/>
	<path clip-path="url(#SVGID_2_)" fill="#59C2EF" d="M224.346,178.774c0,7.998-6.483,14.48-14.48,14.48s-14.48-6.482-14.48-14.48
		s6.483-14.48,14.48-14.48S224.346,170.776,224.346,178.774"/>
</g>
<g>
	<defs>
		<rect id="SVGID_3_" x="-16.112" y="-19" width="913.07" height="913.07"/>
	</defs>
	<clipPath id="SVGID_4_">
		<use xlink:href="#SVGID_3_"  overflow="visible"/>
	</clipPath>
	<path clip-path="url(#SVGID_4_)" fill="#E83E3C" d="M189.96,353.512c0,39.76-32.231,71.992-71.992,71.992
		c-39.76,0-71.991-32.232-71.991-71.992s32.231-71.992,71.991-71.992C157.729,281.52,189.96,313.752,189.96,353.512"/>
	
		<circle clip-path="url(#SVGID_4_)" fill="none" stroke="#E83E3C" stroke-width="4" stroke-miterlimit="10" cx="117.969" cy="353.512" r="71.991"/>
	<path clip-path="url(#SVGID_4_)" fill="#FFFFFF" d="M77.616,387.432h80.705c0.965,0,1.75-0.727,1.75-1.623v-45.631
		c0-0.896-0.554-2.137-1.239-2.77l-9.872-9.157c-0.684-0.634-1.237-1.875-1.237-2.771v-5.862c0-0.897-0.784-1.623-1.75-1.623h-4.959
		c-0.966,0-1.75,0.726-1.75,1.623c0,0.896-0.574,1.129-1.284,0.52l-18.629-16.01c-0.708-0.609-1.86-0.611-2.57-0.003l-39.627,33.871
		c-0.711,0.607-1.286,1.827-1.286,2.724v45.089C75.866,386.706,76.649,387.432,77.616,387.432"/>
	<path clip-path="url(#SVGID_4_)" fill="none" stroke="#FFFFFF" stroke-width="8" stroke-miterlimit="10" d="M77.616,387.432h80.705
		c0.965,0,1.75-0.727,1.75-1.623v-45.631c0-0.896-0.554-2.137-1.239-2.77l-9.872-9.157c-0.684-0.634-1.237-1.875-1.237-2.771v-5.862
		c0-0.897-0.784-1.623-1.75-1.623h-4.959c-0.966,0-1.75,0.726-1.75,1.623c0,0.896-0.574,1.129-1.284,0.52l-18.629-16.01
		c-0.708-0.609-1.86-0.611-2.57-0.003l-39.627,33.871c-0.711,0.607-1.286,1.827-1.286,2.724v45.089
		C75.866,386.706,76.649,387.432,77.616,387.432z"/>
</g>
<g>
	<defs>
		<rect id="SVGID_5_" x="-16.112" y="-19" width="913.07" height="913.07"/>
	</defs>
	<clipPath id="SVGID_6_">
		<use xlink:href="#SVGID_5_"  overflow="visible"/>
	</clipPath>
	<path clip-path="url(#SVGID_6_)" fill="#0EBFD9" d="M528.56,79.283c0,39.76-32.232,71.992-71.993,71.992
		c-39.759,0-71.991-32.232-71.991-71.992c0-39.759,32.231-71.991,71.991-71.991C496.327,7.292,528.56,39.524,528.56,79.283"/>
	
		<circle clip-path="url(#SVGID_6_)" fill="none" stroke="#0EBFD9" stroke-width="4" stroke-miterlimit="10" cx="456.568" cy="79.283" r="71.992"/>
	<path clip-path="url(#SVGID_6_)" fill="#FFFFFF" d="M481.338,32.325c-9.474,0-18.337,4.289-24.239,11.473
		c-5.904-7.184-14.769-11.473-24.241-11.473c-17.308,0-31.39,14.083-31.39,31.391c0,13.552,8.081,29.228,24.02,46.594
		c12.266,13.363,25.609,23.709,29.407,26.562l2.202,1.656l2.203-1.655c3.797-2.854,17.14-13.199,29.407-26.562
		c15.939-17.365,24.021-33.041,24.021-46.594C512.727,46.408,498.646,32.325,481.338,32.325"/>
	<path clip-path="url(#SVGID_6_)" fill="none" stroke="#0EBFD9" stroke-width="5" stroke-miterlimit="10" d="M397.459,79.344h27.244
		c0.59,0,1.187-0.556,1.335-1.243l2.314-10.77c0.148-0.686,0.507-0.746,0.804-0.133l2.133,4.409c0.296,0.613,0.691,0.565,0.88-0.106
		l13.2-46.524c0.189-0.671,0.428-0.649,0.529,0.049l12.094,82.127c0.1,0.699,0.236,0.69,0.302-0.013l4.93-54.527
		c0.066-0.704,0.327-0.758,0.583-0.121l10.285,25.482c0.258,0.636,0.686,0.642,0.953,0.013l2.766-6.482
		c0.269-0.63,0.771-0.679,1.119-0.109l4.254,6.915c0.352,0.571,1.112,1.032,1.702,1.032h31.871"/>
	<path clip-path="url(#SVGID_6_)" fill="#FAAF4B" d="M528.56,800.261c0,39.759-32.232,71.991-71.993,71.991
		c-39.759,0-71.991-32.232-71.991-71.991c0-39.76,32.231-71.993,71.991-71.993C496.327,728.268,528.56,760.501,528.56,800.261"/>
	
		<circle clip-path="url(#SVGID_6_)" fill="none" stroke="#FAAF4B" stroke-width="4" stroke-miterlimit="10" cx="456.568" cy="800.261" r="71.992"/>
</g>
<g>
	<defs>
		<rect id="SVGID_7_" x="-16.112" y="-19" width="913.07" height="913.07"/>
	</defs>
	<clipPath id="SVGID_8_">
		<use xlink:href="#SVGID_7_"  overflow="visible"/>
	</clipPath>
	<path clip-path="url(#SVGID_8_)" fill="#FFFFFF" d="M880.227,387.432c0,39.76-32.231,71.993-71.992,71.993
		c-39.76,0-71.991-32.232-71.991-71.993c0-39.759,32.231-71.992,71.991-71.992C847.995,315.44,880.227,347.673,880.227,387.432"/>
	
		<circle clip-path="url(#SVGID_8_)" fill="none" stroke="#FFFFFF" stroke-width="4" stroke-miterlimit="10" cx="808.235" cy="387.432" r="71.992"/>
	<path clip-path="url(#SVGID_8_)" fill="#515254" d="M817.628,443.6h-8.589c-0.911,0-1.651-1.364-1.651-3.048v-71.646
		c0-1.683,0.74-3.049,1.651-3.049h8.589c0.911,0,1.65,1.365,1.65,3.049v71.646C819.279,442.236,818.54,443.6,817.628,443.6"/>
	<path clip-path="url(#SVGID_8_)" fill="none" stroke="#FFFFFF" stroke-width="1.5" stroke-miterlimit="10" d="M817.628,443.6
		h-8.589c-0.911,0-1.651-1.364-1.651-3.048v-71.646c0-1.683,0.74-3.049,1.651-3.049h8.589c0.911,0,1.65,1.365,1.65,3.049v71.646
		C819.279,442.236,818.54,443.6,817.628,443.6z"/>
	<path clip-path="url(#SVGID_8_)" fill="#515254" d="M808.197,438.114h-8.091c-0.337,0-0.61-0.274-0.61-0.611v-2.442
		c0-0.337,0.273-0.61,0.61-0.61h3.028c0.337,0,0.61-0.273,0.61-0.61v-2.494c0-0.337-0.273-0.611-0.61-0.611h-3.028
		c-0.337,0-0.61-0.274-0.61-0.611v-2.392c0-0.336,0.273-0.611,0.61-0.611h8.091"/>
	<path clip-path="url(#SVGID_8_)" fill="none" stroke="#FFFFFF" stroke-width="1.5" stroke-miterlimit="10" d="M808.197,438.114
		h-8.091c-0.337,0-0.61-0.274-0.61-0.611v-2.442c0-0.337,0.273-0.61,0.61-0.61h3.028c0.337,0,0.61-0.273,0.61-0.61v-2.494
		c0-0.337-0.273-0.611-0.61-0.611h-3.028c-0.337,0-0.61-0.274-0.61-0.611v-2.392c0-0.336,0.273-0.611,0.61-0.611h8.091"/>
	<path clip-path="url(#SVGID_8_)" fill="#515254" d="M807.918,438.114h-7.855c-0.326,0-0.592-0.274-0.592-0.611v-2.442
		c0-0.337,0.266-0.61,0.592-0.61h2.94c0.326,0,0.592-0.273,0.592-0.61v-2.494c0-0.336-0.265-0.61-0.592-0.61h-2.94
		c-0.326,0-0.592-0.274-0.592-0.611v-2.392c0-0.337,0.266-0.611,0.592-0.611h7.855"/>
	<path clip-path="url(#SVGID_8_)" fill="none" stroke="#FFFFFF" stroke-width="1.5" stroke-miterlimit="10" d="M807.918,438.114
		h-7.855c-0.326,0-0.592-0.274-0.592-0.611v-2.442c0-0.337,0.266-0.61,0.592-0.61h2.94c0.326,0,0.592-0.273,0.592-0.61v-2.494
		c0-0.336-0.265-0.61-0.592-0.61h-2.94c-0.326,0-0.592-0.274-0.592-0.611v-2.392c0-0.337,0.266-0.611,0.592-0.611h7.855"/>
	<path clip-path="url(#SVGID_8_)" fill="#515254" d="M791.84,334.606v19.816c0,0.674,0.392,1.601,0.875,2.07l20.05,19.489
		c0.482,0.47,1.262,0.467,1.741-0.006l20.367-20.087c0.481-0.473,0.869-1.401,0.869-2.075v-19.208c0-0.673-0.546-1.22-1.22-1.22
		h-41.464C792.385,333.387,791.84,333.934,791.84,334.606"/>
	<path clip-path="url(#SVGID_8_)" fill="#515254" d="M823.699,346.042h-19.816c-0.674,0-1.22-0.545-1.22-1.221v-3.962
		c0-0.674,0.546-1.22,1.22-1.22h19.816c0.674,0,1.22,0.545,1.22,1.22v3.962C824.92,345.498,824.374,346.042,823.699,346.042"/>
	<path clip-path="url(#SVGID_8_)" fill="none" stroke="#FFFFFF" stroke-width="1.5" stroke-miterlimit="10" d="M823.699,346.042
		h-19.816c-0.674,0-1.22-0.545-1.22-1.221v-3.962c0-0.674,0.546-1.22,1.22-1.22h19.816c0.674,0,1.22,0.545,1.22,1.22v3.962
		C824.92,345.498,824.374,346.042,823.699,346.042z"/>
</g>
<g>
	<defs>
		<rect id="SVGID_9_" x="-16.112" y="-19" width="913.07" height="913.07"/>
	</defs>
	<clipPath id="SVGID_10_">
		<use xlink:href="#SVGID_9_"  overflow="visible"/>
	</clipPath>
	<path clip-path="url(#SVGID_10_)" fill="none" stroke="#FFFFFF" stroke-width="4" stroke-miterlimit="10" d="M494.445,850.712
		h-71.299c-8.312,0-15.049-6.737-15.049-15.051v-71.298c0-8.312,6.737-15.05,15.049-15.05h71.299c8.312,0,15.05,6.738,15.05,15.05
		v71.298C509.495,843.975,502.757,850.712,494.445,850.712z"/>
	<g clip-path="url(#SVGID_10_)" enable-background="new    ">
		<g>
			<defs>
				<rect id="SVGID_11_" x="428.228" y="739.709" width="64.545" height="131.884"/>
			</defs>
			<clipPath id="SVGID_12_">
				<use xlink:href="#SVGID_11_"  overflow="visible"/>
			</clipPath>
			<g clip-path="url(#SVGID_12_)">
				<text transform="matrix(1 0 0 1 428.2271 841.2607)" fill="#FFFFFF" font-family="'MyriadPro-Regular'" font-size="121.3287">P</text>
			</g>
		</g>
	</g>
</g>
<g>
	<defs>
		<rect id="SVGID_13_" x="-16.112" y="-19" width="913.07" height="913.07"/>
	</defs>
	<clipPath id="SVGID_14_">
		<use xlink:href="#SVGID_13_"  overflow="visible"/>
	</clipPath>
	<path clip-path="url(#SVGID_14_)" fill="#41A4DC" d="M757.979,199.157c0,11.14-9.031,20.17-20.171,20.17s-20.172-9.03-20.172-20.17
		c0-11.141,9.032-20.171,20.172-20.171S757.979,188.017,757.979,199.157"/>
	<path clip-path="url(#SVGID_14_)" fill="#59C2EF" d="M752.076,198.945c0,7.998-6.482,14.48-14.48,14.48
		c-7.997,0-14.48-6.483-14.48-14.48s6.483-14.48,14.48-14.48C745.594,184.464,752.076,190.947,752.076,198.945"/>
	<path clip-path="url(#SVGID_14_)" fill="#41A4DC" d="M748.765,703.431c0,11.14-9.031,20.17-20.17,20.17
		c-11.141,0-20.172-9.03-20.172-20.17c0-11.141,9.031-20.172,20.172-20.172C739.733,683.259,748.765,692.29,748.765,703.431"/>
	<path clip-path="url(#SVGID_14_)" fill="#59C2EF" d="M742.862,703.218c0,7.998-6.483,14.48-14.48,14.48
		c-7.998,0-14.481-6.482-14.481-14.48s6.483-14.48,14.481-14.48C736.379,688.737,742.862,695.22,742.862,703.218"/>
	<path clip-path="url(#SVGID_14_)" fill="#41A4DC" d="M215.556,692.961c0,11.141-9.031,20.172-20.17,20.172
		c-11.141,0-20.172-9.031-20.172-20.172c0-11.14,9.031-20.17,20.172-20.17C206.525,672.791,215.556,681.821,215.556,692.961"/>
	<path clip-path="url(#SVGID_14_)" fill="#59C2EF" d="M209.653,692.749c0,7.997-6.482,14.48-14.48,14.48
		c-7.997,0-14.48-6.483-14.48-14.48s6.483-14.479,14.48-14.479C203.17,678.27,209.653,684.752,209.653,692.749"/>
</g>
<path fill="none" stroke="#FFFFFF" stroke-width="25" stroke-miterlimit="10" d="M287.527,346.952
	c96.983-96.982,254.219-96.982,351.201,0"/>
<path fill="none" stroke="#FFFFFF" stroke-width="25" stroke-miterlimit="10" d="M331.024,387.955
	c73.931-73.928,193.791-73.931,267.719,0"/>
<path fill="none" stroke="#FFFFFF" stroke-width="25" stroke-miterlimit="10" d="M385.832,444.348
	c43.19-43.195,113.224-43.19,156.416,0.001"/>
<circle fill="#FFFFFF" stroke="#FFFFFF" stroke-width="2" stroke-miterlimit="10" cx="463.128" cy="498.154" r="41.903"/>
</svg>
