<?xml version="1.0" encoding="utf-8"?>
<!-- Generator: Adobe Illustrator 16.0.0, SVG Export Plug-In . SVG Version: 6.00 Build 0)  -->
<!DOCTYPE svg PUBLIC "-//W3C//DTD SVG 1.1//EN" "http://www.w3.org/Graphics/SVG/1.1/DTD/svg11.dtd">
<svg version="1.1" id="Layer_1" xmlns="http://www.w3.org/2000/svg" xmlns:xlink="http://www.w3.org/1999/xlink" x="0px" y="0px"
	 width="150px" height="150px" viewBox="0 0 150 150" enable-background="new 0 0 150 150" xml:space="preserve">
<path fill="#FFFFFF" d="M104.081,15.197c-11.554,0-22.365,5.231-29.565,13.993c-7.2-8.762-18.012-13.993-29.564-13.993
	c-21.11,0-38.285,17.175-38.285,38.285c0,16.53,9.856,35.649,29.295,56.829c14.961,16.298,31.234,28.916,35.867,32.395l2.686,2.02
	l2.687-2.018c4.631-3.48,20.904-16.099,35.866-32.396c19.441-21.179,29.297-40.298,29.297-56.829
	C142.364,32.373,125.19,15.197,104.081,15.197z"/>
<path fill="none" stroke="#2B2B2B" stroke-width="5" stroke-miterlimit="10" d="M1.778,72.544h33.227
	c0.72,0,1.448-0.678,1.628-1.516l2.824-13.135c0.18-0.836,0.618-0.91,0.98-0.162l2.601,5.377c0.362,0.747,0.843,0.689,1.074-0.129
	L60.21,6.236c0.231-0.818,0.522-0.792,0.646,0.06l14.75,100.167c0.123,0.852,0.287,0.841,0.367-0.017l6.014-66.503
	c0.08-0.859,0.398-0.925,0.71-0.147l12.545,31.079c0.314,0.776,0.836,0.783,1.162,0.015l3.373-7.905
	c0.328-0.769,0.941-0.829,1.366-0.134l5.188,8.433c0.429,0.696,1.356,1.259,2.076,1.259h38.872"/>
<g id="base">
	<path fill="#FFFFFF" stroke="#000000" stroke-miterlimit="10" d="M-23.666,173.742"/>
</g>
</svg>
