<?xml version="1.0" encoding="utf-8"?>
<!-- Generator: Adobe Illustrator 16.0.0, SVG Export Plug-In . SVG Version: 6.00 Build 0)  -->
<!DOCTYPE svg PUBLIC "-//W3C//DTD SVG 1.1//EN" "http://www.w3.org/Graphics/SVG/1.1/DTD/svg11.dtd">
<svg version="1.1" xmlns="http://www.w3.org/2000/svg" xmlns:xlink="http://www.w3.org/1999/xlink" x="0px" y="0px" width="150px"
	 height="150px" viewBox="0 0 150 150" enable-background="new 0 0 150 150" xml:space="preserve">
<g id="b1">
	<path fill="#FFFFFF" d="M93.861,31.882c-8.542,0-16.537,3.868-21.861,10.347c-5.324-6.479-13.319-10.347-21.861-10.347
		c-15.609,0-28.309,12.7-28.309,28.309c0,12.223,7.288,26.36,21.662,42.021c11.063,12.051,23.096,21.382,26.521,23.954l1.986,1.493
		l1.987-1.492c3.424-2.573,15.458-11.904,26.521-23.955c14.375-15.66,21.663-29.798,21.663-42.021
		C122.17,44.582,109.471,31.882,93.861,31.882z"/>
	<path fill="none" stroke="#2B2B2B" stroke-width="5" stroke-miterlimit="10" d="M5.667,73.859h31.628
		c0.685,0,1.379-0.595,1.55-1.329l2.688-11.517c0.171-0.733,0.588-0.797,0.933-0.142l2.476,4.715
		c0.344,0.655,0.802,0.604,1.022-0.113L61.288,15.72c0.22-0.717,0.497-0.694,0.615,0.053l14.04,87.826
		c0.118,0.746,0.274,0.738,0.35-0.014l5.725-58.31c0.076-0.753,0.378-0.811,0.676-0.129l11.941,27.25
		c0.299,0.681,0.794,0.687,1.106,0.013l3.21-6.931c0.313-0.674,0.896-0.727,1.302-0.117l4.937,7.394
		c0.407,0.61,1.291,1.104,1.977,1.104h37.002"/>
</g>
<g id="base">
	<path fill="#FFFFFF" stroke="#000000" stroke-miterlimit="10" d="M-23.666,173.742"/>
</g>
</svg>
