<?xml version="1.0" encoding="utf-8"?>
<!-- Generator: Adobe Illustrator 16.0.0, SVG Export Plug-In . SVG Version: 6.00 Build 0)  -->
<!DOCTYPE svg PUBLIC "-//W3C//DTD SVG 1.1//EN" "http://www.w3.org/Graphics/SVG/1.1/DTD/svg11.dtd">
<svg version="1.1" xmlns="http://www.w3.org/2000/svg" xmlns:xlink="http://www.w3.org/1999/xlink" x="0px" y="0px" width="150px"
	 height="150px" viewBox="0 0 150 150" enable-background="new 0 0 150 150" xml:space="preserve">
<g id="Layer_1">
	<g>
		<circle fill="#FFFFFF" cx="53.632" cy="107.842" r="28.426"/>
		<path fill="#FFFFFF" d="M127.605,108.057c0,15.699-12.73,28.426-28.426,28.426c-15.702,0-28.429-12.727-28.429-28.426
			S83.478,79.63,99.18,79.63C114.875,79.63,127.605,92.357,127.605,108.057z"/>
		<circle fill="#FFFFFF" cx="76.405" cy="77.392" r="28.426"/>
	</g>
</g>
<g id="toes">
	
		<ellipse transform="matrix(0.8199 -0.5726 0.5726 0.8199 -31.7853 22.215)" fill="#FFFFFF" cx="19.411" cy="61.621" rx="7.812" ry="13.809"/>
	
		<ellipse transform="matrix(0.8644 -0.5028 0.5028 0.8644 -8.8263 26.8129)" fill="#FFFFFF" cx="45.302" cy="29.771" rx="11.395" ry="17.14"/>
	<path fill="#FFFFFF" d="M117.712,35.244c-4.455,8.353-12.568,12.722-18.123,9.76c-5.55-2.96-6.44-12.133-1.987-20.485
		c4.458-8.354,12.57-12.722,18.122-9.762C121.276,17.719,122.166,26.891,117.712,35.244z"/>
	
		<ellipse transform="matrix(0.8299 0.5579 -0.5579 0.8299 57.1515 -64.0734)" fill="#FFFFFF" cx="133.656" cy="61.692" rx="7.812" ry="13.809"/>
</g>
</svg>
