<?xml version="1.0" encoding="utf-8"?>
<!-- Generator: Adobe Illustrator 16.0.0, SVG Export Plug-In . SVG Version: 6.00 Build 0)  -->
<!DOCTYPE svg PUBLIC "-//W3C//DTD SVG 1.1//EN" "http://www.w3.org/Graphics/SVG/1.1/DTD/svg11.dtd">
<svg version="1.1" xmlns="http://www.w3.org/2000/svg" xmlns:xlink="http://www.w3.org/1999/xlink" x="0px" y="0px" width="1920px"
	 height="200px" viewBox="0 0 1920 200" enable-background="new 0 0 1920 200" xml:space="preserve">
<g id="cloud">
	
		<ellipse fill="#FFFFFF" stroke="#FFFFFF" stroke-width="3" stroke-miterlimit="10" cx="157.5" cy="141.465" rx="45.5" ry="19.035"/>
</g>
<g id="Layer_2">
</g>
<g id="Layer_3">
	
		<ellipse fill="#FFFFFF" stroke="#FFFFFF" stroke-width="3" stroke-miterlimit="10" cx="629.664" cy="165.486" rx="26.164" ry="11.782"/>
	
		<ellipse fill="#FFFFFF" stroke="#FFFFFF" stroke-width="3" stroke-miterlimit="10" cx="1047.164" cy="88.248" rx="39.164" ry="19.504"/>
	
		<ellipse fill="#FFFFFF" stroke="#FFFFFF" stroke-width="3" stroke-miterlimit="10" cx="1445.295" cy="144.758" rx="91.295" ry="32.241"/>
	<g>
		<g>
			<path fill="#FFFFFF" stroke="#FFFFFF" stroke-miterlimit="10" d="M352.976,149.927c0,6.627-5.373,12-12,12H186.927
				c-6.627,0-12-5.373-12-12V76.366c0-6.627,5.373-12,12-12h154.049c6.627,0,12,5.373,12,12V149.927z"/>
			<ellipse fill="#FFFFFF" stroke="#FFFFFF" stroke-miterlimit="10" cx="191.61" cy="118.635" rx="46.341" ry="43.292"/>
			<ellipse fill="#FFFFFF" stroke="#FFFFFF" stroke-miterlimit="10" cx="207.927" cy="113.146" rx="50" ry="48.78"/>
			<ellipse fill="#FFFFFF" stroke="#FFFFFF" stroke-miterlimit="10" cx="214.561" cy="80.22" rx="49.39" ry="32.927"/>
			<ellipse fill="#FFFFFF" stroke="#FFFFFF" stroke-miterlimit="10" cx="236.536" cy="125.342" rx="45.732" ry="36.585"/>
			<ellipse fill="#FFFFFF" stroke="#FFFFFF" stroke-miterlimit="10" cx="321.878" cy="126.342" rx="68.902" ry="36.586"/>
			<ellipse fill="#FFFFFF" stroke="#FFFFFF" stroke-miterlimit="10" cx="180.122" cy="137.536" rx="56.414" ry="24.391"/>
			<ellipse fill="#FFFFFF" stroke="#FFFFFF" stroke-miterlimit="10" cx="291.61" cy="87.17" rx="61.365" ry="38.172"/>
			<ellipse fill="#FFFFFF" stroke="#FFFFFF" stroke-miterlimit="10" cx="354.195" cy="87.231" rx="43.902" ry="31.402"/>
			<ellipse fill="#FFFFFF" stroke="#FFFFFF" stroke-miterlimit="10" cx="267.22" cy="49.732" rx="36.975" ry="25.61"/>
			<ellipse fill="#FFFFFF" stroke="#FFFFFF" stroke-miterlimit="10" cx="322.293" cy="66.805" rx="30.683" ry="28.049"/>
			<ellipse fill="#FFFFFF" stroke="#FFFFFF" stroke-miterlimit="10" cx="132.854" cy="106.439" rx="42.073" ry="31.098"/>
			<ellipse fill="#FFFFFF" stroke="#FFFFFF" stroke-miterlimit="10" cx="179.805" cy="85.402" rx="41.464" ry="21.037"/>
		</g>
		<polygon fill="#F2F2F2" stroke="#F2F2F2" stroke-miterlimit="10" points="148.889,158.473 387.401,110.365 388.44,111.388 
			390.007,113.115 390.978,114.337 392.417,116.461 393.526,118.541 394.326,120.516 395.008,123.152 395.008,125.172 
			395.28,126.161 395.046,128.966 394.348,131.744 393.22,134.419 390.092,139.1 386.907,142.414 384.383,144.537 382.05,146.243 
			379.313,148.009 374.04,150.881 368.745,153.249 360.599,156.153 352.127,158.473 345.755,159.769 340.93,161.342 
			336.167,161.204 330.093,161.801 321.336,162.266 312.774,162.266 306.297,162.021 298.296,161.342 194.13,161.342 
			160.796,161.238 		"/>
	</g>
	<path fill="none" stroke="#2B2B2B" stroke-width="3" stroke-miterlimit="10" d="M267.22,77.3
		c5.996-5.727,15.481-5.508,21.208,0.487"/>
	<path fill="none" stroke="#2B2B2B" stroke-width="3" stroke-miterlimit="10" d="M215.555,75.218
		c5.931-5.793,15.418-5.683,21.212,0.248"/>
	<path fill="none" stroke="#2B2B2B" stroke-width="3" stroke-miterlimit="10" d="M310.609,100.788
		c-33.222,31.728-84.831,31.509-115.391-0.487"/>
	<g>
		<g>
			<g>
				<path fill="#FFFFFF" stroke="#FFFFFF" stroke-miterlimit="10" d="M757.263,169.979c0,4.232-3.431,7.663-7.663,7.663h-98.372
					c-4.232,0-7.663-3.431-7.663-7.663v-46.975c0-4.231,3.431-7.662,7.663-7.662H749.6c4.232,0,7.663,3.431,7.663,7.662V169.979z"/>
				<ellipse fill="#FFFFFF" stroke="#FFFFFF" stroke-miterlimit="10" cx="654.219" cy="149.996" rx="29.593" ry="27.646"/>
				<ellipse fill="#FFFFFF" stroke="#FFFFFF" stroke-miterlimit="10" cx="664.638" cy="146.492" rx="31.929" ry="31.149"/>
				<ellipse fill="#FFFFFF" stroke="#FFFFFF" stroke-miterlimit="10" cx="668.875" cy="125.465" rx="31.54" ry="21.027"/>
				<ellipse fill="#FFFFFF" stroke="#FFFFFF" stroke-miterlimit="10" cx="682.908" cy="154.279" rx="29.203" ry="23.362"/>
				<ellipse fill="#FFFFFF" stroke="#FFFFFF" stroke-miterlimit="10" cx="737.405" cy="154.918" rx="43.999" ry="23.363"/>
				<ellipse fill="#FFFFFF" stroke="#FFFFFF" stroke-miterlimit="10" cx="646.883" cy="162.066" rx="36.025" ry="15.575"/>
				<ellipse fill="#FFFFFF" stroke="#FFFFFF" stroke-miterlimit="10" cx="718.077" cy="129.904" rx="39.186" ry="24.376"/>
				<ellipse fill="#FFFFFF" stroke="#FFFFFF" stroke-miterlimit="10" cx="758.042" cy="129.943" rx="28.035" ry="20.053"/>
				<ellipse fill="#FFFFFF" stroke="#FFFFFF" stroke-miterlimit="10" cx="702.502" cy="105.996" rx="23.611" ry="16.353"/>
				<ellipse fill="#FFFFFF" stroke="#FFFFFF" stroke-miterlimit="10" cx="737.67" cy="116.898" rx="19.593" ry="17.911"/>
				<ellipse fill="#FFFFFF" stroke="#FFFFFF" stroke-miterlimit="10" cx="616.698" cy="142.209" rx="26.867" ry="19.858"/>
				<ellipse fill="#FFFFFF" stroke="#FFFFFF" stroke-miterlimit="10" cx="646.68" cy="128.775" rx="26.478" ry="13.434"/>
			</g>
			<polygon fill="#F2F2F2" stroke="#F2F2F2" stroke-miterlimit="10" points="626.938,175.436 779.247,144.716 779.91,145.369 
				780.911,146.472 781.531,147.252 782.449,148.608 783.158,149.937 783.669,151.197 784.104,152.881 784.104,154.171 
				784.278,154.803 784.128,156.594 783.683,158.367 782.962,160.076 780.965,163.064 778.931,165.182 777.319,166.537 
				775.83,167.627 774.082,168.754 770.714,170.588 767.333,172.101 762.131,173.955 756.721,175.436 752.652,176.264 
				749.571,177.269 746.53,177.181 742.651,177.562 737.059,177.858 731.591,177.858 727.456,177.701 722.346,177.269 
				655.828,177.269 634.542,177.202 			"/>
		</g>
		<path fill="none" stroke="#2B2B2B" stroke-width="3" stroke-miterlimit="10" d="M702.502,123.602
			c3.829-3.657,9.886-3.518,13.543,0.311"/>
		<path fill="none" stroke="#2B2B2B" stroke-width="3" stroke-miterlimit="10" d="M669.509,122.271
			c3.788-3.699,9.846-3.629,13.546,0.158"/>
		<path fill="none" stroke="#2B2B2B" stroke-width="3" stroke-miterlimit="10" d="M730.209,138.6
			c-21.215,20.261-54.171,20.121-73.686-0.311"/>
	</g>
	<g>
		<g>
			<g>
				<path fill="#FFFFFF" stroke="#FFFFFF" stroke-miterlimit="10" d="M1184.789,99.535c0,4.825-3.647,8.735-8.149,8.735h-104.638
					c-4.502,0-8.151-3.91-8.151-8.735V45.994c0-4.823,3.649-8.733,8.151-8.733h104.638c4.502,0,8.149,3.91,8.149,8.733V99.535z"/>
				<ellipse fill="#FFFFFF" stroke="#FFFFFF" stroke-miterlimit="10" cx="1075.182" cy="76.759" rx="31.478" ry="31.51"/>
				<ellipse fill="#FFFFFF" stroke="#FFFFFF" stroke-miterlimit="10" cx="1086.266" cy="72.766" rx="33.962" ry="35.504"/>
				<ellipse fill="#FFFFFF" stroke="#FFFFFF" stroke-miterlimit="10" cx="1090.772" cy="48.799" rx="33.549" ry="23.967"/>
				<ellipse fill="#FFFFFF" stroke="#FFFFFF" stroke-miterlimit="10" cx="1105.699" cy="81.641" rx="31.064" ry="26.628"/>
				<ellipse fill="#FFFFFF" stroke="#FFFFFF" stroke-miterlimit="10" cx="1163.667" cy="82.369" rx="46.802" ry="26.629"/>
				<ellipse fill="#FFFFFF" stroke="#FFFFFF" stroke-miterlimit="10" cx="1067.379" cy="90.517" rx="38.319" ry="17.753"/>
				<ellipse fill="#FFFFFF" stroke="#FFFFFF" stroke-miterlimit="10" cx="1143.107" cy="53.859" rx="41.682" ry="27.783"/>
				<ellipse fill="#FFFFFF" stroke="#FFFFFF" stroke-miterlimit="10" cx="1185.619" cy="53.903" rx="29.821" ry="22.856"/>
				<ellipse fill="#FFFFFF" stroke="#FFFFFF" stroke-miterlimit="10" cx="1126.541" cy="26.609" rx="25.115" ry="18.639"/>
				<ellipse fill="#FFFFFF" stroke="#FFFFFF" stroke-miterlimit="10" cx="1163.949" cy="39.035" rx="20.84" ry="20.415"/>
				<ellipse fill="#FFFFFF" stroke="#FFFFFF" stroke-miterlimit="10" cx="1035.272" cy="67.884" rx="28.579" ry="22.635"/>
				<ellipse fill="#FFFFFF" stroke="#FFFFFF" stroke-miterlimit="10" cx="1067.164" cy="52.572" rx="28.165" ry="15.312"/>
			</g>
			<polygon fill="#F2F2F2" stroke="#F2F2F2" stroke-miterlimit="10" points="1046.164,105.755 1208.174,70.741 1208.88,71.485 
				1209.944,72.742 1210.603,73.631 1211.58,75.178 1212.334,76.691 1212.878,78.128 1213.34,80.047 1213.34,81.518 
				1213.525,82.238 1213.367,84.279 1212.893,86.3 1212.126,88.249 1210.002,91.654 1207.838,94.067 1206.124,95.612 
				1204.539,96.854 1202.68,98.139 1199.098,100.229 1195.501,101.953 1189.969,104.067 1184.214,105.755 1179.886,106.698 
				1176.608,107.844 1173.373,107.744 1169.248,108.178 1163.3,108.517 1157.482,108.517 1153.084,108.337 1147.649,107.844 
				1076.895,107.844 1054.252,107.769 			"/>
		</g>
		<path fill="none" stroke="#2B2B2B" stroke-width="3" stroke-miterlimit="10" d="M1126.541,46.675
			c4.073-4.168,10.516-4.009,14.405,0.354"/>
		<path fill="none" stroke="#2B2B2B" stroke-width="3" stroke-miterlimit="10" d="M1091.446,45.159
			c4.029-4.216,10.473-4.136,14.409,0.18"/>
		<path fill="none" stroke="#2B2B2B" stroke-width="3" stroke-miterlimit="10" d="M1156.014,63.77
			c-22.566,23.093-57.622,22.934-78.38-0.354"/>
	</g>
	<g>
		<g>
			<g>
				<path fill="#FFFFFF" stroke="#FFFFFF" stroke-miterlimit="10" d="M1665.118,162.3c0,8.313-6.287,15.053-14.046,15.053h-180.328
					c-7.759,0-14.048-6.739-14.048-15.053V70.028c0-8.313,6.289-15.051,14.048-15.051h180.328c7.759,0,14.046,6.738,14.046,15.051
					V162.3z"/>
				<ellipse fill="#FFFFFF" stroke="#FFFFFF" stroke-miterlimit="10" cx="1476.225" cy="123.049" rx="54.248" ry="54.304"/>
				<ellipse fill="#FFFFFF" stroke="#FFFFFF" stroke-miterlimit="10" cx="1495.326" cy="116.166" rx="58.53" ry="61.187"/>
				<path fill="#FFFFFF" stroke="#FFFFFF" stroke-miterlimit="10" d="M1560.91,74.862c0,22.811-25.888,41.304-57.82,41.304
					c-31.93,0-57.815-18.493-57.815-41.304c0-22.808,25.886-41.3,57.815-41.3C1535.022,33.563,1560.91,52.055,1560.91,74.862z"/>
				<ellipse fill="#FFFFFF" stroke="#FFFFFF" stroke-miterlimit="10" cx="1528.815" cy="131.461" rx="53.534" ry="45.892"/>
				<ellipse fill="#FFFFFF" stroke="#FFFFFF" stroke-miterlimit="10" cx="1628.716" cy="132.716" rx="80.657" ry="45.892"/>
				<path fill="#FFFFFF" stroke="#FFFFFF" stroke-miterlimit="10" d="M1528.814,146.757c0,16.898-29.566,30.596-66.036,30.596
					c-36.475,0-66.039-13.697-66.039-30.596c0-16.896,29.564-30.591,66.039-30.591
					C1499.248,116.166,1528.814,129.861,1528.814,146.757z"/>
				<path fill="#FFFFFF" stroke="#FFFFFF" stroke-miterlimit="10" d="M1521.452,83.583c0-26.445,32.16-47.881,71.835-47.881
					c39.671,0,71.831,21.436,71.831,47.881c0,26.439-32.16,47.878-71.831,47.878C1553.612,131.461,1521.452,110.022,1521.452,83.583
					z"/>
				<ellipse fill="#FFFFFF" stroke="#FFFFFF" stroke-miterlimit="10" cx="1666.547" cy="83.659" rx="51.393" ry="39.389"/>
				<path fill="#FFFFFF" stroke="#FFFFFF" stroke-miterlimit="10" d="M1608.019,36.621c0-17.74-19.38-32.123-43.284-32.123
					s-43.282,14.382-43.282,32.123c0,17.744,19.378,32.123,43.282,32.123S1608.019,54.365,1608.019,36.621z"/>
				<ellipse fill="#FFFFFF" stroke="#FFFFFF" stroke-miterlimit="10" cx="1629.203" cy="58.036" rx="35.916" ry="35.181"/>
				<ellipse fill="#FFFFFF" stroke="#FFFFFF" stroke-miterlimit="10" cx="1407.445" cy="107.752" rx="49.251" ry="39.008"/>
				<ellipse fill="#FFFFFF" stroke="#FFFFFF" stroke-miterlimit="10" cx="1462.406" cy="81.365" rx="48.538" ry="26.387"/>
			</g>
			<polygon fill="#F2F2F2" stroke="#F2F2F2" stroke-miterlimit="10" points="1426.216,173.018 1705.418,112.675 1706.635,113.959 
				1708.469,116.125 1709.603,117.656 1711.288,120.322 1712.588,122.931 1713.524,125.409 1714.321,128.714 1714.321,131.249 
				1714.641,132.491 1714.368,136.008 1713.55,139.491 1712.229,142.848 1708.569,148.718 1704.84,152.877 1701.886,155.539 
				1699.154,157.68 1695.95,159.893 1689.776,163.496 1683.577,166.466 1674.043,170.109 1664.126,173.018 1656.667,174.644 
				1651.019,176.619 1645.444,176.447 1638.335,177.194 1628.084,177.776 1618.059,177.776 1610.478,177.467 1601.112,176.619 
				1479.176,176.619 1440.154,176.487 			"/>
		</g>
		<path fill="none" stroke="#2B2B2B" stroke-width="3" stroke-miterlimit="10" d="M1564.734,71.202
			c7.02-7.184,18.122-6.909,24.827,0.61"/>
		<path fill="none" stroke="#2B2B2B" stroke-width="3" stroke-miterlimit="10" d="M1504.254,68.59
			c6.943-7.266,18.047-7.129,24.832,0.311"/>
		<path fill="none" stroke="#2B2B2B" stroke-width="3" stroke-miterlimit="10" d="M1615.527,100.662
			c-38.891,39.798-99.305,39.522-135.078-0.609"/>
	</g>
</g>
<g id="Layer_4">
</g>
</svg>
