<?xml version="1.0" encoding="utf-8"?>
<!-- Generator: Adobe Illustrator 16.0.0, SVG Export Plug-In . SVG Version: 6.00 Build 0)  -->
<!DOCTYPE svg PUBLIC "-//W3C//DTD SVG 1.1//EN" "http://www.w3.org/Graphics/SVG/1.1/DTD/svg11.dtd">
<svg version="1.1" xmlns="http://www.w3.org/2000/svg" xmlns:xlink="http://www.w3.org/1999/xlink" x="0px" y="0px" width="150px"
	 height="150px" viewBox="0 0 150 150" enable-background="new 0 0 150 150" xml:space="preserve">
<g id="base">
	<path fill="#FFFFFF" stroke="#000000" stroke-miterlimit="10" d="M-23.666,173.742"/>
	<g>
		<path fill="none" stroke="#FFFFFF" stroke-width="4" stroke-miterlimit="10" d="M10.774,142.412h129.419
			c1.549,0,2.807-1.166,2.807-2.604V66.635c0-1.437-0.889-3.427-1.986-4.443l-15.832-14.685c-1.096-1.016-1.984-3.005-1.984-4.444
			v-9.399c0-1.438-1.258-2.603-2.807-2.603h-7.953c-1.549,0-2.807,1.165-2.807,2.603l0,0c0,1.438-0.92,1.811-2.059,0.834
			L77.697,8.824c-1.137-0.977-2.982-0.979-4.122-0.005L10.031,63.135c-1.141,0.974-2.064,2.93-2.064,4.367v72.306
			C7.967,141.246,9.223,142.412,10.774,142.412z"/>
	</g>
</g>
<g id="Layer_2">
	<text transform="matrix(1 0 0 1 48.3325 121.6533)" fill="#FFFFFF" font-family="'MyriadPro-BoldCond'" font-size="12">SMART HOME</text>
</g>
<g id="CONNECTBASE">
	<path fill="#FFFFFF" d="M82.167,105.652H68.833c-1.381,0-2.5-1.119-2.5-2.5V89.819c0-1.381,1.119-2.5,2.5-2.5h13.333
		c1.381,0,2.5,1.119,2.5,2.5v13.333C84.667,104.533,83.548,105.652,82.167,105.652z"/>
</g>
<g id="Layer_4">
	<path fill="none" stroke="#FFFFFF" stroke-width="5" stroke-miterlimit="10" d="M36.239,56.921c21.59-21.588,56.591-21.588,78.18,0
		"/>
	<path fill="none" stroke="#FFFFFF" stroke-width="5" stroke-miterlimit="10" d="M46.974,67.382
		c15.706-15.705,41.168-15.706,56.874,0"/>
	<path fill="none" stroke="#FFFFFF" stroke-width="5" stroke-miterlimit="10" d="M58.617,79.362c9.175-9.178,24.052-9.176,33.229,0"
		/>
</g>
</svg>
