<?xml version="1.0" encoding="utf-8"?>
<!-- Generator: Adobe Illustrator 16.0.0, SVG Export Plug-In . SVG Version: 6.00 Build 0)  -->
<!DOCTYPE svg PUBLIC "-//W3C//DTD SVG 1.1//EN" "http://www.w3.org/Graphics/SVG/1.1/DTD/svg11.dtd">
<svg version="1.1" xmlns="http://www.w3.org/2000/svg" xmlns:xlink="http://www.w3.org/1999/xlink" x="0px" y="0px" width="150px"
	 height="150px" viewBox="0 0 150 150" enable-background="new 0 0 150 150" xml:space="preserve">
<g id="base">
	<path fill="#FFFFFF" stroke="#000000" stroke-miterlimit="10" d="M-23.666,173.742"/>
</g>
<g id="b1">
	<path fill="#FFFFFF" stroke="#FFFFFF" stroke-miterlimit="10" d="M124,143.75H29.25c-11.046,0-20-8.954-20-20V29
		c0-11.046,8.954-20,20-20H124c11.046,0,20,8.954,20,20v94.75C144,134.796,135.046,143.75,124,143.75z"/>
	<path fill="#2B2B2B" stroke="#FFFFFF" stroke-miterlimit="10" d="M120.819,139.75H31.999c-10.354,0-18.749-8.394-18.749-18.748
		V32.181c0-10.355,8.394-18.749,18.749-18.749h88.821c10.354,0,18.749,8.394,18.749,18.749v88.821
		C139.568,131.356,131.174,139.75,120.819,139.75z"/>
	<text transform="matrix(1 0 0 1 36.0015 131.1904)" fill="#FFFFFF" font-family="'MyriadPro-Regular'" font-size="161.2359">P</text>
</g>
</svg>
