<?xml version="1.0" encoding="utf-8"?>
<!-- Generator: Adobe Illustrator 16.0.0, SVG Export Plug-In . SVG Version: 6.00 Build 0)  -->
<!DOCTYPE svg PUBLIC "-//W3C//DTD SVG 1.1//EN" "http://www.w3.org/Graphics/SVG/1.1/DTD/svg11.dtd">
<svg version="1.1" xmlns="http://www.w3.org/2000/svg" xmlns:xlink="http://www.w3.org/1999/xlink" x="0px" y="0px" width="150px"
	 height="150px" viewBox="0 0 150 150" enable-background="new 0 0 150 150" xml:space="preserve">
<g id="base">
	<path fill="#FFFFFF" stroke="#FFFFFF" stroke-miterlimit="10" d="M-47.666,220.742"/>
</g>
<g id="Layer_3">
	<rect x="8.512" y="53.38" fill="none" stroke="#FFFFFF" stroke-width="4" stroke-miterlimit="10" width="64.384" height="64.384"/>
	<path fill="none" stroke="#FFFFFF" stroke-width="2" stroke-miterlimit="10" d="M59.231,116.439c0,0,13.089-6.488,13.089-10.727
		c0-4.226,0,11.477,0,11.477H58.369L59.231,116.439z"/>
	<path fill="none" stroke="#FFFFFF" stroke-width="2" stroke-miterlimit="10" d="M24.53,54.774c0,0-15.435,7.666-15.435,12.647
		c0,4.998,0-13.533,0-13.533h16.452L24.53,54.774z"/>
	<path fill="none" stroke="#FFFFFF" stroke-width="2" stroke-miterlimit="10" d="M72.121,66.807c0,0-6.488-13.089-10.726-13.089
		c-4.226,0,11.489,0,11.489,0L72.871,67.67L72.121,66.807z"/>
	<path fill="none" stroke="#FFFFFF" stroke-width="2" stroke-miterlimit="10" d="M9.528,103.131c0,0,7.458,15.017,12.321,15.017
		c4.848,0-13.181,0-13.181,0V102.14L9.528,103.131z"/>
</g>
<g id="Layer_4">
	<g>
		<path fill="none" stroke="#FFFFFF" stroke-width="2" stroke-miterlimit="10" d="M9.475,90.935h15.49
			c0.475,0,1.137-0.262,1.475-0.586l8.876-8.577c0.338-0.326,1-0.6,1.475-0.6h10.264c0.476,0,1.137,0.273,1.476,0.6l8.313,8.039
			c0.35,0.324,1,0.588,1.475,0.588h13.602c0.475,0,0.863-0.375,0.863-0.851v-5.577c0-0.475-0.388-0.861-0.863-0.861H61.432
			c-0.475,0-1.138-0.275-1.475-0.6l-7.263-7.015c-0.338-0.324-1-0.6-1.475-0.6H31.903c-0.476,0-1.138,0.275-1.476,0.6l-7.451,7.201
			c-0.338,0.325-1,0.601-1.475,0.601H9.587c-0.475,0-0.863,0.387-0.875,0.861l-0.075,5.926C8.624,90.56,9,90.935,9.475,90.935z"/>
	</g>
	
		<rect x="78.596" y="78.52" fill="none" stroke="#FFFFFF" stroke-width="4" stroke-miterlimit="10" width="64.385" height="39.094"/>
	<path fill="none" stroke="#FFFFFF" stroke-width="2" stroke-miterlimit="10" d="M128.467,115.197c0,0,15.367-5.856,15.367-9.656
		c0-3.816,0,10.323,0,10.323h-16.381L128.467,115.197z"/>
	<path fill="none" stroke="#FFFFFF" stroke-width="2" stroke-miterlimit="10" d="M93.586,79.434c0,0-13.907,5.144-13.907,8.51
		c0,3.349,0-9.115,0-9.115h14.822L93.586,79.434z"/>
	<path fill="none" stroke="#FFFFFF" stroke-width="2" stroke-miterlimit="10" d="M141.342,89.451c0,0-7.132-10.719-11.792-10.719
		c-4.645,0,12.632,0,12.632,0l-0.015,11.429L141.342,89.451z"/>
	<path fill="none" stroke="#FFFFFF" stroke-width="2" stroke-miterlimit="10" d="M80.652,106.521c0,0,7.212,10.752,11.914,10.752
		c4.686,0-12.746,0-12.746,0V105.81L80.652,106.521z"/>
	<g>
		<path fill="none" stroke="#FFFFFF" stroke-width="2" stroke-miterlimit="10" d="M79.559,101.323h15.49
			c0.475,0,1.137-0.16,1.475-0.362l8.875-5.2c0.338-0.199,1.002-0.361,1.477-0.361h10.266c0.475,0,1.137,0.162,1.473,0.361
			l8.314,4.876c0.35,0.201,1,0.363,1.475,0.363h13.604c0.475,0,0.861-0.237,0.861-0.524v-3.389c0-0.287-0.387-0.514-0.861-0.514
			h-10.49c-0.475,0-1.137-0.163-1.475-0.362l-7.264-4.263c-0.338-0.2-1-0.362-1.477-0.362h-19.314c-0.475,0-1.137,0.162-1.475,0.362
			l-7.451,4.376c-0.336,0.199-1,0.362-1.477,0.362H79.672c-0.477,0-0.863,0.226-0.875,0.513l-0.076,3.601
			C78.709,101.088,79.084,101.323,79.559,101.323z"/>
	</g>
	
		<rect x="78.758" y="28.49" fill="none" stroke="#FFFFFF" stroke-width="4" stroke-miterlimit="10" width="44.406" height="44.407"/>
	<path fill="none" stroke="#FFFFFF" stroke-width="2" stroke-miterlimit="10" d="M110.352,72.092c0,0,12.316-7.37,12.316-12.185
		c0-4.796,0,13.05,0,13.05H109.55L110.352,72.092z"/>
	<path fill="none" stroke="#FFFFFF" stroke-width="2" stroke-miterlimit="10" d="M92.193,29.08c0,0-12.41,6.401-12.41,10.585
		c0,4.165,0-11.336,0-11.336h13.218L92.193,29.08z"/>
	<path fill="none" stroke="#FFFFFF" stroke-width="2" stroke-miterlimit="10" d="M121.916,39.462c0,0-5.119-10.735-8.441-10.735
		c-3.337,0,9.026,0,9.026,0v11.435L121.916,39.462z"/>
	<path fill="none" stroke="#FFFFFF" stroke-width="2" stroke-miterlimit="10" d="M79.212,60.102c0,0,6.225,11.893,10.263,11.893
		c4.057,0-10.974,0-10.974,0V59.328L79.212,60.102z"/>
	<g>
		<path fill="none" stroke="#FFFFFF" stroke-width="2" stroke-miterlimit="10" d="M79.434,54.394h10.676
			c0.325,0,0.788-0.188,1.026-0.413l6.113-5.913c0.237-0.225,0.688-0.4,1.013-0.4h7.088c0.324,0,0.774,0.175,1.012,0.4l5.74,5.55
			c0.237,0.226,0.687,0.413,1.011,0.413h9.39c0.325,0,0.588-0.275,0.588-0.6v-3.851c0-0.326-0.263-0.588-0.588-0.588h-7.239
			c-0.337,0-0.787-0.188-1.024-0.413l-5.001-4.838c-0.237-0.226-0.688-0.413-1.011-0.413H94.897c-0.336,0-0.788,0.188-1.025,0.413
			l-5.137,4.976c-0.238,0.225-0.688,0.4-1.013,0.4h-8.215c-0.324,0-0.6,0.275-0.6,0.6l-0.063,4.088
			C78.833,54.13,79.096,54.394,79.434,54.394z"/>
	</g>
</g>
</svg>
