<?xml version="1.0" encoding="utf-8"?>
<!-- Generator: Adobe Illustrator 16.0.0, SVG Export Plug-In . SVG Version: 6.00 Build 0)  -->
<!DOCTYPE svg PUBLIC "-//W3C//DTD SVG 1.1//EN" "http://www.w3.org/Graphics/SVG/1.1/DTD/svg11.dtd">
<svg version="1.1" id="Layer_1" xmlns="http://www.w3.org/2000/svg" xmlns:xlink="http://www.w3.org/1999/xlink" x="0px" y="0px"
	 width="220px" height="150px" viewBox="0 0 220 150" enable-background="new 0 0 220 150" xml:space="preserve">
<rect x="2.56" y="108.646" fill="#EA5355" width="209.093" height="23.327"/>
<g id="top_x5F_tele">
	<polygon fill="#E83D3C" points="209.537,66.869 2.06,44.404 3.676,23.778 211.152,46.245 	"/>
	<path fill="#EA5355" d="M209.475,31.279l-22.011-2.384c-1.68-0.182-3.181,1.284-3.336,3.257l-0.758,9.661
		c-0.153,1.976,1.093,3.738,2.772,3.92l22.013,2.384c1.679,0.182,3.179-1.286,3.335-3.26l0.758-9.66
		C212.401,33.223,211.154,31.46,209.475,31.279"/>
	<path fill="#EA5355" d="M203.688,22.145l-6.106-0.661c-0.842-0.091-1.597,0.645-1.675,1.635l-1.065,13.586
		c-0.077,0.991,0.548,1.877,1.394,1.968l6.104,0.661c0.845,0.092,1.598-0.645,1.676-1.636l1.064-13.585
		C205.159,23.122,204.531,22.235,203.688,22.145"/>
	<path fill="#EA5355" d="M216.771,16.27c-0.343,4.36-7.319,7.168-15.583,6.274c-8.264-0.894-14.686-5.155-14.342-9.515
		c0.341-4.361,7.317-7.17,15.58-6.274C210.689,7.649,217.112,11.908,216.771,16.27"/>
	<polygon fill="#FFFFFF" points="43.368,68.37 15.456,65.717 16.757,46.818 44.667,49.47 	"/>
	<rect x="22.838" y="60.085" fill="#FFFFFF" width="14.447" height="13.57"/>
</g>
<path fill="#FFFFFF" d="M175.729,41.248h-18.289c-4.472,0-8.13,3.658-8.13,8.129v52.5c0,4.471,3.658,8.129,8.13,8.129h18.289
	c4.471,0,8.129-3.658,8.129-8.129v-52.5C183.857,44.906,180.199,41.248,175.729,41.248"/>
<path fill="#E83D3C" d="M174.95,53.376c0,4.167-3.378,7.544-7.544,7.544c-4.167,0-7.546-3.377-7.546-7.544
	c0-4.166,3.379-7.545,7.546-7.545C171.572,45.831,174.95,49.21,174.95,53.376"/>
<rect x="2.56" y="94.452" fill="#FFFFFF" width="56.005" height="14.077"/>
</svg>
