<?xml version="1.0" encoding="utf-8"?>
<!-- Generator: Adobe Illustrator 16.0.0, SVG Export Plug-In . SVG Version: 6.00 Build 0)  -->
<!DOCTYPE svg PUBLIC "-//W3C//DTD SVG 1.1//EN" "http://www.w3.org/Graphics/SVG/1.1/DTD/svg11.dtd">
<svg version="1.1" id="Layer_1" xmlns="http://www.w3.org/2000/svg" xmlns:xlink="http://www.w3.org/1999/xlink" x="0px" y="0px"
	 width="220px" height="150px" viewBox="0 0 220 150" enable-background="new 0 0 220 150" xml:space="preserve">
<rect x="2.56" y="108.646" fill="#EA5355" width="209.093" height="23.327"/>
<rect x="2.928" y="40.236" transform="matrix(0.9958 0.0917 -0.0917 0.9958 4.9517 -9.6197)" fill="#E83D3C" width="208.356" height="17.624"/>
<path fill="#EA5355" d="M209.975,37.097l-22.011-2.028c-1.68-0.155-3.181,1.093-3.336,2.771l-0.758,8.22
	c-0.153,1.681,1.093,3.181,2.772,3.336l22.013,2.029c1.679,0.155,3.179-1.094,3.335-2.773l0.758-8.22
	C212.901,38.751,211.654,37.252,209.975,37.097"/>
<path fill="#EA5355" d="M204.188,29.325l-6.106-0.562c-0.842-0.077-1.597,0.548-1.675,1.392l-1.065,11.56
	c-0.077,0.843,0.548,1.597,1.394,1.675l6.104,0.562c0.845,0.079,1.598-0.548,1.676-1.392L205.58,31
	C205.659,30.157,205.031,29.402,204.188,29.325"/>
<path fill="#EA5355" d="M217.271,24.326c-0.343,3.71-7.319,6.1-15.583,5.339c-8.264-0.761-14.686-4.387-14.342-8.096
	c0.341-3.711,7.317-6.102,15.58-5.339C211.189,16.991,217.612,20.615,217.271,24.326"/>
<path fill="#FFFFFF" d="M175.729,41.248h-18.289c-4.472,0-8.13,3.658-8.13,8.129v52.5c0,4.471,3.658,8.129,8.13,8.129h18.289
	c4.471,0,8.129-3.658,8.129-8.129v-52.5C183.857,44.906,180.199,41.248,175.729,41.248"/>
<path fill="#E83D3C" d="M174.95,53.376c0,4.167-3.378,7.544-7.544,7.544c-4.167,0-7.546-3.377-7.546-7.544
	c0-4.166,3.379-7.545,7.546-7.545C171.572,45.831,174.95,49.21,174.95,53.376"/>
<rect x="2.56" y="94.452" fill="#FFFFFF" width="56.005" height="14.077"/>
<rect x="16.561" y="51.422" transform="matrix(0.9967 0.0806 -0.0806 0.9967 4.896 -2.2705)" fill="#FFFFFF" width="28.003" height="16.134"/>
<rect x="23.338" y="61.608" fill="#FFFFFF" width="14.447" height="11.547"/>
</svg>
