<?xml version="1.0" encoding="utf-8"?>
<!-- Generator: Adobe Illustrator 20.0.0, SVG Export Plug-In . SVG Version: 6.00 Build 0)  -->
<svg version="1.1" id="Layer_1" xmlns="http://www.w3.org/2000/svg" xmlns:xlink="http://www.w3.org/1999/xlink" x="0px" y="0px"
	 viewBox="0 0 1280 960" style="enable-background:new 0 0 1280 960;" xml:space="preserve">
<style type="text/css">
	.st0{fill:#FF5050;}
	.st1{fill:#F9F9F9;}
	.st2{fill:#FFFFFF;}
	.st3{fill:#FF3333;}
</style>
<rect id="_x3C_base_x3E_" x="143.9" y="580.7" class="st0" width="996" height="121"/>
<path id="_x3C_tele-top-base_x3E_" class="st0" d="M1142.9,268.9l-132.3-12.2c-2.7-0.3-5.2,1.8-5.4,4.5l-5.8,62.5
	c-0.3,2.7,1.8,5.2,4.5,5.4l132.3,12.2c2.7,0.3,5.2-1.8,5.4-4.5l5.8-62.5C1147.7,271.6,1145.7,269.1,1142.9,268.9z"/>
<rect id="_x3C_tap-top-base_x3E_" x="210.6" y="332.5" transform="matrix(0.9958 9.174823e-02 -9.174823e-02 0.9958 34.2914 -23.6027)" class="st1" width="126.6" height="57.3"/>
<rect id="_x3C_tap-bottom_x3E_" x="143.9" y="517.1" class="st2" width="253.1" height="63.6"/>
<rect id="_x3C_tap-top-ping_x3E_" x="233.6" y="386.1" transform="matrix(0.9958 9.174823e-02 -9.174823e-02 0.9958 39.1889 -22.8591)" class="st2" width="69.3" height="57.3"/>
<rect id="_x3C_top_x3E_" x="145.7" y="281.9" transform="matrix(0.9958 9.174823e-02 -9.174823e-02 0.9958 32.4334 -57.6235)" class="st3" width="994.5" height="84.1"/>
<path id="_x3C_hinge_x3E_" class="st2" d="M957.3,287.4H823.1c-6.6,0-12,5.4-12,12v291c0,6.6,5.4,12,12,12h134.2c6.6,0,12-5.4,12-12
	v-291C969.3,292.8,963.9,287.4,957.3,287.4z"/>
<circle id="_x3C_screw_x3E_" class="st3" cx="894" cy="343" r="34.6"/>
<path id="_x3C_tele-top-connector_x3E_" class="st0" d="M1105.5,241.4l-41.4-3.8c-1.4-0.1-2.6,0.9-2.7,2.3l-6.4,69
	c-0.1,1.4,0.9,2.6,2.3,2.7l41.4,3.8c1.4,0.1,2.6-0.9,2.7-2.3l6.4-69C1107.9,242.8,1106.9,241.5,1105.5,241.4z"/>
<ellipse id="_x3C_tele-top_x3E_" transform="matrix(9.174824e-02 -0.9958 0.9958 9.174824e-02 783.5165 1277.3949)" class="st0" cx="1092" cy="209.2" rx="34.1" ry="76"/>
</svg>
